<mxfile host="app.diagrams.net" modified="2021-10-27T08:40:05.535Z" agent="5.0 (Macintosh; Intel Mac OS X 10_15_7) AppleWebKit/537.36 (KHTML, like Gecko) Chrome/95.0.4638.54 Safari/537.36" etag="dXIbQ_83q-G-bPGYLtyF" version="15.5.9" type="github">
  <diagram id="2bC6ZcNhFohOft8TPeFW" name="Page-1">
    <mxGraphModel dx="3655" dy="2903" grid="1" gridSize="10" guides="1" tooltips="1" connect="1" arrows="1" fold="1" page="1" pageScale="1" pageWidth="4681" pageHeight="3300" math="0" shadow="0">
      <root>
        <mxCell id="0" />
        <mxCell id="1" parent="0" />
        <mxCell id="LYCwLjDnQvL3Gzslhouy-1" value="" style="shape=image;verticalLabelPosition=bottom;labelBackgroundColor=#ffffff;verticalAlign=top;aspect=fixed;imageAspect=0;image=data:image/png,iVBORw0KGgoAAAANSUhEUgAAAMoAAACHCAYAAABXo8YaAAAJ4UlEQVR4Xu3dMWgb9x4H8K8er4aCwRo6JGQIuCcXhKbQerCyvMFOZS9KaURCA/ZgWy8QKg32YOrhDYZAm1Kp8DByoFi00wUaL5aSeAvYg4Z0MYZEV6+BN51Lhm7/N9yddCfd6X6KFOdsfz8QON39/3cZ7qv//2T99I8ppRSIqKd/hDUgIgaFSIRBIRJgUIgE/ul+sbS0FNyS6IJ59OhRa9sTFAB4+PBh5y6iC2dlZcXzmlMvIgEGhUiAQSESYFCIBBgUIgEGhUiAQSESEAblGJszccTjnf9msHkc1ncY9lA81esReQmDEqSBtWu8een86zsokw9ewjRNmOZjLAAAGnjy7H0nZRol04RpPse98bC2RMPXd1DapjFnJQWNV396pmfFPXuqNLMJJ0J7xY5pW3HPPtLuN+MemvaKVruZTRx3Tr2ONzETjyMeL2Kvte0+p/813ef3HuOoSL0NEJQ97G5bW5Offeo5sn3rFrZbr6wg3GrvcBrZIRjHvVV7bHryrB0s++STN28geBA5wg//XkPDebl9C1ZWAq6JoGOcQlJvfQelsXbNfhd2wrCA1c750MJja3r2/B7G937GWgMAJvHgpWntf/kAk9bJ8PMegOk5axrXeAJrFueE0OfcHg0kV93TQJvfNU0Tz++Nu44t4LG9/7F18VOYQtJZ1XdQPCYf4KVZwnTH7oW59p5j48huexM3nHt+/AZuTrp7ONM4+2bd27VCuDDXdW6vBViX+hSf2ec7Mo79r9llG7fsqZf/yEPU1ndQ2g/z9ogR0n5cS1objVf409l5/AxP7Hd8Z9Y2Pdeefm3a0y534PrRvqYzQgHAHjY9c6v2iOIZcYh89B2Uvk1/iweT8LyDx6/ZzxXud3ynXWMNa9vWaPXtu+XEdc0G1q7FW1PFJ3BN89z/n44PHog6vf+gYBz3nr+0b1yXhccdI9I4brjmY70f4sP4XzOpjdsfNfv8f4h6iLl/12tpaYkVjkR2haO7FPgURhSis49BIRLo+nEJx87OTtAhonMrm8367g8MCnp0IjpvxsbGUK1WA4/3DArsEwzq5ORkKOcheh9OTk7CmvAZhUiCQSESCJ16OSTDUydOt+i8EAell1evXnleX7lyBaOjo4Htic6agYNSr9fx++93PPs+/7yAb75Z5YhC58bAzyj379+HrgM//gjcvQvoOnBwUMabN2/CutoMlNN51H2O1PNplA2fA0SnbOCgOD7+GLh8OawV0dk0cFCePn2K69eBTz4BvvgC+Okn4Msvv8fVq1fDuvqq52OIxWKIxfLgdwMoKgYOSiKRwK+/HuP6deCXX4C//voP7txZxsjISFjXbvU8ZlGDUgpKZYGtsA5Ep2PgoLh99RXw99//xYsXL8Ka+jJeH2I5m7FfZZBdDulAdEqGGpQ//gA++uhfSCQSYU19aRMpbO04j/UGXh+GdCA6JUMNSjwOKPU/vH37Nqypv8wqSoez9jPKPPSw9kSnZOC/owDA6Ogovv76O/z22wvcvv19nyOKhsJ+xbWtUAjpQXTahhKUkZER3L59H6Z5F5f5GTGdQ+KghP2VfWxsDJcuXerZhuisGuozCtF5xaAQCTAoRAKhzyjvUofiZ1jnIfoQQoMS9hAvwZp5ijLJmzinXkQCDAqRAINCJMCgEAkwKEQCHz4oRhnpmLc2nrXyFDUfPigAMAXo82UwGxRV0QhKah3VnI4fun6KpY58rF1DX4c9AuXLKKdjiMXSKBuGvR1DLN8+gbv23u8XXoj6EY2gANAKVSQ3Om/qDCpKQSmFZukQreLHLR2oKqhmDnpi3tpWTZQOd6z+9Tw2kk2r9r6ZxA7ncTSgyAQF0FBYBzY8N3V7REkUD9q7l9dR0ABoE0hN5TCnWf0nUod4bVi19wfFhDWiJIrYOmr6XI9ILkJBAZCpYP1oHht2rbxR3gBqzogyFdbbY6pkjyhKQVUyIBpEtIICILOaA+zBQ5tIYWvWZ0QJoRWqyOn2iBKLIc+HFBpQ6Jci3zutgFbJvPNa2VXzWgVKuQ8CgLt9BpX99miRqezDesXaexquyI0oRFHEoBAJMChEAgwKkQCDQiQQ+qmXpExSYljnIfoQQoMyjFp31sxTlEnexDn1IhJgUIgEGBQiAQaFSIBBIRKIQFDcVYxO1aJ1xCinke6j6ErenmvbU38iEBQAUyU0ndqRZg56wvpqvFbYx35B625vlJH2+e58YHsE9yGSiEZQ3LQCqqUpa9HTet4aIYwy0vaIky6XkU8UcbA1a9XD1/NI5/NIO9v2cGCU0656lLq3T8clubY9hYleUOyCLTdjV0fKrnTcLxRQaZYwtVyDUhVkABwcJlG1t60OZczrudYoVclkuvq0cG17EohkUIzXh5hKthdMtX54IvgXVaZyc3BPuIxdHan1AgImYR5c254koheUeh6JIpCbc9/mVsWiaiaxIXjO8K5X3xvXtieJaATloIiE86nXLFBT+3A/k7eeNxJFpLIZQJtD7tD/eQOwfqSihlnXMwqC+3Bte5JQLouLi8o0TWWaptre3lamaaphGNZ5iN4H5/507nnTNNXi4qKnTTRGFKKIY1CIBBgUIgEGhUiAQSESCC0FlpRJSgzrPEQfQmhQhlHrzpp5ijLJmzinXkQCDAqRAINCJMCgEAkwKEQCEQjK8Grm4apwlHOtKtxx/V5YW3+xRCAo71AzPzR15GMJ6DnXeo/NHPQEQ0Be0QiKW2jNvNGx1nwMsXQZ3vu6c316A+W0++avI58uw6jvYGu55g2jVkC1BOi7hnV9px6/R21915r2Hf3o7IteUEJr5u2b2llrXik0czrmPUNA5/r0GgrrKevmd1YbXi8AHSXHDm0ihQN7ye1WPX5QbX3AmvZddfx0pkUyKKKaeWeteZ9g+a5Pn8kipe/CgIFdPYVsxhsIN/f1nXr8oNr6oDXtO+v46WyLXlCkNfOHr1vTrfrOFlIT7fb+69NnsJo7wm59F0e5VeudPpPF8tas9wOAeh6JYgrrHc9GvWrruab9+ReNoPRbMw8A0DFv95lFDe77M2h9em0uCX1WR7IVwgwqqoZUsb0mvXV9nylTQG0917S/INx1wWemZr5ZUlPLtbBW3WrLCu/Sj8411sy32H8rmQVqnBrROwj9mn0kaQXsV8IauVnPOIWwZkQBLsiIQjQYBoVIgEEhEgh9RpGUSUoM6zxEwyYpU+8ZFMkJiC4CTr2IBBgUIgEGhUiAQSESYFCIBBgUIgEGhUiAQSESYFCIBBgUIgEGhUiAQSESYFCIBBgUIgEGhUiAQSESYFCIBBgUIoGepcDVarXXYaILIzAo2Ww26BDRhcOpF5FA14iysrLi35LoAosppVRYI6KLjlMvIgEGhUjg/xi0E/C2yL01AAAAAElFTkSuQmCC;" vertex="1" parent="1">
          <mxGeometry x="810" y="860" width="164.59" height="110" as="geometry" />
        </mxCell>
        <mxCell id="LYCwLjDnQvL3Gzslhouy-6" value="" style="group" vertex="1" connectable="0" parent="1">
          <mxGeometry x="988" y="860" width="235.82000000000016" height="1114.1799999999998" as="geometry" />
        </mxCell>
        <mxCell id="LYCwLjDnQvL3Gzslhouy-4" value="" style="shape=image;verticalLabelPosition=bottom;labelBackgroundColor=#ffffff;verticalAlign=top;aspect=fixed;imageAspect=0;image=data:image/png,iVBORw0KGgoAAAANSUhEUgAAAR4AAAGPCAYAAACK878wAAAd60lEQVR4Xu3dMXLaXOP24dvf/Pt3E8IFoxXACoQbKlo3CSpFkXQu6ZICSkjzuFVFY7QCvALGhaVF2CvQVyBAgATYlo9lzu+aeeZNxNFBmTe+OZLCras0TVN9kZ8/f+rv37+SpNlspm63q//973+ndjvp9fW1knmAz/L6+rr5Oy9Jv3790r9//07tdjH+79QA015fX08NOUtV8wCoXu2Cp4qVCise1J3tH4z/79QAAKgawQPAOIIHgHEEDwDjCB4AxlkZPJF/paur1X/tcXJq+FGR39bxKSL57bE+9i7VHjPw1Wp3O/3TRb46mitNvVMjv1YyVvvPtRYT7/scM3Am+1Y8jaZa05mivc3bFYW/ei0Zq+2PNW5n23OrlvzYWW6OZNzerEqu/P13yIvkXxW832ZFM5bfGOhx2lm9fnDMicbt/EorW1UdOeb8sR09NMAA+4LHCbSImxrmwyHyNWzGStNUadzUbP0TPQ2l+1RpGmukUA9JfsWUKk270lSbORpPd9n2VHN1jvyAe5pk4+LRUrNISh5CufPVtkUQaBKP1OrPlaYTeQfH7Ci4cxU+rI4zGQ+lu0BO2TEnY92GPcXZe05YOOGL2Rc8ysInTRU3h7ryIyXPSz0OGqsVQWOg6VO8Gte/U+BIkqObnvQUS8nzUv3u+ifXU7e/+tXudsnr9rV8LrsWs13xNAaPkiQnuFdzmFsB7ds7ZnldueGDEiV6CF1t3rromB9CuetgAmrAzuDJONeutHxWLKk1ijerlfTIksC5djWdraMh0fOyaLsUzaZyr4t/1JPxUJqvVzytbKujYLFacQ2PnAutjzmRp9+9Jz1ED3rq/daxRcz+sQFfzb7gifztdZjOUqP7QF5wr17YOO8aiPdbo2UnG3urcLN9ork6mzk6mm9PaR4HauTuSDnXrqad3RXP5hpMYyC360nOjXrL7BpPwTE7kpybpsJOqObNibXM3rFxjQdf7YpajG8s8nU16x5doaGebK/FsG/FcxGS1Z2rjjQndPAN2ffveC7C6npQcGoYUFOseAAYR/AAMI7gAWBc7a7xVFUJWdU8AKpXu+Cp4ja4NbfT8W3Z/sHIqRYA4wgeAMYRPACMI3gAGEfwADDOyuCpvr843yhY1ZzA5ard7fRP91n9xf053xIHzmTfisdUf3Hkq+37amd9Optfl3Uz740BLpl9wfNZ/cXTddHWNsQel03dpxN5+V8f6WbOjwcumX3Bo0/qL+6vC+AX2T5Sq3ezGbf+9bFu5vx44JLZGTyZr+gvfks3M3Cp7Auez+ovnm63Hb2rdaybGbAEnctr9BfDIDqXrUd/MWCaff+O5wD9xYBprHgAGEfwADCO4AFgXO2u8VRVCVnVPACqV7vgefNt8ALvup0OGGT7ByOnWgCMI3gAGEfwADCO4AFgHMEDwDhLgyfZNgvulXftjBq3j37T/NTrhSI/22e3pznfcLj2rvmBb8DC4InkXzUU9uJNC2Aa9xQ2DsPHCRZaBOU1GadeP6k12jQZzt2BbvcO4MPzAzVlX/BEM037890faCfQ/Uir+tP9ruQsDLZPpvDl+1lIrV8v7WfOr2qOdyl73b4en+LS9y/qec4f0/uryQDzrAue5HmpVrNxsN25dlc/+EXdx5snU6RK0640Pdi9uJ9ZnibZiiYeLXWsuDCaTTfHdfD+RT3Pka9hM1u1xU3NOCXDN2Jd8OQDJi8fSPvdx7s9yZ66/YPdC/uZ8yuexuDxcJ/HgRq5JsL1Kuzg/Qt6npPnpR4HjdWKpzHQtODPBNSVdcEjr6v+tLN70Tby1Ri4uiu5nrLbk5zoeVk47EAyHkrz9YqndTggd43nWPNhWc9za5S7TkWJGb4R+4JHnibpXO56tXCVtQ8ee6yM91uj5bon+VZh2bg9zrWraefIiudcBT3PTnCvXtjY2QZ8F3Quv1kk/2qmLs+/wgfQuYzTkrHam7tTHWlO6AAfUbtajFpyAi1SWpmBqrDiAWAcwQPAOIIHgHG1u8ZTVSVkVfMAqF7tgqeK2+Cfezsd+DjbPxg51QJgHMEDwDiCB4BxBA8A4wgeAMZZGjy7fccmeo3P7U8+dxzwndXudvrni+SvejCUGvympxMstDg16A3jgO/MuhVPMh5q2p+rqDcr32t8tS642elTbmuc5J5Q8ZYx+X7m/Epr//clPcvF71X8dAqg7qwLnvjpMVdjmhP5ajzdbRr95upsy7XWfcpxT2HjdtutvJxtS9bPGbOuMc1aCReBc/D7Nx3PTr8z8H1YFzyNZkvL58Of1N1e5dVTHzbj1n3KzrXcVk83WbfytbvUZqpzxmjVHNgcbp8Msf/7Nx3PTr8z8H1YFzzOTU8a3B4+Q2uv1ziaTeVef8YzrRwFi9WTIYZ+VPD7bJSx4wHMsy545ARaxD2Fjb27Wnu9xh0VXwf6qM11m8ZAbtc7+P2GoeMBvgKdy8AXoHMZAAwjeAAYR/AAMI7gAWAcwQPAuNp9V6uqSsiq5gFQvdoFTxW3wbmdjrqz/YORUy0AxhE8AIwjeAAYR/AAMI7gAWCcfcGTjNX28803UuS3D2oyTsu1DG7+2+3UAVDMvuCpTNajk8Yatfqap6nSdCKaK4DTCJ68/f5jSZG/t5qJfLV9X+2D1U2icTu/corkt8dKjnQkH8wNWILgyTnoP458DZvxqvc4bmqWpcrjsqn7g9WNo+DOVfiwLmofSneBHOU7klPFvVC3Wal70dyADQienP3+4+R5qcdBY9MQOM3KjVu9GxWWkHpdueGDEiV6CF1tCgU3HcmrSlMdmRuwgX3B41zLnQ63p0TJWMOpq+usPH2//7g1ijdPekhPdo96+t170kP0oKfe7+2KaPm8Pb3KdSe/bW7gctgXPPI0mbsarDuXG6F68eq0ab//2Anu1Qsbm7tW/hkXYpybpsJOqOZNfk0U6navO/k9cwOXonZfEjXCmyhNJwebnWChNNjZomCRameTJlrsLE4cBYvcXPGTHvt3WuRzx73TYrG/oimaG7CDhSuez5L9u56ONOe0CTjKzhXPpyhZwTiBFoeLK8BqrHgAGEfwADCO4AFgXO2u8VRVCVnVPACqV7vgqaIrmc5l1J3tH4ycagEwjuABYBzBA8A4ggeAcQQPAOMsDJ5E4/ZHG//oWwY+wsLgqQJ9y8BH2B08O33IbY2T3EomV5CT70b2y55Icc5cR/qXAZvYHTzK9SHHPYWN26wbOdZoOduUu3c0z5oCu9L0A3OppH8ZsAzBs+5Ddq7ltnq6ySpQr92lnpNVN3J/U57sqdt//1w7Y3L9y4BtCJ4TnGtX09l6vZLoeXlih1NK+pcBmxA8p3i/NVp2sms8twpPjT/psH8ZsE76hX78+JG+vLykLy8v6X///Ze+vLyc2uUsVc1zaJ721U/np4aViUdpq//uvXFB8n/nX15e0h8/fpza5aKw4jkl93TRq1WhMrfNgQ+qXS1G7TiBFmlFz4KgfxmQuMYD4CsQPACMI3gAGFe7azxVVUJWNQ+A6tUueKroSqZzGXVn+wcjp1oAjCN4ABhH8AAwjuABYBzBA8A4+4InGavt77YjR2WtgqsdCvuVx+O22pR4Ae9Su9vp9bPqVw6UaNz+o+vF9kuiFX2DC7COfSueY97SiRz5qxXPOV3Le73NPI0CtiN49r2nE/lU13Lka9iMV73NcVOzc+YELhjBs+89nchn9DY/DhqrFU9joOlTfGpG4KLZFzzOtdzpcHsxORlrOHW1qT7+pE7k1ihb8aSpUvpOYTn7gkeeJnNXg0Z2zaURqhfnWwWr70R2gnv1wsbmrpjPRR5Yzs67Wt5EaVpSBejeabEoShtHQb4+0JtoNSzfKuhpktvXmyyyQFvfGQMgO1c8AL6anSueMnQiA0aw4gFgHMEDwDiCB4BxtbvGU1UlZFXzAKhe7YKniq5kOpdRd7Z/MHKqBcA4ggeAcQQPAOMIHgDGETwAjLMyeLZtgFcf600u6G+WIvnHmgs/KKHrGRfAvuCJfHU033TjLAKnJEBqJHd8TrBYHTPwjdkXPI2mWtNZrvc4kt8Y6HHa2fQhJ+P29okSuUDKb9/PqcjfHbvv/Dkj+bmnWUT7x7fuei6b8y290cAXsS94nECLuKnh5ofV0yQeqdWfK00n8iJfjae7zYpors4qEJKxbsOe4mx7viAs8q806x5pFnzTnJ4m2e/j0VKzaO/4Ts2pfG90rJFCPZA8qBn7gkdZ+KSp4ubwYJWSPC/V7+bKvLp9LZ8TJQ+h3LtAByc5046GzfhoU+Hb5tyueBqDx4LZVsrmlPK90Y5uehIVz6gbO4Mn41y7Ox3L623TWe5ELOtd3t++0Z/rXrdHL/i+Zc5kPJTm6xVPq2C2lbI5ge/AvuCJ/O11kc5So/tAjnOj3jK7huJNNFdnM2bTu7y3Pb9QcoKF7p4a2+spjwM18nfN3jCnc+1q2tlb8eSPb/2mZXMC38BVmqbpqUGf5efPn/r7968kaTabqdvtVvLlTr4kirp7fX3d/J2XpF+/funfv3+ndrsY9q14AHw5ggeAcQQPAOMIHgDGETwAjKtd9WlVlZBVzQOgerULnipug3M7HXVn+wcjp1oAjCN4ABhH8AAwjuABYBzBA8A464In8tvaabBIxmq3x4pKuowPxp8l0bid+yZ5zvvmAy6LdcHjdV2FuUq+5CGUejfy6DIGjLEueOR15YYPWflXoofQ1V3gSLku4+1TKHzNcrvmt69XM2Vdynll8wG2si945KnrZj3EyYNCt6ud/qydp1B0pel2+7AZr7bHTc3GyfHe41PzARazMHi2p1vJQyi3u1vbt9tl7Knb325/HDRWK5fGQNOn+Hjv8Yn5AJtZGTyr060/+hO62sudvS7jRM/L7WutUbxZ3aQT76ze42PzAbayM3jkqetONd0/zZIk77dGy3WX8a3CbLMT3KsXNnY7l8/pPS6ZD7BZ7b4kaoo3SbVTNu1NtMhCI1ikCg72cAq3e5NU6aRo7CT366L5AHtZuuIB8JUIHgDGETwAjCN4ABhH8AAwrnZ3taqqhKxqHgDVq13wVNGVTOcy6s72D0ZOtQAYR/AAMI7gAWAcwQPAOIIHgHHWBc/ndy4nGrevNt9Y328sBGBh8Hx+5/Lq2+hpGmvU6muepkrTyWH9BmAx64LHfOdyonE7v2qK5LfHSpKx2v54uzpqj7UeUvQ+wCWxL3hMdy7LUXC3XWUl46F0F8iRpGko3a/2jXuhbrM5D94HuDAWBo/ZzuXshWyVtVphbXbp32l9dudcu6XvA1waK4PHZOfyiqffvSc9RA966v3errCWz9vTq9y+++8DXBo7g8dk5/J6/5umwk6o5k0+mELd7u1b+D7Ahandl0RN+dzO5fX43Avxkx77d1rkc8e902Kxn1R0NOPyWbriMSn7dz0dac5pEyDZvOIxp2QF4wRaFK6UgMvHigeAcQQPAOMIHgDG1e4aT1WVkFXNA6B6tQueKrqS6VxG3dn+wcipFgDjCB4AxhE8AIwjeAAYR/AAMM7C4Ek0bhc3++32K0fyrwqaAwv2S0r6mg/7l8/rb357zzPwvVgYPOUaTWnTu5U8S63c76OZlr0bFbXtOOu+5mSs9qbHIpJ/1VDYy3XrxD2FDUIFsDt4krHa2WqkPU7k3PS0zIq9ViXw299Hs6V6N04WKHudyJGv9ngsvzHQ47Sz2h7NNO3PdwvknUD3I61qUCNfbd9XO5vj7J7nvf2A78jq4EkeQrnz1WpkETiSc6PecqZoXVEa3KinZyVK9Lx0tSoI9DTJVjDxaKltAeGNJvFIrf5caTpR43mpVrNx8J7OtavHbBn1uGzqPp3Ie0vPc36/g9mB78Hq4HGCezWH+ac5OLp2l3pOYj25XXlydK1QD1G+FH674mkMHsvnzgVMXpILpFZ26vaWnuf8fsB3ZXXwbJ6BFTc1zK7NeF1X4e1QyywcvK6rcLgthU/GQ2m+XvG0yqf2uupPO7sXnSNfjUH2OJ2ct/Q8A5fA6uDZPBOrMdg+bcLryn1Udj0nu+L8KK3PmpxrV9NOyYrHuVFvmV3jkadJOpc72PYnX3WkedEp0lt6noELcJWm6U71sEk/f/7U379/JUmz2UzdbreSL3fyJVHU3evr6+bvvCT9+vVL//79O7XbxbB6xQPgaxA8AIwjeAAYR/AAMI7gAWBc7apPq6qErGoeANWrXfBUcRuc2+moO9s/GDnVAmAcwQPAOIIHgHEEDwDjCB4AxlkaPJ/dhZxvKTx/fsAWFgaPoS7k1kjxzvzUWgBr9gXPV3QhO4HuR62s7Gu/sznRuH3e0yyAS2Fd8CRf1IXsXLvZr/Y7mx0Fd+4q9NYNh3cB1aa4aNYFz1d1IW/nL+hs9rpywwcl65J5Gk5x4awLni/pQo58NQarOtXizmZPv3tPeoge9NT7zdMjcPHsCx5TXciPAzV25l8ocMo7m52bpsJOqOYNJ1m4fLX7kqgZq+ssk8KXJlpsEmj1FIrgYFDR9vx+x+dP04JX4ic99u+0IHdgAQtXPHWT/ZuijjQ/dcoGXAhLVzx1UraqAi4XKx4AxhE8AIwjeAAYV7trPFVVQlY1D4Dq1S54quhKpnMZdWf7ByOnWgCMI3gAGEfwADCO4AFgHMEDwDjLgme/aznXIHi23T7l9rv7UhON28XvfX63M/A9WRY8q+9FpWmsUauveZoqLWkMLBbJX3VcbLp4FkHJ18mTsdqULAOFLAueIvsdyNnWXKeyn61AkvFQ0/5ch18i358jkt8Y6HHa2cx50NG8P0NJtzNwiQiegw7kVWNgUddy/PSYq0I9NoenSTxSqz9frahKOpo3yrqdgQtF8BR0IJd1LTeaLS2fiy6+FPQo55R1NOdfL3o/4FJZHzxFHchlXcvOTU8a3B5c+C3uUd51rKP5WLczcImsD57CDuSSrmU5gRbZw/nyd7UK53Bu1FuurvHEpzqay94PuFC1+5KoGY6CRdZ7XNiBnG8FjORfzXS9vnnlBFqk+32Bp+aQvIOWwdwx0EIIy1i/4imUjNXe3KXqSPO33HIHcIqlK54TClc1AKrCigeAcQQPAOMIHgDG1e4aT1WVkFXNA6B6tQueKrqS6VxG3dn+wcipFgDjCB4AxhE8AIwjeAAYR/AAMM7K4Nm2/WWdyZ9cU5qM2x/oZq6q4/mj6IhGdewLnp22vyOdyRVygsU73+cNHc/HvDdY37sfcIJ9wdNoqjWdFXxyP2+fQNEea/0Bnozb2ydSrH8Ik7Ha/vhwfNn2yM+trApef3PH81uO64z+5zP3y6MjGh9hX/A4gRZxU8P8D6wkTUPpPnsChUI9JKvAaDzdbVYbc3W2JV6b8aniXqjb9blG2fYT7/Omjuezjms9/5n9z6f223t/OqLxEfYFj9a1F6ni5nAbPv07rc5iHN30pKd4vwtZ8rr9befyZvyqxXCjbPvB62Xvc7rj+bzj2s6/v29h//OJ/fbnoCMaH2Fn8GSca1daPuvwR3v7+rYLWYpmU7nrKsLcfmdtP+KtHc9Hj+sMx/qfz0FHND7KvuCJ/O21kc5So/tApT+y3kRzdTbjO8pfbwl1+6btR7yx4/n4cRV4S/9zyX47w+iIxkelX+jHjx/py8tL+vLykv7333/py8vLqV3OUtU8peJR2urPz9/+JvO0r3760VlQb/m/8y8vL+mPHz9O7XJR7Fvx1BEdz7BM7WoxvgUn0GL/oRLHtp9CxzMsw4oHgHEEDwDjCB4AxtXuGk9VlZBVzQOgerULniq6kulcRt3Z/sHIqRYA4wgeAMYRPACMI3gAGEfwADDOwuAp7w7evr79NvjVVcV9wus2wtKX976J/sn1ox/rgwbep3a307/WquN4OYqVLs7vt6nMptkv9xXRT84EJ1hocWoQUDELVzw5uW+Ft8eJFM007c9LC9ULe46PbC/qUc476D7+Rn3QwEdYHTzJQyh3vn16Q/K8VKvZyF7dPlbGj470HB/ZfrSXuKj7+Bv1QQMfYXXwOMG9msOrnYa9x03ZsKdJmioetaQjPcfnbT/sJS7tPv4mfdDAR1gdPJKjYLFacQz9SE5wp/60U1gHWtZzfN724l7iY93Hde+DBj7C6uDZXCNpDOR2vWyVM5c62ztLjbCn396R/uXS7cd7iZ2i7uPv1AcNfMSpbtTP9G07l9/MYI8yfdDfAp3L+ByX0qN8KX8O1Ar/juezfFWPMn3Q+AZY8QAwjuABYBzBA8C42l3jqaoSsqp5AFSvdsFTRVcyncuoO9s/GDnVAmAcwQPAOIIHgHEEDwDjCB4AxlkZPAe9xsWDslbC4x3JW+VdzhGtfcCO2t1O/3RFvcYAjLJvxVPSa3zQf1zgYEzkq+37ahfskx87K54OsJZ9wVPUa1zUf7yvZMzjsqn7dK8qgp5i4Cj7gkeHvcal/cc5ZWNavZuDlkB6ioHj7AyezLrXOD7Rf7x2zhjRUwycZF/wFPQae0X9x3sKO5LL0FMMHGXfXS1vojTdr+JbPW1it2dvooWX/18dGbOeY5L79f5YAGv2rXgAfDmCB4BxBA8A4wgeAMYRPACMq91draoqIauaB0D1ahc8VXQl07mMurP9g5FTLQDGETwAjCN4ABhH8AAwjuABYJyFwRPJX387PV8GVjbaP+Pb6JKUjNXeG1TYtXx2hzNwuSwMHkmtkeI0VZrO1Z8OjxSxJ3rWauyR+h0Ab2Rn8OxwdZ1VCO53Kkd+Q4PpQI2r1crlLZ3LO84dB1jCzuB5HKhxdaWrq5m6677kgk5lbxJr1B8pThcK4jd0Lhe95ZnjABvYGTzZqVY8WmqYBcip3uW3dC4XOXccYAM7gyezqjP9szn9OdWpfPR151pu/npRMtZwuj2NA7BldfBIjoI7qdMeSyc6lU93LnuazF0NGtl1oEaoXsypFVDkKk3T9NSgz/Lz50/9/ftXkjSbzdTtdiv5cidfEkXdvb6+bv7OS9KvX7/079+/U7tdDMtXPAC+AsEDwDiCB4BxBA8A4wgeAMbVrvq0qkrIquYBUL3aBU8Vt8G5nY66s/2DkVMtAMYRPACMI3gAGEfwADCO4AFgnIXBk2jcPt4EmIzbte1FLuxxBr4ZC4PnlEh/Qknhg/j5Bj6H3cGTjNXO+nU2K5xopmXvXve9UH+i3Dh/rHE769ppj1ehVLZ9r2M5Gbf3nmqRaNxu75SGtbN9D3qd97bNDv8UwLdjdfAkD6Hc+apRcBGsqgKj2VK9G0fOTU/LWe6EbBpK96uxcS/U7To1SrZvOpYjX42nu01z4Vwd+ZGj4M5V+JBsj+MukFPQ+6zIV0fzbP+uNC34gwDfjNXB4wT3ag7zq4tIs+njqkWwMdDjdLa9FtS/U5ZNcq7d7SQl29cdy8nzUv3utofQ6/a1fE4krys3fFCiRA9PPf32inudd/f31O0L+PasDh7JUbBYrS6GfrQ6zcr1KsejpTaLnuXz5ppPNJvKXZcpl21fv8O1q2lu5bQd4+l3L9Qf/4/C5rYIfr/XeXf/RM9LAd+e1cGzufbSGMjtepvTrLXd061Qt9l1mo7muQf8lW3PeBPN1dlc48mPcW56Wk6lu2zJVNjr7P3WaLne/1ahgO+vdl8S/XyOgsVk9ctgoTTIveQtdsvZnUCLiaTkWXLvtFgUVLcXbfcmym/yJqnSycGeq/l3Gq9XK7D8IRVvA743q1c8AL6GhSued1ivfM7dDuAoVjwAjCN4ABhH8AAwrnbXeKqqhKxqHgDVq13wVNGVTOcy6s72D0ZOtQAYR/AAMI7gAWAcwQPAOIIHgHEWBs+xzuVIvr/7yrrjuKyHuawDmW5koFztbqfXlRMstDg1CMBZLFzx5BR1LpeJ/M2Ysg7kc7ZHOtLVDFjC6uAp6lzWdFvadXV1pc5+x3FZB/KR7Qc9ysp3NccaKdQDyQOLWB08h53LkvrzbfVommq+13Fc1oF8bPt+j/LqfdZdzY5uetJ6M2ADq4PnoHP5DGUdyMe6kfd7lAHbWR08+53LZynrQC7ZXtijDFjuKk3TndZfk37+/Km/f/9KkmazmbrdbiVf7uRLoqi719fXzd95Sfr165f+/ft3areLYfWKB8DXIHgAGEfwADCO4AFgHMEDwLjafVerqkrIquYBPoPtd11rFTy2/58B2IJTLQDGETwAjCN4ABhH8AAwjuABYBzBA8A4ggeAcQQPAOMIHgDGETwAjCN4ABhH8AAwjuABYBzBA8A4ggeAcQQPAOP+P6KU8ODbZ+h6AAAAAElFTkSuQmCC;" vertex="1" parent="LYCwLjDnQvL3Gzslhouy-6">
          <mxGeometry y="785.1799999999998" width="235.82" height="329" as="geometry" />
        </mxCell>
        <mxCell id="LYCwLjDnQvL3Gzslhouy-5" value="" style="group" vertex="1" connectable="0" parent="LYCwLjDnQvL3Gzslhouy-6">
          <mxGeometry x="15" width="178.0999999999999" height="785.1799999999998" as="geometry" />
        </mxCell>
        <mxCell id="LYCwLjDnQvL3Gzslhouy-2" value="" style="shape=image;verticalLabelPosition=bottom;labelBackgroundColor=#ffffff;verticalAlign=top;aspect=fixed;imageAspect=0;image=data:image/png,iVBORw0KGgoAAAANSUhEUgAAAMwAAAHRCAYAAAAmHVYDAAAgAElEQVR4Xu3dP6gr2WEG8G9CshBY2FuksHFhWM/IIKZaki0kNyl2k5EaOcTCJoa7xV0NCyajwq9YcosUgoU8h0iBsJYM5l2Sahayaq7G69cZpGKLTSMurDR5rSGVNrhINynmj2ZGI805enPvPVf6fmCsK42OXqFPZ0ar7xwtCIIARCTkj8oOIKItBoZIAgNDJIGBIZLwx/k7Pvzww+Ijic7Qr371q8zfO4EBgF/84hdFdxOdlZ///Oc79/GUjEgCA0MkgYEhksDAEElgYIgkMDBEEhgYIgkSgXmFT9+/wMVF/n/v49NXZc890qtP8f7FBS4u+nhZdizRA5AIzD5f4uN37jE0FXr16fu4uLjA+0/hH0tKOiow737yFTabDTabz/ABAOBLfP6F6m/CV/ji8y/LDiI66KjAbL2HdpgYfPn1f2dO2/ovX6J/cYGL9z9FHKWX/dzpXD9/ohU9J/pf/4v8w/3wsWTM9OulD8u+zvufvsSn77+Dj6O8fPnxOzzNo6O8ZmBe4vZFeOvd738v88iLH/0IL5K/wjf2j7Z3xAfl3vzp5wAvPv4YcnPCntchqshRgQk/oS9wcRG/wT/As4/ezh70wWfhadtvP8LbL/81+nR/F598tQnv/+oTvBsOhn99CaDomM8+KHj1A4rG2Gzw24/ew0e//QqfvBseFp5SDvFeyXBEeUcFJuPdT/BVwZvvg/b2nlf+XXTsD/FXca7e/iv88N3t8YXHfO/7SB1SqnAMogodFZjtRX80g5Qc/7ZeD298+TX+O77z1Rf4PJoNvv+94mNeffF58SlZfEwyRmg7xufYfgfxEp/yWzGqyFGBkfbe30enQy/wo/hi/J3o+iSeDd5rR9+4bY955+NcXJIZJzrmnc+RmYKS1/kSH79zkZw2fg4AeBtJnnjRT0d6mMDg7cw1ROKDz1Iz1HsYxtc14YP4LPM3gLc/wi9Tg3zw2S/xw/Tje16nrkev8PefSJ3iEeVp+XXJPvzwQzYuiaLGZb6i/EAzDNFpYGCIJBQughGbTqeHHiY6SZ1OZ+9jBwODkicTnZqySaI0MADw1ltvlR1S6ptvvqlkHKL78s0335QdwmsYIhkMDJEEoVOymMiUlcfTMDolUoE55Ouvv878/Z3vfAdvvvnm3uOJnqJKAuN5Hv7zP3+Sue/P/9zB3/3dM84wdFIquYb52c9+BtcF/vmfgZ/+FHBdYLEY4fe//33ZUyM+Rk0bXsEjnt3EyC94gOgRVBKY2J/+KfDtb5cdRfR0VRKY3/zmN/jBD4A/+zPgL/4C+Jd/Af76r/8J3/3ud8ueWsizNWiaBk2zwd8akEoqCYxhGPj3f3+FH/wA+PWvgf/933/ET37SwxtvvFH21F2ejRZmCIIAQdABJmVPIHo4lQQm7W/+Bvi///s3/O53vys7tJC/WqLXsaK/LHR6JU8gekCVB+a//gv4kz/5SxiGUXZoIb1mYjKNL/99rJYlTyB6QJUH5uICCIL/wR/+8IeyQ4tZzzBctqJrmEu4ZccTPaBK/jsMALz55pv427/9B/zHf/wOP/7xP0nOMDqc+Th1O4BT8gyix1BZYN544w38+Mc/w2bzU3yb3y3TiZIKTNl/tX/rrbfwrW996+AxRE9Z5dcwRKeMgSGSwMAQSRC6hjmmB1OkqnGIHotQYMou9kWw00+qE/lA5ykZkQQGhkgCA0MkgYEhksDAEElQIzD+CE0t291nl59UpEZgAKABuJcjMCOkMnUCY17jpuvi+c7SMR5sbdvx9xDNSPYIo6YGTWti5PvRbQ2avR0gvTZA0Yo0RLLUCQwA3blBfZB/c1sYBwGCIMB6uERSxpy4wE2AYN2Fa1yGt4M1hstp+HzPxqC+DtcGWNcx5fkdVUCpwAA6nGtgkHlzb2cYo7/Y3t27hqMD0GswG1209fD5NXOJlR+uDbDoG+EMY/QxuVsXvB6RHMUCA8Aa4/ruEoOoy++PBsAsnmEaZc/OaAyjGSYIEIwtEL0u9QIDwHrWBaLJRK+ZmLQKZpgSunODrhvNMJoGmxcxVAGhH1/eO91BUumP/w6iVr8+RhCkHwSA9PEWxvPt7GGN5wj/4toAVD0lZxgiVTEwRBIYGCIJDAyRBAaGSILQt2Qi1U0RVY1D9FiEAlNFF5+dflKdyAc6T8mIJDAwRBIYGCIJDAyRBAaGSIIygdm2IzU0R37UquRPjEktQl8r37tk5+RUZ4UFSVKQGjOMUUdjMt3bu/fsqKvv2eHsk9zPlWXoYakRGN3BfF3HILeIBaKwTDtsTJIa1AgM4tJYgHV9sA3NpIVBfQ1mhVShTmAies0ElqvwEqY3ww0ut6dhRh1wb6PLGw/TycGhiCqnRmA8O/mGTGstMbxxoEcP6c4c13cGtOYIvt5GF30YmgZNmwK9knGJKqbGt2TW4d6+NQ4QxPeyp0+PSI0ZhuiJYGCIJDAwRBIYGCIJDAyRBKFvyUSqmyKqGofosQgFpoouPjv9pDqRD3SekhFJYGCIJDAwRBIYGCIJDAyRBCUCk21OerC13N/N4u3I/VEz08AsOIDrAlCllAiMUQeSPVv9FdBI/e1Nsey2k5/7p+nOHHOn6JESDBIdSYnA6O0ultF+4v6tC3S3f3vTJbrhFsmplWXsZGvxeIZJP2ZnZqwVRs3oseYIPjzYRh+LSWs7DpEgJQIDvY3ucgoPPm5dEx2njS5W8OFjtTRR08NwDOrRrsjrOqbpU7Fk1ZkAQdAB0k3MiQvcBAiCNYZwcetbGK+HaPRmCIIx2H4mGWoEBjpq5hIrf407swMLOmpwcevdwjU7sAD4qyUW/WhXZKOPSXLOFj7W68RvfQuddBOzd43wrE1Hu5s61SM6giKBAayOCfdygGXd2P49cGF2tnNAYxjNMEF2FRm9ZmIyjU+ufKyWO8MTVUKZwMDqwFwguV6BUQcWQJQf6M4Nuq6RdP8z1+zWMwyXreixS7iFL5Cit9Fd8hqG5An9+PJhWBinV77UHcyDdHtfL+jzjzGPnrJ9zIOtTcPrntS6AIi+VRvvHYuonDozzOvwR2jGq85oLWDGi3m6HwrNMK9hZzYiuh+nMcMQPRAGhkgCA0MkQegaRqS6KaKqcYgei1Bgqujis9NPqhP5QOcpGZEEBoZIAgNDJIGBIZLAwBBJUCQwHuzkt2BxMzKrtL9P9AAUCQyAxhDrqOsyM/u4zIXj6P4+UYXUCUyK1elhcbcOO/u2jaZmw0v19/1Rc6cXs9P3J7oHSgbGm07QiJpji2UdN+nuvT/CpdtNZqOxVdL3J6qQOoFZxLsja2hhlpx+NXJLLPm3LsxrJ3vfgb4/UZXUCUzqGibd18/L9ve39vX9iaqkTmBEWWPM0Mpcwxzs+xNVSOjHl/fPwnheMCtY285++rY1DhCkuvrs6NNDeXozDNEjYmCIJDAwRBIYGCIJDAyRBKFvyUSqmyKqGofosQgFpoouPjv9pDqRD3SekhFJYGCIJDAwRBIYGCIJDAyRBEUCk+v0a9tdkB+/y8/1BmhLkcDk+jDrLlwj/un+I3T5/RGa6Y4A1xugiDqBSdMd3AwbYVEs7vKndhk71O1P36dtC/+ZGcCzoxnMH6FpjzBqpmcPD7bRx2JSvAcm1xs4b2oGJmpWpvm3LsxZ+Ck/d/S93X7j7jppXs7QKi+TTVzgJkAQrDGEi1vfwng9RKM3QxDsbv3H9QbOm7KB8VfL5I2JaBfl+mD7Kb2v299LbVNudXpYrkreoL1rhGdTOtpdoHA5AK43QBE1A+PZMPqpLciBpFUZrOsY2F5htz9/nzedwKzp4Rbm7m10se5hOoEcrjdAEXUCk/oU11rALJgjfR2dXBsYfZgdq7Dbn7+vhVl4WqS30UU8/hToHfqHRMcvi69hDuJ6A6cvyLm6ugo2m02w2WyCFy9eBJvNJn/IUaoah+i+pN/zm80muLq62jlGnRmG6AlgYIgkMDBEEhgYIgkMDJEEoYqySHVTRFXjED0WocBU0cVnp59UJ/KBzlMyIgkMDJEEBoZIAgNDJIGBIZKgSGD2d/qrINO5lzmWzo8igdnf6a9Caec+1eEvPZbOmjqBSUt3+os68SL9/qLOvUiHf08/P1kfoHAMOhdqBibd6S/oxAv1+4s690h3+AOsuy4uR0Zxh//Q+gA76wCAzoSygYk7/UWdeJF+Pwo690C6w7+70EbawfUBRNYBoJOkZmBynf7dTnx5v3+v5So5hUo6/wX2rg9AZ02dwOzp9Bd14oX6/Xu5uCzq/Oc7/PvWB6Dzlu8sn3Snfz0MGr1Z2VF0ptjpJ6qY0M/7T4buYD4uO4hoP84wRBIYGCIJDAyRBKFrGJHqpoiqxiF6LEKBqaKLz04/qU7kA52nZEQSGBgiCQwMkQQGhkgCA0MkQaHAZHv9B3v1uV2RD/MxahbvJJbspkwkSOhr5fvnwQ5/04+AP6EnhSkxw/ijASa94r5JYa++7PF0nz93fHp9gOnOaESHKRGY9d0iUwdOHOrVlzxe2Of3bLQwi47vALK7KdPZUyIwRr2x7cunHOzVlzxe1OfPHm+hU7abMlGOEoHR212gf7lzAV7Wqy97PC97vI/Vcu+hRIWUCAx0B/No8b7Mt2Rlvfqyx/OsZxgu4+Mv4R44lKiIIt+SRaEJnJ27rXGAIN+StMaYW2KPhyvMjFO3A+y+CpEYNWYYoieCgSGSwMAQSWBgiCQwMEQShL4lE6luiqhqHKLHIhSYKrr47PST6kQ+0HlKRiSBgSGSwMAQSWBgiCQwMEQSFAqMv92ZWNOgaWJ9e/FefnbNgKL2JlEZRQLjwdYMuN3UXpbrLlxDNAyCGsNop+U1hstBtWPTWVAjMN4Uk94s3EI8pju4GQLurb/T0d/Xy0/f7+FQt3+Nu4WJmu5j1EyH0oPdHIE5on2UCEy8xXieXjOxiPb0Tjr6+3r5no1BPZqh1nVMoxRkuv3JxrMtTHodWNDhXJthKKPFOFCwfTlRTInApIORlg5S3NHf18v3V0ss+kayu/IkGi/T7U9OyQKs64PwOsbqwHRv4cPHrWuiaC0OopgSgYHVQW/Syi7O59kw+iaunezn/aFefmOYugYS3iPcwrPuHW69W9x1n0H0WXSe1AgMLIyDGcx4htA0hOv6jXffwHt6+bpzg667fX7hl2DJKZkGo29iFoVKb9fhtlzU2zwZo8OEfnz5MCyMgwCFmxzvdPSLevlF96efd2D89R0WvWvMmRcqocgM81ii//bTQjLbEB2i0AzzGLiKDMk58xmGSA4DQySBgSGSIHQNI1LdFFHVOESPRSgwVXTx2ekn1Yl8oPOUjEgCA0MkgYEhksDAEElgYIgkKBSYbOe++UD94WRNAH+EZu4nzuLrBdC5UCQwHuzw9/xJn2XuHPnT4YI3PlFVlAiMPxpg0ivYn/JAlz+MRHpWsuHBg230sZi0kmN2n7N/TYC9/BGauZlPfP0AOiVKBGZ9t8hsH56W7vLvdvbDjksQBFgPl5h6FsbrIRq9GYJ9z9m3JsAB/q0Lc5aa+UTWD6CTpERgjHoDy1XxxUK6y7/b2d/OMEZ/sfPcoufsWxPgEN25QX2wnU2E1g+gk6REYPR2F+hfll5g5zv7/miQXPeshw2h5+xdE0CvwZyk1irzRxhMTNR0JL2ZYF3HILo+Om79AHrqlAgMdAfzdReusf9bsqLOvl4zMWnlZhi9je4yvIZZF/X896wJAFgYz0z043+D4aK7Dk+v/FEzmU3MjiW2fgCdpiDn6uoq2Gw2wWazCV68eBFsNpv8IUepahyi+5J+z282m+Dq6mrnGDVmGKIngoEhksDAEElgYIgkMDBEEoQqyiLVTRFVjUP0WIQCU0UXn51+Up3IBzpPyYgkMDBEEhgYIgkMDJEEBoZIgkKBeeROf+71NY19ftqlSGAU6fSnNo0NorrB3qFe53XoyVIiMEp2+nUHN8NGVDY77nXo9CgRGFU7/XrNjG4d8Tp0kpQIjKqdfn+1RKNuHPU6dJqUCIwSnf48z4bRB7pt/ajXodOkRGDU6PQDWPRhxNcqLWAWzOHoR74OnaZ8Z5mdfjpX7PQTVYyBIZLAwBBJYGCIJDAwRBKEKsoi1U0RVY1D9FiEAlNFF5+dflKdyAc6T8mIJDAwRBIYGCIJDAyRBAaGSIIigfFgF3Xo/ZH0rsRxR98fNXd2PG42m8JrBSRd/4Iq8nYdADo3Ql8rP4gG4D734KS6JN5zF2iYOIbuzDEHws4LhlgHDjdspdemyAwDwLzGNVKbssLDFF10U4cke01qGrTUp35hR9+z0Rz58GwD/UkfhtbEaGTvzDrSXf80f4Rmrr+zM25uXQJ62tQJDACrY8K9Dd94/miK+rP29kHPhnF3nbQaZ2iFRa2Sjr41XmPYG2IdzOHUtmO9Ttc/5t+6MGepVW72dPuTdQnKBiTlKRUYWM/QdZ/Dg4fnbh3t1DlUtosPWJ0elitfqqMfe92uf0x3blAfbGeTfd3+eF0CevrUCgx0ONfA1J4C19lrjmwXH/CmE5g1XbyjnyPc9ddrMCepU0V/hMHERE1H+O+dh7PJIDpFZLf/tCkWGABWeDq0s+qSNcYMcRdfQwvROmaHOvp7FK0PsH8cC+OZiX683oDhorsOT6+SayqjD7NjFY9LpyXfWWann84VO/1EFWNgiCQwMEQSGBgiCQwMkQSh35KJVDdFVDUO0WMRCkwVXXx2+kl1Ih/oPCUjksDAEElgYIgkMDBEEhgYIgmKBEbhTn9mB2UNWtG/k86GIoHZdvrTwk7/3mccpDvzsAWZdPoDzOfxfZIa4fPDJmW4teDen+4XLJpBp0OdwDyVTr/u4GbYiMpm6dnHhgcPttHHYtJKxi16HXq61AnME+r067V4JRsL4yDeXXmJqWdhvB6i0ZshCMaw9nT86elSKjBPpdPvr5Zo1I3MDJPsrpw7rqjjT0+XWoFRsdOf59kw+kC3rcMfDYBZPMMUX2yx439aFAuMip1+AIs+jPhapQXMgjkcPQpxKzfD6G10l+E1zJod/9OT7yyz00/nip1+oooxMEQSGBgiCQwMkQQGhkiCUEVZpLopoqpxiB6LUGCq6OKz00+qE/lA5ykZkQQGhkgCA0MkgYEhksDAEElQJjDbZqIm3LsvFDUtk/+Hj1GTbUeqhtDXyvcuaTuyL0JqU2OGMepoTKbZWcAfoWmPMGrGK7X40e10nz/fqS8hNGa2h2/bXCWGttQIjO5gvq5jkHvjYuICN/FKLZfh7WCN4TIOV75Tv/8lEmVjSnT76fyoERhEoQkCrOuDbWh613D0aOvvRjfq+OuomUuscmuGFXXqC5WMKdPtp/OjTmAies0EliuInAWJdOplCXf76SypERjP3q431lpieJNdAGOfwk796zpijQA6I/nOMjv9abOgh14wKzuMTgI7/cfwR2gm37y1gNkY/LKbYmr8dxiV6A7mgVN2FJ0pzjBEEhgYIgkMDJEEoWsYkeqmiKrGIXosQoGpoovPTj+pTuQDnadkRBIYGCIJDAyRBAaGSAIDQyRBocCk2o9a3Igse86x9vf8PTYs6QChr5Xvnwdba2E5XCOYi/ywn+hxqDHDeFNMejPMnYKweDaato1m1Nn3R83tLBQ3M5MVYuI/o1ki0+HXoDVHhcW0dId/WvA4UUyJwGy38UamdhznYbGs4yba9964u052JZ6hVb7RatzhDwKsuy4u8+db7PCTBCUCAwCLZA/7cGGLdOW40W1DR75vD1idHparkguOuMMf159z2OEnGUoERneu0ZuUzxbZvj3gTScwazpg1AH3Njrd8jBNzxKp9QGS4/eOyQ4/HaZEYMJZZQa0tt+SGW4Xz/JVR2uMGVrJMS3MMLYA6G100YehadC0KZCZJVxc5o/PjMkOP4lT5FsyJKdi4527x5hb6T8DBDsH6XDmAXZ6kj4A8xrzeT4lOpz5OHW74LlEBRSZYYieBoVmmHugO5jvzEZEx+MMQySBgSGSwMAQSRC6hhGpboqoahyixyIUmCq6+Oz0k+pEPtB5SkYkgYEhksDAEElgYIgkMDBEEpQKjD9qZpqT+6V3T97fpCSqmkKB8fDcRarXEleMvd3bANAYYh03L83+bpNSZAwiSeoExpti2b3BTdfF83D/b9hGH4tJ1FVJbu+u9mJ1elFjMz3z2PBKxkh3+eMtx5P1AwTXA6DzokxgvOkS3bYOvd3FcuqF/Zj1EI1e1LdPbu9uoedNJ9GaAGGnJtxVeYmpd2AMz8agvo7ur2MazVDJ+gFIrwewxhAubpmYs6dIYDxMJwv0jXgWmBauGZaxiBuWYZMyXHFmO8OU7arsr5ZY9I1k5plEawrE6wcA6fUAdLS7QLLsAJ0tNQLjTcM1yTKzQ8lzUtcwQdQ79kcDYBaPsV1EY/8Q29cMdrrLRLuUCEx8OhZLTsv0NrrL6JojfXvPOHrNxKSVm2H2jLF2btB1jeSbNn4XQELy+5BfXV0l+5THe5ZXoapxiO5L+j2/2WyCq6urnWOUmGGIngoGhkgCA0MkgYEhksDAEEkQqiiLVDdFVDUO0WMRCkwVXXx2+kl1Ih/oPCUjksDAEElgYIgkMDBEEhgYIglKBUau0x/tlJzmj5Ldll/XwX9LbtdmOh8KBUa20w+4z7PR8J67wKEajESnX3fmxdug01lTJzCynX7zGtcYpGYZD1N00d0OeKDfL9DpT2aR/Dh0zpQJzDGdfqtjwo2K9v5oivqzdmrEQ/1+wU5/4TigM6ZIYI7o9CPcAbnrPocHD8/dOtqZM6jD/X6hTr/AOHRe1AjMMZ1+INwB+RqY2lPg2sm80UX6/SKdfpFx6HwoEZjX6vRbHWACdHLv97J+v2inv3AcOl/5zjI7/XSu2OknqhgDQySBgSGSwMAQSWBgiCQIVZRFqpsiqhqH6LEIBaaKLj47/aQ6kQ90npIRSWBgiCQwMEQSGBgiCQwMkQSlAiPe6Q/JHk/0uhQKjGSnv+h4onumTmBkO/07x0fDpHr6tr1dWWanv090BGUCI9vp3z0+XMSihej4ICyWxfcX9feJZCkSGNlOf/Hx/mqJXlK9tNDphbf29feJZKkRGNlO/57j9ZqJSfJEH6vl9iki/X2iMkoERrbTb+873nqG4TK65tEu4caPC/b3icoI/fjyvlnjOTKf+bqD+Ti86cwDOPFxqdsZhcd7sLUpajrC1WX2PZdIghIzTGX8EZrJKpUtYDYGT76oSkrMMJXRHcwDziN0f05rhiG6ZwwMkQQGhkiC0DWMSHVTRFXjED0WocBU0cVnp59UJ/KBzlMyIgkMDJEEBoZIAgNDJIGBIZKgVGBEO/peqkkZ/sgy93dzVFhbLh1fYltyOk8KBUa802/UgaQD5q+ARupvb4rlzsauId2ZY+4UPVKCQaKIOoGR6PSvU7Vk/9YFutu/092anR6/ZyczzL7uP7DCqBk91hzBz/w7uB7AuVMmMFKdfr2N7nIKDz5uXRMdp40uVvDhY7U0ww7MoR7/vu4/AExc4CZAEKwxhItbP/3vYF3g3CkSGNlOv46aucTKX+PO7MCCjhpc3Hq3cM0OrJIe/77uPwCgdw0nKp21u6lTPSJlAiPb6QdgdUy4lwMs68b274ELM7X/+L4e/6HuP9EhSgRGttPvAYDVgbnA9nlGHVgAUX4O9/j3dP/3yr82na/8PuRXV1fJPuXxnuVVqGqc6s2CHnrBrOwwOnnp9/xmswmurq52jlFihnlw7P7TkYR+3n9y2P2nI53nDEN0JAaGSAIDQyRB6BpGpLopoqpxiB6LUGCq6OKz00+qE/lA5ykZkQQGhkgCA0MkgYEhksDAEElQKjClnfsMD3byezBN4nlEx1MoMOKd/jAsLWAWJH2Xo7r6+7DDT3uoExiJTv9oNMCkN0PR3q7+qJnMOlr8pk91+ZFedcYfoWmPDnf4PRtN20ZTa6LZFFudhk6XMoGR6fTX7hapinF6EBvG3XUy68zQKt8AVqDDv1jWcRPMMb824d6GEfFHA+DaKVydhk6XIoGR6/Qb9QaWq93P9mxXH7A6vcLjMgQ6/I142SarA9O9hR8vvsESzdlRIzCSnX693QX6l8hf52e7+oA3ncCs6WF9Obk28jBNrxIjxcKz7h1uvVvcdZ+xdHaGlAiMdKdfdzBfd+EauW/JrDFmaCX3tRBd5+htdNGHoWnQtCmQXiWmyIEOv96uw225qLd5MnaW8p3l8+v0S5r1AvS4AsApYqe/Un74bVoLmBV9PUdnQejn/QQAOpx5AK4EcN44wxBJYGCIJDAwRBKErmFEqpsiqhqH6LEIBaaKLj47/aQ6kQ90npIRSWBgiCQwMEQSGBgiCQwMkQSlAiPe6c/2+bXSlpgcL7OrMtGWQoGR6fQDaAyxDqKm5HLANzg9CHUCI9Hpz84na9wttluNh/17G15mFoqeU9jhj17e3h47LfjnEUGlwMh0+i0AWMSFsBYmvU7Sfgz792NYsDAuanDudPjDoLUQvU7QAY5uZNKpUyQwcp1+IH1KFmBdHyTXMUn/PjXDGP3F9nkFHf7sWgAWOmWNTDpbagRGstMvwh8NknXL1sPGwWOzawH4WC0PHk5nTInASHf6kT4l02D0zZ0WpF4zMWkVzDBFrGcYLuO1AC7hHj6azlm+s8xOP50rdvqJKsbAEElgYIgkMDBEEhgYIglCFWWR6qaIqsYheixCgamii89OP6lO5AOdp2REEhgYIgkMDJEEBoZIAgNDJEGZwGwbj9FuYpVt/Z3r/2vs69Px1AhMpvEYYO685nZ4e/v/AYJoq79KskhnR43AGHU0CluWq8L+vT9q7q4Yk/T5D/X/AegOboaNpDCW7vInvf/0TJd7PQbtvKkRGN3BfF3HIL9k0p7+vXF3ncxGM7SSN3HY5y/o/+dfrmaGNzwbg3rU9FzXMR358G9dmLPUTOePcOl2kxmKu/WdNzUCgyg0uX5+eRL4ae4AAACvSURBVP8esDo9LFfhTLDt8x/mr5Zo1A34qyUWfSNZlWZyt4bu3KA+2M44/q0L89oRGpdOnzqBieg1E1iusO+6PNu/B7zpBGZN4u3s2TD6SCrRjdRaAkG4RzmceTjjDGxv5/XovKkRGM/eXpO0lhjeHPhEt8aYoZUc38Js9zTpQP9fawGzYA5HB3TnBl3XyFyfJNcrRh9mx9p5PV7DnLl8Z5mdfjpX7PQTVYyBIZLw/3SzsYgU0gC8AAAAAElFTkSuQmCC;" vertex="1" parent="LYCwLjDnQvL3Gzslhouy-5">
          <mxGeometry x="7" width="171.1" height="390" as="geometry" />
        </mxCell>
        <mxCell id="LYCwLjDnQvL3Gzslhouy-3" value="" style="shape=image;verticalLabelPosition=bottom;labelBackgroundColor=#ffffff;verticalAlign=top;aspect=fixed;imageAspect=0;image=data:image/png,iVBORw0KGgoAAAANSUhEUgAAANYAAAHyCAYAAACXqTC6AAAgAElEQVR4Xu3dP5Kq2vs18OVbv/w7CTCwGIGOAE2MSDvpkhCTzjo0O4mEGrUpkYkyAh0BZSAMwjsC3oA/bhEEu9mt216fqlt1jo1bb5XLDZ5+loi/4f39PT6dTvHpdIq/vr7i0+lUd5dG2lqHSBbxNX86neL39/fS4/4PLfnvv//qDmmkrXWIHqm1YP3vf/+rO6TWf//918o6RLI0feP/f3UHENH9GCwiCRgsIgkYLCIJGCwiCZQKlm930Okk/w3cCIhcDGy/7m4N+LA757U7nQHcqO4+RNXUCZZvY4gt4jhGHMfYOVrdPW4rhrI/R5iuHYcWPL2DVjJLf5I6wdJ76C/XuH6tH+EO0p1m4CLbaCJ3cN6BsoT4Nga2jUGng44+xX45RKdjX6+pOVjN+1iu/fRu2U6WHhu5yRrZzll4PAaS1AmW5mAX9jATgwIASw9YxYjjEHN42ERJgPTDZ767bTHMX+z7oIdVHCMO5+hPtojjBcyyh+sayR98G7NemO5kPazdCNHGg7EVds7IxZtn5TveomxB+lPUCRbScMUxwt7sHK7JJ5KzQg0jCziEQHQMMBmfX93meILgmOwsfWuEJieR0TFAv6cjOgbYT/VkN9KnWB5CaM4Kvdl5B4s2HoxPp9G69DeoFayU1jWA4Iiqzxe0rpGfxgGAv17C6N7xsvdt6FPAGiX36c/DfPeLFyYADc4u2cFmtn/1eETqBMu3z9dMwwDz1Y0dwlxgi2F+/BDb69MzbQQrEK6x9lPo+frANt7B0QDNWcHy9Ivrp/x6Sp/CGJtXj8drLELp77zX4NgI/VVNx0bU2bGIFMJgEUnAYBFJwGARScBgEUnQ2mh+05HlOm2tQ/RIrQWrja4Kdl7Qs2v6xs9TQSIJGCwiCRgsIgkYLCIJGCwiCRQKVgR3UDLte7foPHEsdFvkU8LCFHLZbfLXo1egULDaEuKArN8iGQ0R+zRCy8ObG5Xf9ivr0StQM1iRi4HtpjvFAG4k7BrCMJTYVWHb1c1L4sSxlo4hl93m2+eOC/h25c7TdD16XWoGC0LXRWjB09/OvRdBWjhz0eo0BpbCfbOhxjQY4QHo6ZfLl91mLkJY3hvcyIc9BLa7dNjym+vR61I3WFnXhdaF0bcwSnsvukaAY1TsvTAxniD/8yIds89OyfSecbV82W2ABmdlwdOHwDYrofnJevSq1A1WjcseigjH4NaxwPRfcmy08WCMzdLbgAjumwdrO0cwq/4Aovl69Kpa+13Bp2N+YD7T0ekAQB/9PmAhvT7Tp9gjLencaQCEY/tzhDuU3ubbOjwrxM7UMDoOoNtdxB/Hb69HL6x0YL+Gep0X23iCSbytO4yoBjsvhLbaTke8JiKS73VPBTUHu9ipO4pIitfdsYgeiMEikoDBIpKgtWuspiPLddpah+iRWgtWG10V7LygZ9f0jZ+ngkQSMFhEEjBYRBIwWEQSMFhEEigUrJY6L8TfISybNr63o6Lt9eglKBSslqRfEJ5MG8+Scf2fdFS0vR69BDWD1VrnhYGu1ryjor7z4r716HWpGSz8rPMiCdwbsEpGSZp2VFR1Xnx3PXpd6gbr250XgLmIEccr4C35hvvmHRVlnRc/WY9elbrBqlHfeaGha2THNu2ouNV58Z316FW19ruCT6eq88K30Rmm54WTLWITjTsqSjsvxutvr0cvrHRgvwY7L+ivYucFOy/ogV73VJCdF/RAr7tjET0Qg0UkAYNFJEFr11hNR5brtLUO0SO1Fqw2uirYeUHPrukbP08FiSRgsIgkYLCIJGCwiCRgsIgkUChYLXVepHw7mZ0S//6Tjoq21yO1KRSslqS/nDsL+ufbftJR0fZ69BLUDNZPOi/S8peVJSzXsKOitPPiB+vR61IzWPhZ50VR046Kqs6Loqbr0etSN1g/6Lwoat5RUd55UdR8PXpV6garRn3nhXhs046KW50X31mPXlVrvyv4dKo6L+qOvbfzYlESkIbr0QsrHdivwc4L+qvYecHOC3qg1z0VZOcFPdDr7lhED8RgEUnAYBFJ0No1VtOR5TptrUP0SK0Fq42uCnZe0LNr+sbPU0EiCRgsIgkYLCIJGCwiCRgsIgkUClabnRfCxHEnm0IuOcodnCeGS9T9vJRv338fUk5rH7erw4fdGSKYh4h36fxv5GKgD4BwlwxPpjRnh1vTHXU/p79LoR1L8JPOC3+N5WSL3WWCsJoD3iYpfRnYNgYdG76wu5Svlf784vmILUw+7M75fu3stqQCNYOF73deRMcA/ZLyCa1rYJ8WvOyDHlaxMGbSpD8jez5xiDk8bCIAMLGI46SZaR5gzWT9GeoG65udF2KARGLg+tbooiSmUX9G9nyg4VzCdN6x9Om+5E70qtQNVo3KzgtzjMlyePkBgm9Dnxr4FE8PBff0Z4gidwZssx1L6B2kl/eywYL5gXkwTK9v3uCdf4BFvIUx1c+fCg6BbXxjwrhyrdu0roHlkDvWn1Q6sF/jb3detLkWqYadF212XrS5Fv0Jr/vvWG12XrS5Fv0Jr7tjET0Qg0UkAYNFJEFr11hNR5brtLUO0SO1Fqw2uirYeUHPrukbP08FiSRgsIgkYLCIJGCwiCRgsIgkUChYPuyyborITaZ9K+51W7H7Ipn0dcu6LNhVQXdQKFgA+oD37zJC/j8PuDXqFLkY2FWx0+Ds0qnf/gTbOEYcL+A4u2R0/+Z9iaqpFSzjE5+YCbuWjzWsi+8WFrspfPiw9Sn2y+H57006KHwbA9ct3LfqMYiuqRUsAObYSEpfAETuGr2P0fmHvo1ZL0y6KcIe1q6ORThHf7JFHC9g3tVBMSrct+oxeHpI15QLFswPWN4/+PDxz+ulXReJ6Bhgn00G61Msr7otft5BUf8YRCoGCxqcT2Btr4FPB8WWiv483U3iGPHichyxrQ6KW49BBDWDlRTCYAmMC69pzVnB8s5dFrYPQBvBCpLrpPDeDgrhvtlZY+ljEBWVDuzXUK/zgqgd7LwgeiAGi0gCBotIAgaLSAIGi0iC1kbzm44s12lrHaJHai1YbXRVsPOCnl3TN36eChJJwGARScBgEUnAYBFJwGARSaBQsGR0XiBZN/+W+3Q6+IG/su7bJf+PpByFgiWj8+JS5A6S6WDOWNEPqRUsiZ0XoTvAG1ZJiUzpWhHcweDise2BC9fO1hF/7sNOwxy5g3MDVBZw38bAtvOdVnycdba88C2SbIdSj1rBktV5sZ9i6FlYCaG6XgtwPsXHngGfDka9dJ1ogwOAQwjAXyPo6YBvQz985tPGWwzzwch90MMqXsD0bQyxTY9JBjgBINp4MNJpZzHspAblgiWl86I/R/h5gC6cMpauZY5heBtEiLDxDIxNQBtZCNY+os0BvdUnsPYRHQFrpCE6BpgIY87meILgmASzb42gpY9zPsbEeJL8SXNW6M3YBKUq9YIlq/PCXCDszS4+uLhey8SHdcDG3+BgfSTNTdoIFtb4d+hhpOno5X8GtK6BpVAF5a+XMLqXz/jymAjHIP9J0nkY9jBreI1Iz0PBYMnrvNCcXRKugQtUdFtoox68oYdevlVqGPUCBL0RtIs/J2HdYpivMcQWV5+LmB+YB9kxb/DSm/NrM30Ko/g/Ss+vdGC/xp/uvNhOYky2dUfRi2LnRevSnvchsOXH8VSjtbGR15dc8zh1hxEpe41F9OQYLCIJGCwiCVq7xmo6slynrXWIHqm1YLXRVcHOC3p2Td/4eSpIJAGDRSQBg0UkAYNFJAGDRSSBQsGS2HmRTxV30Cl7jB+I3EHjCeB7jqXnplCwJHZe9OcIs7mr0IKnt/cVqJqzuz0BLDy/2mNJGWoFS2LnRU5zsJr38+HDy/XKuyjEXgvbL3Ra+HZyXORiYLvJb8h3OugMXETF55cdW9WVUboGPSO1giWr86JA6xoV60XXXRSRizfPyne8bKIk77QQF156wCp9fMvD29XzQ/64VV0Z5zVCzOFhw2Q9JeWCJaXzoiA6Buj39NL1il0U0caDUVYRkHZaXJh8IjvTy8Nb4lZXxnkNDSMrLa+hp6NesGR1XmR8G/o0KYMpX++yi6LYa3FTcDwXg5b0X2SadGXQc1MwWBI6L/ZT6Nn1zBDYxjs4Wvl6V10UhV6L2x96eHgr9l8Izy+/a5OuDHpupQP7Nf5058V3hfO4z64M5bHzguiBWhsboRqag92i7iB6FdyxiCRgsIgkYLCIJGjtGqvpyHKdttYheqTWgtVGVwU7L+jZNX3j56kgkQQMFpEEDBaRBAwWkQQMFpEECgWr0E1R+DXyNvoifDvtuxAmea+UjPrn97u88cfPh9TV2sftv6I/R7i7nsFC1hdRcjvRIyi0Y5Uo65ao6qmo6IoQj11fLB7CHQwu+jXsuo4J8fncOo5enlrBEgYSs7Oxq26Jkp4KoKIrwrcxxDadEE6GJ890OJ9iv8asdGK5qLTrgv4ctYIl1JRlE7XFbonK3ouSrojLbgkT40nh8cwxDG+DCBE2nnE1sVymtOuC/hy1gtXQrd4L0WW3RIRjUDzCxId1wMbf4GB9JLuQ1oWxFCrYIhezpQFWUpDo5YJV2ntRxfzAPMi6Jd7glRyijXrwhh56eR2UicXWwFRPr810D1bIUz8qKB3Yr/GnOi+2kxjsqqAUOy9+LEo+RRwCW1Yk0Z3U+nesX5X0Bzp1hxGV4I5FJAGDRSQBg0UkQWvXWE1Hluu0tQ7RI7UWrDa6Kth5Qc+u6Rs/TwWJJGCwiCRgsIgkYLCIJGCwiCRQJFjRefq37lvviZ6AIsFKv/c3DjHvT7CN48tvmSd6MooEq4zY2nTevcQOCztrT4pcDNJj2ZxEv0HhYJlYpFPC4TzA2q/usIg2HoxtcuzO4agvyadwsM47lj7dA6jusNCcFXozXpfR71E2WJE7A7bZjtUHbnZYpNdoYQ+zm7P6RO1QNlha18ByeLljVXVYRO4gb20ymlQtEf1Qa7+E+zs0ONlXz5sLxHHxa+jFqV8fdmeNrpa05MYcBaZfpOyOVUr49K+TlFXwI3l6CMV2rBqagx23JnoCr7VjET0JBotIAgaLSILWrrGajizXaWsdokdqLVhtdFWw84KeXdM3fp4KEknAYBFJwGARScBgEUnAYBFJoFSwztPBP58E9rPp4uojhAnlDjoDF999xPrHqhPBHZTPkv18bZJBnWBdTAf/0iSw8GXiW2OKt998BUcuBpwdU5Y6wdJ76C/XV+/aYseFj+wF6Z5bnYSdRjx2LayRz2t1OuhUvJjN8QT7Qwj4Nga2jUH6eFX3LX0s377YacXdRlzH9n3Y+hT75bB06rnq/4OehzrB0hzswh5m4gvYtzHrhckuFvawzl6lSw9Ypa1O8LCJqvsw4NvQD5/5TrjFsPQLwf31Ev2eDgDYBz2s4gXMqvtWPVaVyMWbZ+W748I0sQjn6E+2121U965ND6FOsJCNhcQIezN0bB/RMcB+qufTwctDmBw3+URypqhhZAGHsLoP4/L2ZGcKjmlA91Po6S4yxDY//exbI2g37lv1WFWijQfj00GTk9t716bHUCtYKa1rAMERIYD+PMx3jPjGl3BX9WFc3p7sTEY3fYkL11hla1fdt7J7Q+8B3iY9NfWxXpavc0t1rwc9E3WC5dvna5lhgPnKgemsYHm6cG1y4/4VfRgwF9himK8xxBY38nmp6r5Vj6WNYCHbBddAttsU1rH99Nig5Bqram16LvE3vL+/x6fTKT6dTvHX11d8Op3q7tJIW+sQySK+5k+nU/z+/l56nDo7FpFCGCwiCRgsIgkYLCIJGCwiCVobzW86slynrXWIHqm1YLXRVcHOC3p2Td/4eSpIJAGDRSQBg0UkAYNFJAGDRSSBYsG67KEo670o74BgfwX9LoWC5cPuDPPvHa7tvSh2RrC/gn6RMsGK3BmWk/JZqesOiNudEeyvINmUCVZ42F+MwedKOyBudEawv4J+gTLB0nv9cxeFoHEHBPsr6BcpEyxtZAHTt6uL+8YdEOyvoF+kTLCS+jMLnl74VPBWv0RZZ0QV9ldQm0oH9muw84L+KnZeED0Qg0UkAYNFJAGDRSQBg0UkQWuj+U1Hluu0tQ7RI7UWrDa6Kth5Qc+u6Rs/TwWJJGCwiCRgsIgkYLCIJGCwiCRQKljnadvyvot71PdL+LB/0I2RafM5kzpa+7hdunzatun3mD5I5GLwr4vdwlTnOVPr1Nmx9B76y/XNzggfWXGLC3dw3chU1S9R1XVxTWx7Eh4v35Hcy36Lq+ccwR2IO2W6K954zpf9GSVPiZ6SOsHSHOzCHmbii9+3MeuFyVRw2MM6e8UuPWAVI45DzOFhE93ol6jquihlYpEeF84DrP10FH+btUY5l/0WV89Zg/NpwNskzzNyZ0A2xl/2nK/6M6qeFz0bdYKFNFxxjLA3Q8f2ER0D7Kd68o6uT7E8hMlxk08klRYaRhZwCKv7Jaq6Lsqddyx9ugcAaM4KvVmnelK58JxhjmF4G0SIsPEM5A9d9pzv6M+g56JWsFJa1wCCI0IA/XmY7zZlXRbifcr6Jaq6LspE7izvNQzn/fRWDc4u2TFnN87VsuccwcSHdcDG3+BgfVw1SBXv07Q/g56LOsHy7fN10DDAfOXAdFawPL3ZNUhVv0RV1wUum50GbpS80IeXO1Z+DaRPYYzNy36LkuesAdBGPXhDD71RzV5U1p9Baigd2K/Bzosf2k5iTLZ1R9ETYufFU4qST/6GwJafRLw0df4d6yUk12NO3WGkPO5YRBIwWEQSMFhEErR2jdV0ZLlOW+sQPVJrwWqjq4KdF/Tsmr7x81SQSAIGi0gCBotIAgaLSAIGi0gCpYLVfn+EOBHc1ppELX7cLp2s/ojJ9uYcF9F3qLNj/VZ/hG9jYNsYpPNU+Z+rujEKxxBBqWDJ6o9YZoOE55Dugx5W8QKm+Ocb3Rji8URQKliQ1B8xyQpmdul9gL41yo/L/nyrG0M8ngjKBSv1iP6Ie7oxiNQJlqz+iOX5tpufCt7qxiAqKh3Yr/FUnRfsj6Bf9Ac6L9gfQc9LnX/HusL+CHpeCu9YRM+LwSKSgMEikqC1a6ymI8t12lqH6JFaC1YbXRXsvKBn1/SNn6eCRBIwWEQSMFhEEjBYRBIwWEQSKBas6DwZXBhOvDjKHdz8TfW6n5fy7fQ+lz0Z4oRy5lvr00tRKFg+7I4OzxK+czi04OnX4dKcHXZO9RhJ3c9r9ef5JPLWmOKt8AR+vD4pT51g+WssJ9vLF6zmYDVHMp5f7KpIX+znZicbtp2GMPt5ZT+GuCvd7rIwxxPsD2Hl45f1bIjP6fujl/TMlAlWdAzQ7+lXt2tdI3lhl3VP5M1OMeJ4DCyv7l7ejwETi3RHCucBbg0e++tl/ryuHr+sZ8O3Meulu27Yw5qnjC9JmWCJARKJgSt2T1z2VJgYT67uXtqPIe5Y+nR/fZ/9FLowSZztolePX9KzER0D7Kd6smPpUyxL/p9IfcoEC+YYk+Xw8kMB34Y+NfBZcT1z2VMR4RiUHnYlcmfANtux+tcHCNdYtzoJq3o2+nPhOpFDmi9JnWDBxCLewsje7Tvp9PCt2jHzA/Mg66l4g1d1XIHWNbAc3tixmirp2dCcFSxPv7iNXlDpwH6Np+q8aGwbTzCJ2Y5BP/EHOi8aiFwM8k/3hsCWpZr0O1obG3lKmoNdzFYM+n2vvWMRPQiDRSQBg0UkQWvXWE1Hluu0tQ7RI7UWrDa6Kth5Qc+u6Rs/TwWJJGCwiCRgsIgkYLCIJGCwiCRQLFiXfRO/0SvRtL+i6XH0N7T2cbt8PuxkTgTxL/4mrebssKs76I7j6G9QZseK3BmWk/Lv/RV7JTrZgNNFn8UAbiQ0PN1zjNiPIe6Uxb9X9FyUP1Z5uxO9DmWCFR72wpi9wLehHz7zidwthsIXd6d9FqEFT387d1sE63OJS5NjsjH7dKp452hXf7/r+Vz0a9ArUiZYeq+P4Hj9SrzstUhak/Ljsj4LrQujb2GUdlt0jQD5Uk2OQTL525udm5WKf7/r+Vz0a9ArUiZY2sgCpm/XHYKFXgl/vYTRldHpl3zncRz2MLP9kr+nR/3a86FnpkywoDnYhRY8vfCpYKFXYojy67Cfyq+b9CmMsXn199wvPR96cqUD+zXU7Lwg+jl2XhA9EINFJAGDRSQBg0UkAYNFJEFrvyvYdGS5TlvrED1Sa8Fqo6uCnRf07Jq+8fNUkEgCBotIAgaLSAIGi0gCBotIAnWCFbkYFL7+0LcHV2Mk9YQp4fw/fns9tUudYLUmnaOKQ8z7E2zjGPGtr1sl+obXCFaxfwKAbxd2I9/GwLYxuNqdIrgDcefzYQ9cRDc6Kq7WJip4iWBd9U/4Nma99Jvpwx7WaWr2QQ+rq91Jg/NpwNtkRTAz4NOBBrGjIkZoeXhLS2PK1iYSvUSwiv0T0THAfqrnE77LtFyib41QOiRvjmF4G0SIsPEM5APBeUdFMnKPG2sTidQJltaFsZydT9kiF7OlgW5azlLsn+jPw7wpKa6djTfxYR2w8Tc4WB/nHS04nk//hO6K+9amv0idYMHEYmtgmnVe6B6sMDmtK/ZPaM4Klqfnn/rZDS6EtFEP3tBDbyTuaR7eCt0V31mb/p7Wfgn3V5gLxPHi6mbN2SF2Lm6Bs4txcRMW2F1sLhqcnbBWeMB+8omdmCvjE7tdcUcqW5vokkI7lizpv2sNgS1P66glau1YUlTsQJqD3fXmSNQIdywiCRgsIgkYLCIJWrvGajqyXKetdYgeqbVgtdFVwc4LenZN3/h5KkgkAYNFJAGDRSQBg0UkAYNFJIFCwYrgDn46scu+C/odCgWrDey7oN+hZrAu+igGcCNhJxIGpMRuCruq0anJWjf6L4jKqBksCH0UoQVPf0u7KULMg3VeHjPENp30HQPLH6yFiv4LogrqBivro9C6MPoWRumIftcIcIySbopJXl5hYjz5/loXxwj9F0RV1A1WDa1rYLnO9psIx6DmDnUq+i+IyrxssGB+YB4M02usN3h1x9e67r8gqhR/w/v7e3w6neLT6RR/fX3Fp9Op7i6NtLXOtW08wSTe1h1WJZzH/cm3700vRHzNn06n+P39vfS4192xhHbcTlJowY/V6de0NjbydDQHu7ilLiX2X9CdXnfHInogBotIAgaLSILWrrGajizXaWsdokdqLVhtdFWw84KeXdM3fp4KEknAYBFJwGARScBgEUnAYBFJoE6wIheDwtcn+lVTwckdSvstXHeAAYcUSbLWPm5/Ptn3XkVwB//Q3Z1/Cbel3yAkqqTOjnXLPZ0Uvp3sWE26Lgq9GWxzoqZeI1j4ZidFXdeFb2PWC5PejLCHdZM1iV4qWN/ppGjQm7Gf6smOpU+xPIR1KxIBSgVL68JYzs4fVkQuZksDefWEpE6K/jzdseIYMefxqSF1ggUTi62BqZ5e8+gerFCcCm6/k0JzVrA8Pf9U0eZFFjWk1qeC5gJxXDHKa3xitytLkwZHHP81F0gOE6eCTSyE+5qLXRrY7JNFovsotGMRqUOtHasKOynoyXDHIpKAwSKSgMEikqC1a6ymI8t12lqH6JFaC1YbXRXsvKBn1/SNn6eCRBIwWEQSMFhEEjBYRBIwWEQSKBWs8zRv52e9FSX9GYAP+9bk8Q9F7Nr4U9QJlm9jiG0+G7VztIqAPBHh+WnOLnnO9CeoEyy9h/5yLfRO+LD1KfbLYd5HEbmDcyOTEDjx9mIOffvy2KLma/qwhTYov/j8sq6NqjXv6e2gp6dOsDQHu7CHWf5iNLEI5+hPtojjBUzfhn74zHe0LYbJCz5y8eZZCNPbxQFI3+5gPb4xGXzXmiYW6d/DeYC1X3h+dWtC7O0IMYeHDZOlLHWChezrT2OEvdnVLhMdA0zGwrDieILgGCHaeDA+HVydhC2HmPXCm5PG96153rH06b5ktUTVmoDY26FhZAGs2FCXWsFKaV3jouMiu225Fk4U096L4u25yRYrvN38QOGeNSN3BmyzHatfslqiak16LeoEy7fP1yXDAPOVA00bwQrSaxhzgS2G+TF570XhdnGj05wdPg/6+XpmP4Uufup4x5pa18ByWNixxOeXPWjVmvRa4m94f3+PT6dTfDqd4q+vr/h0OtXdpZG21iGSRXzNn06n+P39vfQ4dXYsIoUwWEQSMFhEEjBYRBIwWEQStDaa33RkuU5b6xA9UmvBaqOrgp0X9OyavvHzVJBIAgaLSAIGi0gCBotIAgaLSAJlguXbA1xMeEQuBgMXfkWXxNXxjURwB8Jvogu+tx79VcoEyxwb8ISR2mjjAdYIJrsk6AkpEyyYYxjeJh1ujLDxDHw6GiB0SZxbnGyshbuKt2e7UVWXhahqPaI66gQLJsZG2gMRbeAZY1zMB160OI2B5fn2WS/95vuwh7Ub3e6dqFuPqAGFgnU+HYw2Hozx5djtZZeEifHkfPt+mn7zvT7F8hDe7p2oWY+oCaWClZwO/sM/z0AhV4UuiQjH4Pyz/jzMd6d4YTbqnbi1HlEdtYIFE2NjiWXxNBAAzA/Mg6xL4g1eerPmrGB5+mXnRZPeiYr1iJpo7Zdwf4u5iBFf3oBdGgpnF8O5uodWeru5iBEvyo5dCH8uW4+onmI7FpEaGCwiCRgsIgkYLCIJGCwiCVr7VLDpyHKdttYheqTWgtVGVwU7L+jZNX3j56kgkQQMFpEEDBaRBAwWkQQMFpEEygRLfudFdP7G+s55crh8tpjoNmWCJb/zIvlt9jgOMe9PsI3jy2+7J7qDMsH6/c6LCO5A3PV82AMXUeRiYLvn3S37/uKKx6G/SZ1g/XbnBTQ4n+ddMnJnwKcDDQCWHrBK7htaHt7SNa8eh/4shYL1u50X6Q/SXTLZIfO7TD6RnX1qXaPycejvUipYv9l5kTDxYR2w8Tc4WB/nHTI4nk//hPsWH4f+LrWC9ZudF9n9R/zLGz0AAAToSURBVD14Qw+9kRg8D2+F+5Y+Dv1Zrf0S7m+R23mRHS/8IDxgP/nETsyV8YndrphEdmTQmWI71m9K/11rCGx5Wkd3Um7H+j0VO5DmYFe60xGdcccikoDBIpKAwSKSoLVrrKYjy3XaWofokVoLVhtdFey8oGfX9I2fp4JEEjBYRBIwWEQSMFhEEjBYRBIoFKwI7qB8Mvey38KH3SmZ/C25X1TRl3Hdf9GsP+P+ng16VQoFq5reA/K5wugI9IW/+2sE1ghl01Za1pcRuRjkcx4+7I4OzxJmq0ILns7QUHNqBityMUh3k4EbQRtZCNLBxaRk5vx3fx3AGmlpYAqdFL6NgevC1qfYL4fJ7f4ay8n2sqBGc7CaIxnT920MbBuDdI3GPRuF+9FrUzJY0caDsU12k52jAdoIVrCGn43QOyNYOCJChGNgIBnwNbFId6BwHuA8QDzCIpyjP9kijhfQjwH6Pf3qMbWugX26De6DHlbxAuY9PRvi/a5Wp1ejZLA0Z4XeTGxD0tA1AhyjEAdjDBMauvCw8cXSmfOOpU/31WsLARJFQuD66anlPT0b4v3o9SkZrLwDMOxhll4bmWMD3tsMQfriN8cGvNm5dCZyZ8A227H61UubY0yWw8sPNXwb+jStWxPc07NBf4uSwco7AfXpua3JHMPYI72eSj/R2APZWZ3WNbAcVuxY2ghWkF5jwcQi3sKYnvsrOkNgW3YKd0/PBv0t8Te8v7/Hp9MpPp1O8dfXV3w6neru0khb6xDJIr7mT6dT/P7+XnqckjsW0bNjsIgkYLCIJGCwiCRgsIgkaG00v+nIcp221iF6pNaC1UZXBTsv6Nk1fePnqSCRBAwWkQQMFpEEDBaRBAwWkQSKBUt2F4U4Zdx8faIihYL1S10U/TnCi/U59kH3UydYj+ii0Bys5v10mLHYmRHBHTRrg6K/R5lgRQ/qotC6RvqnYmeGBufTSEKdTSh/Ohy9J0ClYD2qi+K8fklnhjmG4W0QZSU2nMCnlDLBekgXhW9Dnybj/uWdGSY+rAM2/gYH64PtS5RTJ1i/1UWxn0K/WH8HR6vuzNBGPXhDD70RTwLprLVfwv0dyXVO6ZfWmwvs8oRVfON96e3i/W6vH8clPwkP2E8+sWOuSKDQjvVs0n9TGwLbulNK+nMU27GeSdWuSMQdi0gKBotIAgaLSILWrrGajizXaWsdokdqLVhtdFWw84KeXdM3fp4KEknAYBFJwGARScBgEUnAYBFJoEiwil0X4vcPN3XZZzH49jx/BHdQ/tjNuzXo1SkSrPQ7h+MQ8/4E2zhGfNe3z/uwkxmQfBZr51T8OnrkYsCSC/ohRYJVpthBkd4qdFrY6Q4SuTMsJ1tc/xJ6cQ0ftj7FfjnM17zqyCiuUNGtQX+bwsEqdlAkE79lXRfhYS+M6t9aw8QinKM/2SY7YkVHRq6qW4P+PIWDdd1BUdV1off6CI5lFz8lPRaCqo4M8edlj0ekbLDKOiiqui60kQVM364+WCjvsbh0qyPjVrcG/W3KBqu0g6Ki6wKag11avil+Kli6hjaCFSTXWGFdR0bV4xHF3/D+/h6fTqf4dDrFX19f8el0qrtLI22tk9jGE0zibd1hRHcQX/On0yl+f38vPU7ZHatU5GKQf8o3BLb3fCRP1J7WxkaeguZgF7OFgh7v/wNP9FmNW/d2bAAAAABJRU5ErkJggg==;" vertex="1" parent="LYCwLjDnQvL3Gzslhouy-5">
          <mxGeometry y="372.55999999999995" width="177.31" height="412.62" as="geometry" />
        </mxCell>
        <mxCell id="LYCwLjDnQvL3Gzslhouy-7" value="" style="shape=image;verticalLabelPosition=bottom;labelBackgroundColor=#ffffff;verticalAlign=top;aspect=fixed;imageAspect=0;image=data:image/png,iVBORw0KGgoAAAANSUhEUgAAAMwAAADiCAYAAAAChCi0AAARK0lEQVR4Xu3dT2gj58EG8Ecf7UJhYX3oISGHgDPjgNBpaX2Qcuh3sFPJF6d0RUID68Oupy5hpYN9MJ8P38Fg6KZUCnw4UqDYtCcZur5Yk13fAvLBh+3FGNZSfA30pC0p9DbfYf7ondE7mnnlsT2Wnh8EstLMSPLqmfcdrZ9XGcuyLBBRLP8VtQERDTAwRAoYGCIFDAyRAgaGSAEDQ6SAgSFS8JPgDU+fPpVvSTSFvvnmG9+fhwIDAF9++aXsZqKpsr6+PnQbp2REChgYIgUMDJECBoZIAQNDpICBIVLAwBApUAjMJXYXZzAzE/xvEbuXUfuO6XIXizMzmJmp4jhq2yu63F0cem2L1/bC6K5SCEyYU2w+vMbQJMgNhT8Ix6jOzODh5umIPUeTH5cm0ViBmd95jX6/j37/ACsAgFO8eJn2N8slXr4IhuISu4uPsAcAmMfO677zuvrov95BVnqcINlxaVKNFZiBBSzZicHpm+9907bqsX3mnlnchRul42pgOlcNTrScfZz/qi+Dd1ft+7xjio8nbhacWh1jd/Eh3EHkdPOhPc27fAn7vT6PndevsDYrPNbsGmprsyFTUXeKeCk/rvR5BEdh8bUuYvdYPv0c/TOT/byrqC5KppQ3OL2dZFcMzDGO7NMz5j/8wHfP3iP3zA3vL/bR4AZ3o8CbX9wH2NvchNq5O+Rxwnz/xj7+/Cf4WAxLpD08GvnGkz0PceoafK2n2HwUfK1xfmbize7xPsSzDWfc3/xqEN6v7OPP7zzDAmhcYwXGPpPOYGbG/UtawcZa4B23cmBPbV6tYfb4K+csLEx7Xu9g3j4YvjoGINvmYEXy6CPIjtHv49XaAtZevcbOvL2ZPaWs4YPeecQBAWAWa6+EqZo3DT1H73JWetwF73ms4MDZz34pztQ1zmuN8zMTiT/vhWfOc9rD0TGEE5vk74mUjBUYn/kdvO7Xhs5aK0uDWy7dN6Z4Jp/9GJ/MD7aXbvPBhxA2iSQ9xgizmnOVcvoC4Zdg/mni4CQRxx4eOfuJI0Wc1xrnZyYSf97ALNacUWbv6BiXu8/t57yyxNHlisYKzOCi3zmjRWw/eGO+wffujcL1w4cfyLe5fPlCPiVzt/GOYZMH4Bi7YZ9eLSx5H1psPgxMsS53Ud299N5s3mt2z/KxDEaYwWg3G+u1xvmZjeSOMnvP8fsXp/ZI9YxxuaqxAqNMmCK4Z9yZh5v+6wfvzTvYZuijXu8s7Gzz8AV8717vcU6x+XAwIrwAAMzCew96F+cLqHlTIeG5Oc9PnLB509Dfv4Cf5LiS1+L7sCLOa43zMxvJHWVOcXoadx+KcjOBgX+u71k5EEaoBdR8Z+8VHATP5rNr+Fo4yMrB1/hEvD/kcbKa8wjPJKPDQk24LhHN45OPZzG79rVwvHnsfL0x9HHz8HEXUOtLXq94f9RrjfUzi+AFE1jZiLkPjZQJLhX79OlTNi5vnPDx9PwOXscNRITL3UVn5FrBgeQ6k0ZbX1+PV1Gm6+b/9xtREiPBcdX/IcPKAcOSFAYmNa5nFFg56KOW9EGn2MjAHB4ejrqbruDdP+xh7w/+2/59eIhEfuK/2sPer5z///ch+NeoZnl5OfS+yBFm1M5Ek+TBgwfY398fuU1kYOAc6Krevn2byHGIrsPbt2+jNgFu7mNlosnAwBApiDUlc8UdtkSchtEkUQrMKG/evPH9+b333sP9+/dDtye6ixIJjGma+PvfP/Pd9otfVPC7321whKGJksg1zBdffIFWC/jTn4DPPwdaLeDkpI4ffvghaldHD/WCAVNyj2kUUO9J7iC6BYkExvWznwHvvhu1FdHdlUhgvv32W3z0EfDznwO//CXw5z8Dv/71H/H+++9H7SplGhlkMhlkMkYy//JNlJBEAqPrOv7610t89BHwl78A//rX/+Kzz1Zx7969qF2HmQZKaMOyLFjWMtCM2oHo5iQSGNFvfgP85z//h++++y5qU6nexRlWl4vOn4pYXo3YgegGJR6Yf/wD+OlP/xu6rkdtKqXN5dA8dC//e7g4i9iB6AYlHpiZGcCy/okff/wxalO54gZqZyXnGuYxWlHbE92gRP4dBgDu37+P3/72f/C3v32HTz/9o+IIo6HSaQj/b6ESsQfRbUgsMPfu3cOnn36Bfv9zvMvPlmlCKQUm6l/tHzx4gHfeeWfkNkR3WeLXMESTjIEhUsDAECmIdQ0zTg9GJqnjEN2WWIGJutiPg51+SrO4J3NOyYgUMDBEChgYIgUMDJECBoZIQUoCY8LIuC3LDDKFOsat8V99DQCuL0DhUhIYAPkaupYFy7LQzlXx+Cbfmb06CoYsIkR+6QmMoLi8ipPzLmAaKBgGChn7jN+rFwajkPAGl64BYBooCKETRwfxOIZpwtCrOGmWkMkMjyxcX4BEqQyMedhEPmv3aU7Osti3GiiaBvTzLafrb6GNEgxzjDUAenU8bpW90axRLKLRrSG/2oZlNVAUNlU+Nk289ATmpArdOeuX0EanogEA8uUlaENdf3sUOrvoKa8B0DtqIbdVgTZ6M3tbxWPT5EtPYIRrGKvhO88DQ11/exTKzWnhawDoWaB15Hx4YOKwKT/OKFxfgILSE5goxQbaKHnXHiW00SiOWANAW0IZ7qh1CLijQ+A4hulseya5huH6AhRkBTx58sTq9/tWv9+39vb2rH6/H9xkLEkdh+g6uO9P9z3f7/etJ0+eDG13d0YYohRgYIgUMDBEChgYIgUMDJGCWBXluPXNKEkdh+i2xApMEl18dvopzeKezDklI1LAwBApYGCIFDAwRAoYGCIFKQqMv9dfuMmK8kjs+NNASgJjwsiUgLblNSrdAtkQ9u/pFqUiML36NpqrTr/FRxx1DJgY7t+LnXs3RuJtRkiX31sTwFs3oIBCQRwxTBiS1WvY8Z9uqQhM9/zEVz8eKKLhjDjd2hkOzUD/3jSwne3ao1I3i8N6L7yHH7YmgLduQAedrRxaR3ZEevVtIFhlZsd/6qUiMHo2j7ML2cXAYITRqydD9/YuznBS1e0zvl5F87wb2sMPWxMAwroBKC4j1zpCDz0ctXIIZpgdf0pFYLSlMlB9PHQB3atve9c13Vpeum++1vVGDatRDO3hh60J4FfERvkcR+YRzssbCI557PhTKgIDrYJOt4yW7v+UTJvLoVkKjDBC/75b2Ue5pfv7+WE9/LA1AYJPZSmLVqmF7JLkQwd2/CnYWZ6sTn/bWsWq1Y7aTNRetbCqtAdNgOnt9PfqKHifrJWAdmNoaiXXQ72Qgb1LvD1o+sT69f47RaugY1WitpLQUOlYGGdPmh6TN8IQXSMGhkgBA0OkINY1TNz6ZpSkjkN0W2IFJokuPjv9lGZxT+ackhEpYGCIFDAwRAoYGCIFDAyRgpQExt/nz2T8LUmlfn/g25PjcX6PTPL4o7DTP31SEpjAd1w6v+pvmIBW6YT3+xNhwsjoaJWFXk23jJbOMNCw9ARGpFWwX8vbZS13xBB+C9n7s1EfjAxD/fvgegA91GWdffMQzdW2P5RaBfs12HVlr/M/vIaA2OkfWlsgsB9NhnQGxmk3inpHLeTagRVlmi1g32lkllt47BsSgusBaKhIOvu4OEM+qyNIm8vh5LwLeJ1/ew2BsPUChtYWEPcbOjrdVakNTC/wRtYq+8hu+1eHweoW3OwEAyZdD0DS2ReDIRIf3+38j1ovILi2gLgfTY50BsY0oFeBsq8mbPdVrG4W2+5yL2cX3jQs2NGXrwcg6ewXl7HaLPk/KDAN6NUctgLXTqM6/cG1BWgypScwJ1Xo7jVHCWhbHYjvV29NMb2KnHeWb+FxSEdfuh6AtLNfRMNqI1cdrA1gP75kKhXS6ddkawvQZAp2lu9Mp79bs/LjdO/Z2SeJ6e30h2Jnn64u1q/3p5JWQacRtZGInX26uikaYYiujoEhUsDAECmIdQ0Tt74ZJanjEN2WWIFJoovPTj+lWdyTOadkRAoYGCIFDAyRAgaGSAEDQ6QgRYHx9/rVe/nj8Xr5kq8zZ2efglISGBOG/Tv1Xqdk7B6/5I1PlJRUBKZX30ZzVfKdkyP69HYkgr19E4ZexUmz5G0zvE94Lz9UcD0BdvinVioC0z0/8X0luEjs0w/35oO9/SIa3Rryq21YYfuE9fJHGFpPgB3+qZWKwOjZPM4u5BcLYp9+uDcv6e0LZPuE9fJHCa4nwA7/9EpFYLSlMlB9HHmBHezNy3v7o/cJ7eVrc8g1twfPoVfHdjMHe5mA4fUE2OGfTqkIDLQKOs7ifWGfksl689LevraE8pl9DdOVde1DevlAEY12DlX3OegtlLv29Cq4ngA7/FMs2Fm+M51+ogSx0090DRgYIgUMDJECBoZIAQNDpCBWRTlufTNKUschui2xApNEF5+dfkqzuCdzTsmIFDAwRAoYGCIFDAyRAgaGSEGKAnPLnf7A42cy7PPTsJQEJiWd/nwNXbfj4tQNQg91lcehOysVgUllp1+rYL+Wd8pm4z0OTZ5UBCatnf7BV5mP8Tg0kVIRmLR2+nsXZ8hn9bEehyZTKgKTik5/kGlArwLlJW2sx6HJlIrApKPTD+CkCt29VikBbauDijbm49BkCnaW2emnacROP9E1YGCIFDAwRAoYGCIFDAyRglgV5bj1zShJHYfotsQKTBJdfHb6Kc3insw5JSNSwMAQKWBgiBQwMEQKGBgiBSkJjAlD1qHv1ZW/ldjt6PfqhaFvPC4UCrHXCvC6/pIq8mAdAJo2sT5WvhF5oPXcREXokpjPW0A+h3FolQ46gN15QQ1dq8IvbKUrS8kIAyC3hS0IX8oKE4cooyxs4n3XZCaDjHDWl3b0TQOFeg+moaParELPFFCvG0OjjnLXX9SroxDo7wwdN7AuAd1t6QkMgOJyDq0j+43Xqx8iu7E0uNM0oJ9vea3GNkp2USuio19sdFFbraFrdVCZGxzrKl1/V++ohVxbWOUmpNvvrUsQdUBKvVQFBsUNlFvPYcLE81YWS8Icyt/FB4rLqzi76Cl19F1X7fq7tMo+stuD0SSs2++uS0B3X7oCAw2VLeDQOAS2/Ncc/i4+YB42kZvT4nf0A2J3/bU55JrCVLFXx3YzhzkN9vPt2KPJtjNFZLd/sqUsMACK9nRoaNWlYgNtuF38DEpw1jEb1dEPIVsfIPw4RTTaOVTd9Qb0Fspde3rlXVPpVeSWi/Lj0mQJdpbZ6adpxE4/0TVgYIgUMDBEChgYIgUMDJGCWL9LFre+GSWp4xDdlliBSaKLz04/pVnckzmnZEQKGBgiBQwMkQIGhkgBA0OkICWBSXGn3/cNyhlkZM+TpkZKAjPo9IvsTn/oHiNplY7dgvQ6/RY6Hfc2RXl7f7tJaX+1YOiv7ksWzaDJkZ7A3JVOv1bBfi3vlM3E0ceACROGXsVJs+QdV/Y4dHelJzB3qNOvzbkr2RTRsNxvVz7DoVlEo1tDfrUNy2qgGNLxp7srVYG5K53+3sUZ8lndN8J4364c2E7W8ae7K12BSWOnP8g0oFeB8pKGXn0baLsjjPxiix3/yZKywKSx0w/gpArdvVYpAW2rg4rmhLgUGGG0JZTP7GuYLjv+kyfYWWann6YRO/1E14CBIVLAwBApYGCIFDAwRApiVZTj1jejJHUcoqTFrc9HBibugYimAadkRAoYGCIFDAyRAgaGSAEDQ6SAgSFSwMAQKWBgiBQwMEQKGBgiBQwMkQIGhkgBA0OkgIEhUsDAEClgYIgUMDBEChgYIgUMDJECBoZIAQNDpICBIVLAwBApYGCIFEQu5Le/vx+1CdHUGBmY5eXlUXcTTR1OyYgUSEeY9fV12c1EUy9jWZYVtRER2TglI1LAwBApYGCIFDAwRAr+H0wm2rkkIVv3AAAAAElFTkSuQmCC;" vertex="1" parent="1">
          <mxGeometry x="1223.8200000000002" y="860" width="153.45" height="170" as="geometry" />
        </mxCell>
        <mxCell id="LYCwLjDnQvL3Gzslhouy-8" value="" style="shape=image;verticalLabelPosition=bottom;labelBackgroundColor=#ffffff;verticalAlign=top;aspect=fixed;imageAspect=0;image=data:image/png,iVBORw0KGgoAAAANSUhEUgAAAMkAAAFfCAYAAADkjujvAAAWPklEQVR4Xu3dT2gj993H8Y8engYeCMSHHlp6KGxHLhidQpuDlctzSFLZF6V0RUoL3kNiEQiPfMgewuPDczAU6pZahYfUKpQ17WkWurrY03RvAfmwh/YiDLGmuRaek1N66G2eg2ZGoz+j78jSWmPp/YLA2pr5jQL6zPzG9md+hSAIAgFI9W/WBsC6IySAgZAAhn9PfvHBBx+kbwmsmd/+9rfSaEgk6Re/+MWk7YG18vHHH8f/ZroFGAgJYCAkgIGQAAZCAhgICWAgJIAhQ0i+1Kdvb2hjY0Nvf/rl8EvPD7SxsaGNtz/VyCuL9+WnentjQxsbB3pubQssUIaQPNA7774hSXrx7LOhMDw/fyJJeuPdd/QgZW/gvssQEunBO+/qDUl68YX+Fn/3ufoZeUPvvkNEsLoyhUQP3lH/YvJE59Fc5/m5+hl5V8mMPD/oT83i/w6eJ18cmZ4NpnLDmw2PMTbNi6deI+OP7fu2Brsmj/VcB3c1TcS9ly0kiSnXkzAlX/pX0tBUq/8hfPhkZNcnD2f4MKaMMeSJHr7+iV7EXx6HQZi07wt98noyKOEuDx9q6iGAhIwhSUy5npzrub7UZ89eDE+1nv9an7yQpDf0s7/c6ObmRjd/+Vk4TftEv85ytz1pjJsb/fnD4enco6c3url5qkeSpBf64m/JfR/pabjf00f91599NpKSR0/7Y//5Q+6lYMocksGU60r+88/Uz8hgqhVdWYamX/E+2UwcY8wj7b4lSd/RdyeO/UQPw+lW2hXpUX8AIJPsIYmnXC/07PiZXoz8VOuBs9X/R/Lm/sswTHpD3/1OYqhom/j10TGeaXDyf65PR+dLUw2uJGlXImAWM4RkMOV68WJkqiVJb/2Xfhbe3Edn8o3o3iG6MnznuwrvbPrbvP5MSl4N4jFe6JPXo5vvh3qmDN7aDadfieNzc44FmCkkQ9OnsSnRA33457+EH/KER08Hc/8HH+o3iQ0ePf2N3h3aePIYW06WK8FbOrmZcHxgToXkI4U++OADmolA2EyM6ruzXUmANURIAMPYgyAi7XY77SVgZVWr1bHvpYZEKTsAq+i1117T2dnZxNemhkThzvP66quvFjIO8DJ89dVXU1/nngQwEBLAYE63ItYlaRKmWFgFmUMyzRdffDH09be+9S29+uqrqdsD98ncIfE8T3/844+Hvve97zX0k5885kqClTD3PclHH30k15V++Uvppz+VXFe6vGzq73//u7VryFezXJc34RWvXlbTn/ACcIfmDknkP/5D+uY3ra2A+2fukPzpT3/Sm29KX/+69P3vS7/6lfSDH/xc3/72t61dJ/LqBRUKBRUKdfE7f+TB3CEpFov6/e+/1JtvSr/7nfSPf/yPfvzjfb3yyivWruO8unZ0oSAIFARVqWXtALx8c4ck6Yc/lP71r//V559/bm06kX/d1X61En5VUXXf2AG4AwsNyV//Kn3ta/+pYrFobTqRs1lSqx3dwvu67ho7AHdgoSHZ2JCC4P/0z3/+09p0sspjnXR3wnuSPbnW9sAdmPv3JJL06quv6kc/+m/94Q+f6733fj7jlcRRo3Oa+HeghrEHcJcWEpJXXnlF7733kW5ufqpv8nNgrJjMIbF+e/7aa6/pG9/4xtRtgPtoofckwCoiJICBkAAG857kNj2SSRY1DnDXzJBYN+xZ0HFHnlkncKZbgIGQAAZCAhgICWAgJIBh6SEZ67H7TZXLTc1dbfebKtcnNeez8FQvRA3JgsozFO3p5a+epYekUi3JPR98qvxzV6rtypm618vkqV7YkS6CsCEZqNNY3rvB8i09JKpUVXLPwyuHr3O3pMOGI79Zjs/kheiK4NWHzurJs3Zy+8EF5FrNcjhG4uqU7NF70bj1usqFuprNI7X2L3QaFSQTJr6nKb38sePgXlp+SFRRteTq3Jfkn8stVVXx6ipeHcZn8gvtaOrMyW9qz62pF24ff8BbrnQWKAh6OlF4DK+uo61ef+zeltphyi67WzoLTrV5dZmoECekvae0Xn7KcXD/5CAkgymXf+6qVK2MdN2lSnVf3ev0D5l/7qp02Bifou0fqj9TcrRbk656/R795UGxf4YvHqh11ZMkbYdTvOLW9sRjpb2ntF5+2nFw/+QiJP0p17GO3ZKqldGuu+S1WyptOlJxS4qnZp7a4Vl7dHvL9kkvviIEI/MqZ7cmHeyN3Xynvadpvfxpx8H9kY+QqKJqqaVWqaqKJFVOdaGdeP6/o/AewdlVTQcqFgoqFNpS9DSVke2nTc2cxplqbjF9W6ehTq8mtzjy062095TSyzePg/sjSHj//feDm5ub4ObmJnjy5Elwc3MTLMKixgFehujzGX3mb25ugvfffz9+PSdXEiC/CAlgICSAgZAABkICGMz6rlVtzGpR4wB3zQzJIrrpdNyRZ9YJnOkWYCAkgIGQAAZCAhgICWDISUhu3ymfh98sZzjW7d8bfffVYP4I+OVLdMrvuHLhNDrqTN1iee8N+bH0K4mf2ilPnsHDjrjfVLneDHvrZTV9f9BhjwobQ9sku+0Txos68yn7pL83+u7rZOkh6aV1ylXRadjq6510FZf/ot56rya3uDfosHfbgw9f3G0P1Ku52mv66eON7TPow6e+N/rua2XpIUnrlCfP/MWDy8G3o966s6nSdk27YYd9s9RVPEzcbe/XbqeONzpuog9P3x3KQ0jSOuV+8yh+9lXvZDtt98m614PHB4Vd9NuMR98dykNI0jrlzmZJrZ0pZ/6pXO2NdNFvNR59d2gVO+69k2B7/8LaCojRcQfmlIPfkyyY01Dn1NoIyI4rCWAgJICBkAAG857EqjZmtahxgLtmhmQR3XQ67sgz6wTOdAswEBLAQEgAAyEBDIQEMOQmJNn65sDdy0lIPB27SqyHeMf8psr8/TpS5CMkXlvd2pnOaq6O485Shj57Wtc8bb33iV12T/XigS5bO/TPMVEuQuK1u6rtOnJ2a+omy+dWn33W9d41qcte0WnvRNv7FwqCU9EZxKgchMRTu3Wpg2K//33ZSjzQweizz7reuzS5yw5Ms/yQeG11E/3viU8ySTHreu/AbSw9JNFUKzI25Zpm1vXe0zi7qnW5J0GKZNd3JTruwIzouANzIiSAgZAABkICGAgJYDDru1a1MatFjQPcNTMki+im03FHnlkncKZbgIGQAAZCAhgICWAgJIAhFyEZrEw72zrp44bXXO83Gq19gOmWH5KhFWsDdRrObJ3z0W23T9SL1iYMl3JLHWqW42BtLT8kxS1tJ9uIY53zlPXX63WVC1GbMaUL4jR0drIdFrNGxxnvtrPWOiZZfkichjq9LR3FD3IY7ZxPXn/9srulsyBQYPTTB0tUj44zchzWWkeK5YdEYVCCQL2to6EnofRNXn99u7arQZ8xnX/d1fZW0VzHnbXWkSYfIQk5m6WhNdg173ruXl3FA6m2m20dd9ZaxyTLD4lXH/w0aqerk7OGnETnvGetvz7aT7+Muu0FFXaki6CjhpOyjnvyOKy1jhTmHzi+dJVTBcHocrmOGp1AjfCr8ddP1YlP9MPbVoJAExffzXCcSuLfQGT5VxIg5wgJYCAkgIGQAAZCAhjMn25Z1casFjUOcNfMkCyim07HHXlmncCZbgEGQgIYCAlgICSAgZAAhhyEZLiXPmvHPfv67/TfcTs5CImk/ZGO+wycRif7PvTfcQv5CMkIr564onj1/nrrE9dgT6zZHvfeM/bV6b8jo3yEpLUzNAWqnPZUc/fU9D3Vd6SLTqNf1Y3XYA/Uq7naG5kv9Xvv2fvq9N+RRT5CEk+3OvEa642zmtzijnSReMBDvAZ78gM+EPXes/bV6b8ji3yEZIyv5p6r2sWJukfNQec90X+P12xPYfbV6b8jo3yEJJ5u9e9FvHpRbu1MjUpDZzVXxfgG2tVeuF28ZvsETlpfnf47biO5nnWu13HvnQTb+xfWVsDMWMcdmJP5p/K54TTUmfgYFODl4koCGAgJYCAkgMG8J7GqjVktahzgrpkhWUQ3nY478sw6gTPdAgyEBDAQEsBASAADIQEMOQiJp/qkvrnfjFuG2Xrs/qC1OEOH3atn2y6S7b1gleQgJJK2Jfd4+O/PvWNXCqsddo/dU71QlFtLdD56NbnF2QJg83TsSnLPtdBhs6J3vxT5CEnpUIc6SnygPbVVUy3+Muyxp/bc22rtXwwHyWno7ERyz6f339uJtzHWYx/ZT15b3dqZzmqu4kwPvaeymn7iipb4QPvN8uAqF30/+v+Kjx+GeuL/53jvHncjHyGRVKmW+h9oSX6zra3Hu5M3jHvuPZ3I1bmfrOEOczZLugyrtsn++46iunBVaoUbp/TY4/0kee2uaruOnN2auu3ExzR6T72a3OLe4P1123HYileH8VXuQjt2cWvs/3N0fXvcldyERJXHqrnH8uTp2N3SbtrsKu65O9qtSVe94TAkJcOT7L/vV6OPWEXV/cG2k3rsg/XiPbVblzoo9l+/bLUHZ/PoPTmbKm3XwvfuaLPU1bU/ekypUt1X99qYsE34/8Ry5CckctQ4lNr1tnQYPh0lq0pV+62d4Rtqr67iQUmHI/cyzmYpfIyQJPm67g5em9pj99rqJl7vP1VFmQwfM9HPL24l7m88tVtCDuUoJP0Pu1pSdea5REWnwYVKB4Meer/DPmFaUnmsk27Uqd+TG347tRcfiqZakbEp1zSVU11o0OOP+/nOrmqKevdtad8YZ3TNetyNZNc31x134CWh4w7MiZAABkICGAgJYCAkgMGs71rVxqwWNQ5w18yQLKKbTscdeWadwJluAQZCAhgICWAgJICBkACG5YfEb6o80keftXeebnrvPWoi1pvjtdjFvQfcd8sPicKO+15zwb1xq/fu61r9dd1PU0qQgHITktLhcG88kqkDntIrN3rvXr2og9aBioWymtNaf35T5cR6jprUhcdKy0dIwtLT1tEMHzqjV2713iunPZ3sn6gXdNQY3yzmn7sqhSvzdhpOahceqys3IYnqu0dZP3RGrzxL7z2LfngHVw3WdF8/OQpJv+Z6eLWno6h3Pk8HfIbeu5xNlVqJRxr5TR21StoMg9fo9K8aR+FUjjXd10u+QiKp8rgmhUupz9wBHzJD710VnV6U+k9CKRRUKLqq9frbxc/LKh6oVK2YXXisoGTXl4471hEdd2BOhAQwEBLAQEgAAyEBDGZ916o2ZrWocYC7ZoZkEd10Ou7IM+sEznQLMBASwEBIAAMhAQyEBDAsPyQr2HGfZ1/kz/JDIjruyLd8hGQFOu5pa8Pj/stHSO57xz1tbXishNyE5D533NPWhsdqyFFI7m/Hfdra8Lj/8hWS+9pxT1kbHisi2fWl4451RMcdmBMhAQyEBDAQEsBASACDWd+1qo1ZLWoc4K6ZIVlEN52OO/LMOoEz3QIMhAQwEBLAQEgAAyEBDDkJiad63EMvDP95+0s03HRcXMcdqyUHIfFU7/8Ne9zR6Iz2PbKa8GEH5rX0kPjNI7X2LzS2PqdXV7leVzlsBI73ypNXn7o8eaoXD3TZ2om3WUgXPUvHfeS9YrUsPSS9q8tE9XXYZXdLZ8GpKhPXTq/oNLzy9E66ansVnfZOtL1/oSBtn1t00TN13JPv1RoQ987SQ1Lc2lb3evLkf7u2Kyd17fTBlaR4cKlRi+qiZ+m4K/FesXqWHhJntyYd7Jk3yaO9cr95FN/H9E62M+2T2kWfs+OO1bb0kMhpqNOryY365RN+ujWpV+5sltTaGbmSOLuqdfv3JL2Zuuhzdtyx2pJdXzruWEd03IE5ERLAQEgAAyEBDIQEMJj1XavamNWixgHumhmSRXTT6bgjz6wTONMtwEBIAAMhAQyEBDAQEsCQk5AsueM+cvzR9d6x3nIQkpx03Lf7a7oP1nuf8mfw8xwH987SQ5LLjrvT0NnJdljQut1xsDqWHpK8dtydzVL4r1scBytl6SHJa8d9sN777MfBall6SHLRcR/l1VU8kGq7zq2Og9Wy9JDko+Mu6TJaLz5a772jhnPL42C1JLu+dNyxjui4A3MiJICBkAAGQgIYCAlgMOu7VrUxq0WNA9w1MySL6KbTcUeeWSdwpluAgZAABkICGAgJYCAkgCEHIfFUn9Qp95szr2Ybddb9ZnlspdxyuZy5O8/67kgyfwR8J7Yl99hTI9HF8I5dabuk23AaHXWkfmdEJ+oFDRb9xK3l4EoiqXSoQyUW9pSntmqqJTaJ1y4sFFRInN0ndta9uspNX169qIPWgYqFsprNevo67Fm770ms77428hESSZVqSe55/8PmN9vaerw7eNGrq3h1GLf/LrTTLzcZnfXKaU8n+yfqBR01NgdjzdN9j7C++/rITUhUeayaeyxPno7dLe0m5kfD3XSpUt1X99qfqbMembf7HmF99/WRn5DIUeNQatfb0uHwPcRwN13y2i2VNp3snfURmbvvrO+OfIVEUqU/1Rl7wlDlVBeKuukF7Sh8Tte0znqKieuws747pkl2fem4Yx3RcQfmREgAAyEBDIQEMBASwGD+7ZZVbcxqUeMAd80MySK66XTckWfWCZzpFmAgJICBkAAGQgIYCAlgyEFIctxxZ3135CMkg457Ur/jnrrHVE6jE64FH3XcA3U6ndutD8/67msvHyG5Lx131ndfS/kIyT3quLO++/rJTUjuS8ed9d3XT35CkseO+yjWd19LOQpJHjvurO8OOu4AHXdgXoQEMBASwEBIAAMhAQxmfdeqNma1qHGAu2aGZBHddDruyDPrBM50CzAQEsBASAADIQEMhAQwLD0kY+ui+02Vy03NXVG6VZXWV7Oc7LTTKkQOQpJsJCpc1VZLW4wzXAcx6Olke18XQdBvGVq7YaUtPSSqVFVyz8Mrh69zt6TDhjO50+7Vh554krwKJbcfXECuB1eGxNUp+3rrvprl8lD3vl5uyvebKteb2cbGvbf8kKiiasnVuS/JP5dbqqqS1mlP4ze159bip5rEJcCWK52FVwaFx5hpvXVHjcNk9/5o0JqMxw7Uq7naC7vy9NpXTw5CMphy+eeuStVKaqc9jX/uqjRS+ZUk7R+qES4nvVuTrnq3WG89vtL1r3Lx24rHHjwcgl77aspFSPofxGMdhx/CtE67iltSPDXz1A6fajK6vWW27nlFj2tXOvfOdVV7PLjSdK8HU6zo/c08Nu6DfIREFVVLLbVK1f6HMK3T7uyqpqhz3paip5qMbD9tanab9dad3S25O662ko9wkau9kfd3m7FxDyS7vnTcU1zsB9q/GHzdOwm2k1/jXqPjPpfw9yY70gVTp7Vl/qn8euv/3qQx9u2GOqeT98Dq4UoCGAgJYCAkgMG8J7GqjVktahxg0axq+dSQWDsD64DpFmAgJICBkAAGQgIYCAlgICSAgZAABkICGAgJYCAkgIGQAAZCAhgICWAgJICBkAAGQgIYCAlgICSAgZAABkICGAgJYCAkgIGQAAZCAhgICWAgJICBkAAGQgIYCAlgICSAgZAABkICGAgJYCAkgGHqcnBnZ2fTXgbWQmpIqtVq2kvAWmG6BRjGriQff/zx5C2BNVUIgiCwNgLWGdMtwEBIAAMhAQz/DzkA9wKHTrAKAAAAAElFTkSuQmCC;" vertex="1" parent="1">
          <mxGeometry x="1430" y="860" width="201" height="351" as="geometry" />
        </mxCell>
        <mxCell id="LYCwLjDnQvL3Gzslhouy-9" value="" style="shape=image;verticalLabelPosition=bottom;labelBackgroundColor=#ffffff;verticalAlign=top;aspect=fixed;imageAspect=0;image=data:image/png,iVBORw0KGgoAAAANSUhEUgAAANIAAAEgCAYAAADBtC3kAAAYM0lEQVR4Xu3dT4gb590H8O+8vA0UAtlDDy09OO92ZtMK5WJag6VACMV+O9r3oJZGpGl5beiuJoZQKeA9mHcbXpIFQ51iKfDiSqZlNy05yNDokNU0NiU0dNfgg3uIcOvVdN/4VHhPk9JDb897mD8ajUYajfzs+tnd7wcCu5pnHk2389XzzFjPbzQhhAARPZZ/SWtAROkYJCIJGCQiCRgkIgn+ddKG1dXVSZuITpybN29O3T4xSADwzjvvTNtMdCJcvnw5rQmndkQyMEhEEjBIRBIwSEQSMEhEEjBIRBIwSEQSzBmkfdw4v4CFheh/ddxJ2w0AcAf1hQUsLJzHjf20trN4nGNJsH8D5x+3DyDyvzP+n6z/3dPE/8ay/+YUN0eQ7qC+cBpX7qW1OwT7N3A+8Vg28bKyJ809XDm9gPMZDm7/xnksLGTbhw5X9iDd2cYmAOAibrkuXP+/WxfTdpRtHzdeuwIvQ9FjuY+rZ+CdsK/dwJM/9c7g6v34sQH3rrw2Y9D38dEHWT+1zqHhunDd27i0mNaWZMgepNAmrkXOhHONBs4Bc0+17tQnT39Gt/mfzPsfwTu/zuDq/eC9AWARl35xFV6WruDdOxg5pvodf5pzPgjZ6BSs/tHYoSUcQ/T4pvUdt4hLt2/B+8y5hw8+GrZK7n8fN84PR9x7V077f8u0vzGncocte5DO/STyqXra+z+xnhaTTbw8MUzeSfHyZvS1e7hy2jsJ9m+cj23z/fWhNxqd+S7+Pf6pu6gjl7ALAGy+/DKG3e3jxvno78DmlWCUi7aZfHxRo31P8jU8dyb6++z9Tzftb0wHLXuQsIhLt1240bnc5suRT0R/ezjVCj6BH8BJOjHuvOt/4g6nZ17Xo5/Y0e23Ly1i33mQ0FkgfrJGXLzlHdftS1gM3zsy/YrPUWc+vljfmNHU/oFLt4fTwTNX78N1GziX9W9MB26OIPnONWIn3ia27yDhbtUsn9LwP1G9faKfzouX1vyTZLi9fgdY1P0x594HiJ/P0Wnfc18b3XRxeTgJDMMYHdW+9hySM5h8fFHRvif7Kx76Q15Oj8Ytvf+hef/GdFCyB+lOffTuUWSq98DZx/6Na9gMPz1duPevTjgx40ZvXgQjz/DCeXhDY/PaDeyH73sPV05HpzSRmxBJ076IYRgf4q/B3h99EJvaBSYdXxZ3UA9P+osYzd3s/c//N6aDkj1I0WujhQUshLefz+C7kbM2bPPaB9O6As4tj404C5EL9uhFePhJndOxGL2pMLLv8Hiu/iJlipXw3qfj99JTji+dd7s7PnJcvOXfIEntfxFh3v2bDcH9kJn/xnTgsgcpcepzEbf8W62Ll34RjlDeybw28cLfcw6NyG3hVGeu4n7D/yhfvITbSfueuYr7M936PYfGyKf5Rdwa+3TPeHxpzlzFfddFIxyN0vs/95PRY9Iz/43poGmT6tqtrq5yhSyRv0I2bal59hGJiMYwSEQSTC1+Euh2u2lNiI6dcrmc1iQ0U5CQsVOio+yZZ57B1tZWWrMRMwcJ/hs8rs8//1xKP0QH4fPPP09rkojXSEQSMEhEEmSa2gXmGf44naPjbK4gTfPw4cOR37/61a/i6aefntie6DiQGiTbtvHb3/5g5LVvfrOGH/5wjSMSHWtSr5Fef/11dDrAz38O/OhHQKcD7O428be//S1tV5+DZtGCnbDFtopoOgkbiBQgNUiBL34R+MpX0loRHR9Sg/S73/0OL7wAfOlLwLe+BVy/DnznOz/DqVOn0nZNZFsaNE2DplngdytIZVKDZBgGfv3rfbzwAvCrXwF///t/4wc/qOKpp55K23WcbaGEHoQQEKIMtNN2IHpypAYp6nvfA/75z//BJ598ktY0kbPXR7Vs+r+ZKFdTdiB6gg4sSH/6E/CFL7wEwzDSmibSl/Jod4PbDg72+ik7ED1BBxakhQVAiP/DP/7xj7Smycw1NPol/xrpAjpp7YmeIKn/jgQATz/9NL7//f/Cb37zCV555WcZRyQdtZ1W5GeBWsoeRCqQHqSnnnoKr7zyOlz3R/gK74HTCTFXkNK+pfDMM8/gy1/+8tQ2RMfJgV0jEZ0kDBKRBAwSkQSZrpHmWYeURFY/RKrIFKS0mwyzYM0GUtm8H/Kc2hFJwCARScAgEUnAIBFJwCARSaBYkGxYWrAqVoNWbGLeMg2PX+OB9SNodooFCUChgYEQEEKgl6/jwmGesU4TRSspOkTTqRekCLNcxe6DAWBbKFoWipo3QjjN4nDUipz4iTUebAvFSBijo0m0H8u2YRl17LZL0LTxkYj1I2gapYNkd9so5Lz1TLv9HLZEC6ZtwXiw7tdyEOihBMueo8aD08SFTiUc/VqmidaggUK1ByFaMCNNM/dNJ456Qdqtw/BHiRJ62KnpAIBCZRn6WC0Hb9Tq7zmZazw42x3k12vQpzfz2mbsm04e9YIUuUYSrZFxARir5eCNWvklfXKNByMHdLb9mxY2uu3kfqZh/QhKo16Q0pgt9FAKr21K6KFlTqnxoC+jgmCU6wLBaBLrx7L9tv2EayTWj6A0YoKVlRXhuq5wXVdsbm4K13UnNc1EVj9EByE4P4Nz3nVdsbKykrabOHojEpGCGCQiCRgkIgkYJCIJGCQiCTItNZ93GW6crH6IVJEpSDJqLbBmA6ls3g95Tu2IJGCQiCRgkIgkYJCIJGCQiCRQMEgOmsVI3QZttvoIs9dRYC0Gkk+xINmwNAOdyiBcASsGFXQMnuCkNrWCZHfRrg5XxQIA9Bq2GkBn2xmr3TCpjkL0dRsY22/kLVmLgSRQKkjOXj+s0RClL+W9Iiix2g2JdRRsCxs5f0Qb5ND1h7Jwv2jHrMVAkigVpGhgoqIBS67dMKyj4Oz1sVs3vFHGqKPt9xfsF++XtRhIBqWCBLOMars0Uj4LtgWjnsd6bTQG0+ooFBqRa6yEug8B1mIgWdQKEky0RA/5YETRNGgloBefkmFyHQW9toVKZ7j/1HqPrMVAkmT60urhMNESAq3ETS3shInSUdsRqI01Sno9vl8r8nNSH0TZKDYiER1NDBKRBAwSkQQMEpEEDBKRBJnu2s27DDdOVj9EqsgUJBm1FlizgVQ274c8p3ZEEjBIRBIwSEQSMEhEEjBIRBIoGKTZajY4zeLocouM2xOFT0C3YWmRYyg2Ee9prv7p2FIsSLPXbNBrO6NL0mPStqeKPMu2l6/jQuwAHrt/OlbUClKWmg3h6DFad8EKKgEF250milZzOMqFo0t01EmuKhQwy1Vv5e6E93eaxbH1T2N1I+hYUypImWo2BBtnqbvQ7gBbAkIM0EAH2w7CdU9CCAwafUx7wLndbYfHNfb+ThMXOpVw9GqZk+tG0PGlVJCy1GyIbkutu1BdhzfI6ViuAN5bDEcko747vs9u8CR078npwSg59v7bHeTXa2PHlFQ3go4vpYKUpWZDYN66C05zA+gFI1JhvEHkGmn2ug9Ds9aNoONBrSBlqdkQ7jJf3QV9KY92acqINCuzhR5K4fFadsa6EXQ8iAlWVlaE67rCdV2xubkpXNed1DQTWf0k64kqqqKX1oxoguD8DM5513XFyspK2m5CsRFpDk4TxfDuWwnoTRm9iA5IpmUUStJr2BGsA0RP1tEfkYgUwCARScAgEUmQ6Rpp3mW4cbL6IVJFpiDJqLXAmg2ksnk/5Dm1I5KAQSKSgEEikoBBIpKAQSKSQLEgsVYCHU2KBYm1EuhoUi9IEayVQEeF0kFirQQ6KtQLEmsl0BGkXpBYK4GOIPWCNCvWSiCFZPrS6sEz0dpJGEXMFsKXIz+bLQHRijbUUdsR4HpZOmxHd0QiUgiDRCQBg0QkAYNEJAGDRCRBprt28y7DjZPVD5EqMgVJRq0F1mwglc37Ic+pHZEEDBKRBAwSkQQMEpEEDBKRBAoGKVa34QC/ws36DySLYkGyYWkbyA1EuKZokNuQGyaniaLfX1j/IfIa0TyUCpLT3EC/sYVobRO9toVGv+vVX4jUa/B+LcL7NTqK+bUanCaKVhPNYrQikQ3LqGO3XfLa2RaKzWbktSKKxaBPv9+ESkZEcUoFCQDyS0kVgvrYm3o2m2gFI1ijj3DhbLsDbAkIMUADHWw7JlqDBgrVHkRY/2E58toOdtbz6GwHxVU2gNhydqIkygWpn5iYPBLzFRqOSCNPKK+u+6ObjuUKMFMJB7OMfGcbDhxsd/Ioc7U6zUCpIOm1deTrFxC9/rctA/V82Rs9jBzQ2fanWja6ba+N09wAesGIVEjufGYm1ioPsG1v40FljQ92ppkoFSTARGtQQccY3rUr9RsYBEVM9GVUEFQZ6gJV/+WlPNqlhBEpib6MSr80Wvcu9pq+nEOn1EFumZM6mpGYYGVlRbiuK1zXFZubm8J13UlNM8ncT68qAIhCY5DWUp5eVaDaS2tFx1BwfgbnvOu6YmVlJW03odiIlMBsQQhxSGWKHe8uXwnosZQXZZBpGcXxxypENB/1RySiI4BBIpKAQSKSINM10rzLcONk9UOkikxBklFrgTUbSGXzfshzakckAYNEJAGDRCQBg0QkAYNEJIFyQRo+lVxDsenMUVfBQbOY/ETz4YpaIrky3f4+cLaFEnoQIvqF0R3sTNmFSAVqjUhGDoV2d3Q08es0OM3isLJQpLrQcASbNAoNt3cTthPJoFaQ9Bp2BjlsJJTh0ms7fmWhHqrVnvfEctvCRs5/ivkgh2583haOcAJClIE2iA6EWkGCH6aJZbgcNItdlP21Qs5eH7t1/ynmRh3tWFEGZ6+Palh0wUS5CqIDoV6QfPpSHujvRUphOWgWLwBbrZE6CoXGIKyBJ2KL8fSlPNphSSEHe30QHQjlbjZopWD+VUBj0II+sPxNBuq7AAwNdQAoNDDY2UKlaECre3tUewIjWTLX0NgwoGlef4UCUIm/JylhdXU1rcmh++Mf/xj+nHZ8agXJbEGI1uhregs7JgAIxDcBSFjRqqO204r8zBWvR8XNmz9Na6IsZad2REcJg0QkAYNEJAGDROqyr0DTTvn/XUn8B/ehj2Fp30Vj3q+AjbzXKRQan6XtEfExg0SKcn6JQgnoiUcQ4hHEQMfDg3ryjn0FWukvuD7w30v8AZXOi5nClOmu3bzLcONk9UPH2MDB3bM6jOB3/ceoH0iN0M/QePt9VHuPIv0/i/p7b6JjtGDXr85U/z1TkGTUWmDNBpqJeR7V0kX8Z+Pb2K0/O7LJtk4h/OfG6iZE66Xx/Z1fomC8hbsAgFfRE1dh4jM0Ci/ijbv+rr1HaBm/R+fuq/hpPC36t1E5+yEeOoCpfwxLexeoAu32172+Iv2fvf4mp3akqpfQ8qdYmnYK0W+Lma1gCraJavvdhOuij2EZH6ISTNV6wNuNzwC7hTee3/T3fTT8x/voyDfiPv48GP786TeuQ4irMPExLOMtPN/z+nkPHzJIpLJnUd99BDF4E5+WImEKbwxcTP4esrOPT3Efbxj+zYPS+7j75/8FDB1n2xfHr33uOkh+dNZpfMMY/lz5D39kdPbx6dk3sRY8JKX+EwaJjgD9x3jv+mm0ux/HbkL8AdfPTtrp1eGNCvHIm/7pP8aueIT38MZwlNO/jcrZ94dPeQw4v0fn7tfx3IzXZQwSqcn+ZWTK9hk+7NzH2W/82+hNCOf36NxN2FdfxPN435vOJW2uf4DB9dP49OFn3qj301fRLkVvr3tTN1y3km806It4/u5buObv4DTezXazgejQmIv4s3YKWvB7dROi/iwAC9fffhGG9hZw9lVUE0ekl9AavImC8SK0NyL7l29DK73vv/AqesKfqplXIXredDFQ7T3C7sTbdS+h1XsVWukU2v7NBk0IIZKarq6u4p133gEAdLtdlMtlKXfb0u/a2bC0Ujj3LTQGh/JsJNsqYm9tBzU0Uby2hJ3I18jDbQd/GCfW6uoqv7Qqjxei4Hmwj/WAMaeJ4tjCQKKDoVSQnOYG2tUexh6WZ1soWhaKfl2G8ToNw6eae6/ZsIw6dtvD58Im1XbIXM/BaaIYqXCEpH5jx0ong1JBGjzYjSwNH7Xbz2FLtGAm1mkw0RLBU8376NomWoMGCtUexKR95qjn4Gx3kO9FRsoJNSPCY03rkI4NpW42GLkC+nsOYI5P5wqVZejROg3+qlhUl9DCYOS6qtob3TdpnzX0US0HCwBNlKsb2MN0em0LuaIGrVRFT7RgJB3L0vBYKZvV1bfTmihLqSDpyxXAuIDm8vQL+/gNCKdZ9K6rTO/nazPsA7uLdtdGyzRH6znoS8i3N9BcM71jcJrYaOex3sJwxa1//bWVS+6Xsrt582Zak0MR3Azb2tpCuVwGAFy+fDn1+JSa2nnluCroGKPVVkebbKHSMcLtlu0XOSl5vxv1Xb/hMip97xppkLAPzDU0+iX/tQvohO9gotXLox4cg9FBZeBN08LaekYd+bKZeCx0QokJVlZWhOu6wnVdsbm5KVzXndQ0E1n9EB2E4PwMznnXdcXKykrabkKtEYnoiGKQiCRgkIgkYJCIJGCQiCTI9O9IsmotyOqHSBWZgnQ43/4menLm/ZDn1I5IAgaJSAIGiUgCBolIAgaJSAIFgxRd7Tr+7e+DYltFeG81+v6aFrxONJliQVKkZkOhgUHwXFp/WcfErh7nfejYUCpIStZs0GvYahT8hzrP9z50/CkVJFVrNuhLef+nOd6HTgSlghTWbEgwVrPBX6nafjAYGSnCFbIRSfs4e/1IaE2Uq2O7jexfyBlzvQ+dDEoFSV+uAPULqRf3hcYgvIYSLRNOcyO8rho0CjPtoy/l/ekaRms2xNkWjDpQWdbneh86GZQKkho1GwDs1mEE10IloCe8YixzvQ+dDJPWoLNmA51ErNlA9AQxSEQSMEhEEjBIRBIwSEQSZFpqPu8y3DhZ/RCpIlOQZNRaYM0GUtm8H/Kc2hFJwCARScAgEUnAIBFJwCARSaBgkA6/ZoPTLM70PrO2o5Mn0+3vgxep2XCIS3n02g520hplaEcnj1Ij0sSaDdHnt2oatGChj9NE0WqiWQyq/Tj+zxnb2JY30jhNFKMjYfz3oN1Mx6NBKzbB8etkUCpIE2s22BaMB+vhytMeSsNFc+0OsBVU+7ng/SwGaPS7w+Ijs7QB4Gx3kO8NqxfFf890PGKABjrYZpJOBKWCNKlmw2h9BcAsV4ftquuo6QD0JeQLFSzrAKBjKd9H2NUsbfzVt7mNYQWg+O+Zjgc6lisAyzacDEoFaVLNhtH6CoDdbSO/NGe9u6l01Ha8CkAblp3wu9/q0I6HjgqlgjSxZoPZQg+l8LUSkq+jHld43WPUkS+bY7+HDul46AiZtAadNRvoJGLNBqIniEEikoBBIpKAQSKSgEEikiDTd+3mXYYbJ6sfIlVkCpKMWgus2UAqm/dDnlM7IgkYJCIJGCQiCRgkIgkYJCIJFAuSDUsrjj/60mmGTzSflW15/UTrLARPHC8WZ6+9EPTjrX4dPYJwG514mW5/H4oC0LlmoxZZl2Bf6wCFPOYxrLPgYA8NDEQNXDlEsik2IgHIr2MdG5FPehtdVFCJNEmslxAZcTTNQnf4IopNB7ZloN6uw9CKaDatsVEqugo2sZ9p4rUdkvq1LRQtK/PISkeDekECYJbz6GwHRUa6yK0tDzdOqpdgWyih579eBtqxPlsDNKoNDMQOakvDvjZy/lPIBzl0/QIn0/pJMlbbIalfALv9HLZEC1wDePwoGSSYa6h0rsGGjWudnF9jwTOpXsLo6ybK1fFu45y9PnbrRrgKtv1gMFc/8doOSf0CQKGyzGnlMaVmkKCjtg50rS6wPnpNM6lewujrDvb6Y50mKjQG4egmWubkfvQl5NuRKafTxEY7jyW/0Em8tkO8XzreFA0SANObVo1V55pUL8FcQ6MfvH4BnQndRum1LVQ6RtiXZU/rx0Srl0c9qCdhdFAZeNO0eG2HxH7peJu0Bp01G+gkYs0GoieIQSKSgEEikoBBIpKAQSKSINN37eZdhhsnqx8i2eYtgzBzkOZ9A6KTgFM7IgkYJCIJGCQiCRgkIgkYJCIJGCQiCRgkIgkYJCIJGCQiCRgkIgkYJCIJGCQiCRgkIgkYJCIJGCQiCRgkIgkYJCIJGCQiCRgkIgkYJCIJGCQiCRgkIgkYJCIJGCQiCRgkIgkYJCIJGCQiCRgkIgkYJCIJZn4axdbWVloTohNrpiCVy+W0JkQnGqd2RBJMHZEuX748bTMR+TQhhEhrRETTcWpHJAGDRCQBg0QkAYNEJMH/AzMhub0kiORWAAAAAElFTkSuQmCC;" vertex="1" parent="1">
          <mxGeometry x="1650" y="860" width="210" height="288" as="geometry" />
        </mxCell>
        <mxCell id="LYCwLjDnQvL3Gzslhouy-13" value="" style="group" vertex="1" connectable="0" parent="1">
          <mxGeometry x="1880.5" y="870" width="230" height="1301" as="geometry" />
        </mxCell>
        <mxCell id="LYCwLjDnQvL3Gzslhouy-10" value="" style="shape=image;verticalLabelPosition=bottom;labelBackgroundColor=#ffffff;verticalAlign=top;aspect=fixed;imageAspect=0;image=data:image/png,iVBORw0KGgoAAAANSUhEUgAAAM0AAAGYCAYAAADhiGaZAAAcdElEQVR4Xu3dP4gj6ZkG8EfHecGwsB04sHFgmC21QSha7AmkTS6YOUtK2sYj1tjQG/SqPLCcFHiC4Tq4QDDgsbFkOMYtg2lhR7XgVdIq7062oA4mGCeiYVvlSQ0X9RoHzuqC+qOqUv17u6ulr6XnBwvTUtWnGtCjKvXO+1TJtm0bRJTbv2VtQERhDA2REENDJMTQEAkxNERC/x594KOPPorfkmgH/f73v195bCU0APCrX/0q7mGinfKLX/wi9nFenhEJMTREQgwNkRBDQyTE0BAJMTREQgwNkZAwNG/w4uEe9vaC//XwMms3AMBL9Pb2sLf3EC/eZG2bx02OJcabF3h40zVoJwhC8xK9vffw9FXWdmvw5gUexh7LKR4VFkqiePlD8/IMpwCAD/HJ1RWu3P8++TBrx6K9wYufP4WTl+CxvMaz+wDwCk9//gLMDd2W/KHxneJ54KP8wWCAB8C1L5de9oLbh88S4ef28PDFG+DNZ/j0FQDcx7PX3msDwD08/t0zOLl5it++ROiYei/dy8OHXqC8y0X3+c9WDi3mGILHl7Y2bbP8oXnwX+4nOfDq6XvOm6iXFYlTPEoMjvOme3QafOwVnr7nvDHfvHgYec71ty+ds8z9H+I/70Weu6ehErMLAJw+eoTlcm/w4mHwZ+D0qXf2Cm6TfHxB4bVp2+UPDe7h8edXuApej50+CpxN3Of9y6VP4Gx5ASvu4/flb93vJMtLLGfpV/j0s+AOy+c/f3wPb6yLmMU87+K79xOe+vAT57g+f4x7/mvfx7PX7vFGrzNzH19kbdC2E4TG9WAQeZOd4uwlVi539vbyfvqe4pG7T/BT/d7jJ27ols/3XgL3NPdc8upTRN+7wUu3774bfurD1vJCzg9e8Gz17ncRn7f44wsKrk3bL39oXvac7xSewOXahfUGb148xymA+89eO6F6/SzhTRgV/sWCd0YBHmAQ+WXD6fMXeOO/7is8fS946Rf4BUHcpVvAMnhf4m/e3p99Grk88yQdH+2q/KEJfpfZ28Oe/yvf+/hh4B3qb/PzT9OWAh60Vs4ke4Ev08Ev4P4nfEXDveAX/tC+y+N59ruMy6SY134v+vvrjOOj3ZU/NLGXLx/ik6vP8fgecO/x7/wzj/PGfZL4pdzxAAP/18Q53H+G1wP3MujeY3wet+/9Z3jtHk+6BxiEzoQf4pOVM6Pw+GhnlKJlgR999BEnN4ncyc24cef8ZxoiAhgaIrnYYg3PZDJJe5poKx0cHKQ+nxoa5FiAaFu88847GI/HWZtlhwbuYjf11VdfFbIO0W346quvsjbx8TsNkRBDQySU6/LMIzmFeXhJRttGFJo0X375Zejnb3/723j77bcTtye6qwoJjWma+POffxJ67Hvf6+KnP33CMw1tnUK+03z88ccwDODXvwZ+9jPAMIDz8yH+/ve/Z+3qsjCs6zBjnjH1OoZWzBNEG1JIaDxf/zrwrW9lbUV0txUSmr/85S94/33gG98Avv994De/AX7wg1/iO9/5TtausUy9hFKphFJJB/9NAqmmkNCUy2X88Y9v8P77wB/+APzjH/+Dn/ykg7feeitr11WmjiamsG0btn0AjLJ2IFqvQkIT9KMfAf/61//iiy++yNo0lnU5R+eg4f7UwEEnYweiNSs8NH/9K/C1r/0HyuVy1qaxtP0qRhPvVwIWLucZOxCtWeGh2dsDbPv/8M9//jNr03iNJxjMm+53mkMYWdsTrVkh/58GAN5++238+Mf/jT/96Qt88MEvhWcaDd3ZSeDPNroZexBtSmGheeutt/DBBx/j6upn+BZ/70xbTBSarP+7/8477+Cb3/xm6jZEd13h32mIth1DQyTE0BAJ5fpOc505mjhFrUO0SblCk/ULgDzYEUAqk3yg8/KMSIihIRJiaIiEGBoiIYaGSEih0FgY1r2JzRJKpXzdALk7BKwh6pE1c++bxhqirse1G9C2UiQ0JvRSGUZ74U5s2rAXbRjlAt7UQTXAOByiyCVp96gRGnOCUWeKWVdbPqZ1MR4AxpkFmDrquo56yWmsSeoQCD5uOg+E9kP1GOO2gefRE4Opox5Ip38Gsoao60P3DFjH0AqcDUNnl8vl4/VlKDOPh+4kJUJjXc5Rq6zO32j7VZxfLAAA5/MKxvYJGkkdAqaOfsU9Uy0qmLgh8Pfz1uyOUekL3rQjAxh7Z75D58/2AoP5ZLmGt41tY9E2cDi0ch8P3T1KhCYYjqBgmGrtFrSUDgHrco7zXtn5ZC/3MHLX8/Zb0tA9Bvp5r/s6x+hqALR9VGtttDQA0LBfnePSimzj/l0gOh66a5QIDRoH6IyaoUskmDrKvSqOu5G3fEqHQG0Q+E50kvJZ3jjB8cUh+t6+5QpgnLmXVSYm0gac+eXykmwyQnXfOebcx0N3ihqhQQMn9hRV75O5VEKpCUzjLmMSOgS07hhtY7l/1i+0Gk/awLm3cwtt9FAulVAqTQBxA46BQ/d1m5jipCE/HrpD7IijoyP76urKvrq6sk9PT+2rq6voJtdS1DpEt8F7f3rv+aurK/vo6Ch2W0XONER3B0NDJMTQEAkxNERCDA2RUK5xZ8koaJqi1iHapFyhKWK2nx0BpDLJBzovz4iEGBoiIYaGSIihIRJiaIiEFArNLXcEhCYpS+ExBCIBRUKzho6A0MSn7YxWZ5ViZD1PO0mN0KyjI6BcQW0UGFGGCb3cw/mo6W5vQi8F9488n9YjwLPXTlEiNGvpCNC6mC0q6PulGA2cLAaodaaw7RM00MCJexZaDOaYmNHn41lnBqrTwNmLtp4SoVlbR4DWxcy2saj0I20ycC8RnTNGuXeOvJyijsDZjbaeEqFZd0eAtl8NzfUDgDXsA1PvTFNb3SmxR8C5G7W9qKDP7z87QY3QrKMjwNQDa88xGHehaS205853lsV+FaNm5EwTeN5M6BGwhnX/7FY9YHnGTojOP7MjgHYROwKIbhFDQyTE0BAJMTREQgwNkVCucWfJKGiaotYh2qRcoSlitp8dAaQyyQc6L8+IhBgaIiGGhkiIoSESYmiIhBQKzW13BAQnM/OvTxSlSGjW0BEAALUBFqH1U27rx34ASqBGaNbRERB9Ta2L8aDmDrRl9APErU07S4nQrKUjYGX15e3LkdUPkLA27SYlQrO2joDE9dP7AZLWpt2kRGjW3REAeOsD7ZaW3Q8gXZu2mhqhWUdHAACcezP+3vozdDU3iCn9AIs8a9PuiM4/syOAdhE7AohuEUNDJMTQEAkxNERCDA2RUK5xZ8koaJqi1iHapFyhKWK2nx0BpDLJBzovz4iEGBoiIYaGSIihIRJiaIiEFArNbXcEBKcvb/NOzOwi2HaKhGYNHQGhiU/3TsxZPQBZzydhF8FWUyM06+gIKFdQG00C8/3RHoCMngBTD52d/DOcNUQ97ezFLoKto0Ro1tIRoHUxW1TQL5Xc26FHegCyegJWjs5hnRmoTgNnrxjsItguSoRmbR0BWhcz28ai0neDE5TeE5BE645R6aefGdhFsF2UCM26OwK0/Sowv0TwczyzJ6BcAYwzdx8TE+8MBw3dmXNm6Md9N2EXwdZRIzTr6Agw9cDacwzGXWjBHoCMngBTa6ENr2NgAnhnuGHdPzNUvTMguwi2W3T+mR0BtIvYEUB0ixgaIiGGhkiIoSESYmiIhHKNO0tGQdMUtQ7RJuUKTRGz/ewIIJVJPtB5eUYkxNAQCTE0REIMDZEQQ0MkpExocs/vx44HR/sFbjD5GJnQJIpSIzRx8/si7kyLvcCg1sHUtpOnLTmTTzekRmhW5vdXP/HDrTOXyzNLfYik84I/6+KPOGf1AhBlUyM0K/P7GUYGMHYnINsGDuMup0wd5Ytj/+w1RRP6ytx/dGY/7sWIwtQIDbLm9yM6x/Cu4JalFWHhLgGgcdDB/DIaruv1AtBuUyc0Ln9+P3EmH6H5fnMyQnV/9TtQuEsgfrs8M/tEUWqEJml+P2Ym32Hg0N2+iSli+ycaJ5ii6a/rb5fVC0CUIdc/2Lx1jRPY9knkQec3Yt2VjbuYzVYfdWjozpbrNE5srCwbWXf1dU8wYwkMpVDjTEN0hzA0REIMDZEQQ0MkxNAQCeX67ZlkFDRNUesQbVKu0BQx28+OAFKZ5AOdl2dEQgwNkRBDQyTE0BAJMTREQsqEZqUjIGEs2RrWrzXDf939wndkzjkkR1st16+cb53fERD458UJ72+tO8Ms/qlU190PAFAbYDHrQtpcQNtJjTNNXEcAEN8F4HUHWEPU9eHq80mPZ+0XOtvp0EOdBKuC25opj9H2USM0SR0BfhfAAgMYOIu+iZO6ArI6BOLWDTXiHADBSdHAjWedfg4d/Yp7F+ZFBZOhFf8YbSU1QoOEjgC/C0BDqw1cLCL7JHUFZHUIxKwb7hRo4CA4KVobYOEWcJw0nG3PvTtRl3sYXSxiH6PtpE5oXH5HQNaGSOkKyNEhEBXuFLBwOU/fvjZY+E03tjtvHfcYbR81QhPXEZC1D5DSFZCjQyCq8QSDudcpcAgjZVOtO0bbKPvHrJvxj9GWit4j/ejoyL+PundP9SIUtY5vMbBrnWn+x0Wmdgcd+6ar0N3hvT+99/zV1ZV9dHQUu60aZxoVWEPU/f8f0wSmCbW2tPPU+P8016F1MVtpmkl5PIvWxcxOarkhWuKZhkiIoSESYmiIhHJ9p5GMgqYpah2iTcoVmiJm+9kRQCqTfKDz8oxIiKEhEmJoiIQYGiIhhoZISJnQrHQEbAw7ASidGqEJTU3amHXzDQYUJlriERg641wMRakRmriOAG+m3//RndmXdgO4TTQrZw5TR13XnX/ZXO7hfNRMne1nJwB51AhNUkdAEkk3gKmjfHHsn8WmaPoDYufzCsa2DXsxQK0zhW274wDsBKAUaoQGCR0BSQTdAOHZf6Bx0MH80nmD19qt+AlRdgJQCnVC4/I7AsoVwDhzL7FMTILtMIJugPDsf/7OgCh2ApBHjdDEdQRoLbThXSZNgGA7jKQboHGCKZr++rGdAVoL7Xnydxp2AlBIdP5Z+Y6AW+0GoF3FjgCiW5RrNEApRXcDEAnxTEMkxNAQCTE0REK5vtNIRkHTFLUO0SblCk0Rs/3sCCCVST7QeXlGJMTQEAkxNERCDA2REENDJKRAaKzltKX/3zUnISPTntawvuG+AdpGCoRGQ3fm3mm51sHUtpcTlFHRWf5UJp4bCMzkrJnoWOkuUSA08Vbn+k3ooVn+YGtMzJnJnGDeHmPcNvDcv/9ssEegjqEVOMsF3uCJnQK5Owuix0rbRM3QxM71N3ASmuVv4MR9fjGYYxJ5Z5qTOdotDVqrjXnwSa9HYNGGUT50OwUWGMzdYo+UToFEfjfBAgMYOLOix0rbRMnQpM31Ly3PNOXe+cpzk9E5emWvaSbQdOP1CGj7qNbaaGkAoGG/Osellfe1I/xuAg2tNsC6gO2mZGjyzPVbwz4w9c40tfAC5gTzwPx+3JkoSeJrp3UW0E5RMjSJc/2BWf7FfhWjZvyZxrs086xcoqVJe+3EzoIYGb0DdIdF55+V7wggugXsCCC6RQwNkRBDQyTE0BAJMTREQrnGnSWjoGmKWodok3KFpojZfnYEkMokH+i8PCMSYmiIhBgaIiGGhkiIoSESUiQ0wSnMnDerzXCjfgBriHrJncx0+ZOatPMUCU3w5rBTdEb9G79Bte4Ms6783pq+GmAcDjfTL0BKUyc0IVV4M2emvtoDEJzhX47wR7YzddSHJob1wBnCGqJed4IQu72uo+79XD0O9wv4YroJcnYPxP1d6O5RJzTnywGvA2+u3tTRr7gTmIsKJkMLsIY4NNqhW5bHbgcAKKN7XIVx5vxsnRmoHnehJWx/Pq9gHJjp17pjVPrRN3hCN0GO7oH4Y6S7Rp3QuJdni8EcffcNZV3Ocd5z76Bc7mF0sVi+8QO7xm3naxygapzBgoWzizaeNJK3r7VbCF/Qaegewz8eR0I3QY7ugcRjpDtFndC4nFuNP/c/3WuBWX/7pLEyw++JbrfUwJO2gef6cxiVZSiSt49onOD44hD9ufNjajdBhtyvSUpTLjTep3uzPgS6Y7SNcvj7S2SGXze9oEW2C67YamM+Ao7dXwxkbR/VeNIG3JOKltJNkEb6mqSw6PwzOwJoF7EjgOgWMTREQgwNkRBDQyTE0BAJ5Rp3loyCpilqHaJNyhWaImb72RFAKpN8oPPyjEiIoSESYmiIhBgaIiGGhkhIkdAo1hHgylojqTeAfQLbTZHQKNgRABPPDQTus0nkUCc0IQp0BJgTzNvjlZ6A4H4TZDweWXPlNa0h6u7fo+6Ocod+JiWpExrFOgK8m92GbnJr6mhi6k5fHgDeHZ6THg+uGfOa1pmBqjsFOutqKz+TmtQJjVIdASYmo3P0ys7z5yOnHMO6nKNz4I0pN3DQWb5+3OPBNeNe0ynuWJ55oj+TmtQJjUuJjgBzgnngea91JvzaFi7d3oCkx6NWX1NDd+acefq6GfMzqUi50KjQEeBdmoX2n5hA4wkGc++1D2F4GyQ9HhD3mv53s3IP1YPGys+kqOj8MzsCaBexI4DoFjE0REIMDZEQQ0MkxNAQCeUad5aMgqYpah2iTcoVmiJm+9kRQCqTfKDz8oxIiKEhEmJoiIQYGiIhhoZISJHQqNYREDme+s1ujX6zYyHVKBIaBTsC/OOxMa32cHiDA7rxsZBS1AlNiAIdAQGNgw7OLxYr2wSPwzk7WvGvZ+rLDgB9iGF99QyW6+9ESlAnNIp1BASZkxFqlXJ4G1NH+eLYn8Scognd1OJfL7jYyADGNmx7gQEMnFkQ/p1o09QJjVIdAcEQl9DE1L+8Cs78dwLTlY2DDuaXVuzrhXSO4SylodUGLhbx4Ur9O9FGqRMalxIdAQh/p4l7Pnoc5mSE6r6W+Hpp5H8n2iTlQqNCR0AukeNoYgrvfR19vUzX+DvRBkXnn9kRQLuIHQFEt4ihIRJiaIiEGBoiIYaGSCjXuLNkFDRNUesQbVKu0BQx28+OAFKZ5AOdl2dEQgwNkRBDQyTE0BAJMTREQoqERvGOgNJyGlO6rnR7Up8ioVG7I8BetGGUvX+yn7CuNUQ9Juypx5GwD6lNndCEqNURAK2L8aDmDIoF5/3dY6gPh9DLPZyPms56wbW87VeO2wzvE31NUpY6oVG4IwDudGWQdWagOnWOYdbt4mQxQK0zhe3uv7LWynE3Vvahu0Gd0KjWERBhXc79cg2405+VfnJTTHSt2JINupPUCY1LmY6AIFNHuYfQbdIBDd2Zc6bq5/heknTcdPcoFxplOgICbTSlJjC1Zwh+n/e/n5R7qB40AK2F9jzl+0nMcWfuQ2qKzj+zI4B2ETsCiG4RQ0MkxNAQCTE0REIMDZFQrnFnyShomqLWIdqkXKEpYrafHQGkMskHOi/PiIQYGiIhhoZIiKEhEmJoiIQUCY1qHQFYOab60CpgTdoGioRGtY4AE7ozD+DP3My62nJNzvbvNHVCE7LZjoDhsI9RZ3kPTZ+pR/oA6qgH14cJ3V2ftpc6oVGoI2D/4jx0u/OwVmC2f4ZZcP1hH+BI89ZTJzQKdQSUKzXML3OeL4LrG1UkZo22hjqhcanQEaC12kDvMOf3qgaetC9wZp7hov2ErTI7QLnQKNERoHUxcwsCg789CywYmu3XWhUYTQOVFi/MdkJ0/pkdAdcw7djoTLO2IoWxI2BtLAzrbltNVg0UbY1cowGUxOk+62ZtRluFZxoiIYaGSIihIRLK9Z1GMgqapqh1iDYpV2iKmO1nRwCpTPKBzsszIiGGhkiIoSESYmiIhBgaIiFFQqNaR0DkeLxpTI45kzqhUa0jIHg8NqbVHg5vekC0NdQJTchmOwKi55LGQQfn/jTopfMvm4NnoMgx+WdKa4i6PozdPu7vRXeDOqFRqCNgpU9jMlreDn1kAGMbtr3AAAbOLPfuzxfH/iToFM3lYFvC9vHHS3eBOqFRqCMACN/duYnp8lKvc+ze5VlDqw1cLJz1gkUcjYPOsmMgYfvE4yXlqRMalwodAe4G/tks9vmA6DGZkxGq++nfpzJfn5SlXGiU6AiQihxTEzGdaQGFvz6tV3T+mR0BtIvYEUB0ixgaIiGGhkiIoSESYmiIhHKNO0tGQdMUtQ7RJuUKTRGz/ewIIJVJPtB5eUYkxNAQCTE0REIMDZEQQ0MkpEZorCHqpXpoxNnU6zceeSa6DWqEBgBqgHEouJ04Sy5oQ9QJTfUY47aB5zE5WJ2/N6GXezgfLe97yZl7Whd1QuMOZ1X6kTd97Px9AyeLAWqdKWz7BA3O3NMaKRUab2qzH3jTp87fB7bhzD2ti2KhcUaHjy8O0Z87P+adv+fMPa2LeqEB0HjSBs69HxLm77UW2nPnO82CM/e0Rrn+weat07qYnUR+tpf3TG6c2LCDzzsbhe6s3OBdlmlNlDzTEKmMoSESYmiIhBgaIiGGhkgo12/PJKOgaYpah2iTcoWmiNl+dgSQyiQf6Lw8IxJiaIiEGBoiIYaGSIihIRJSKDQmdG86s1RCXclBMgvDevxkKDsNdocioTGhl5rA1PZnYvwbw+bBvgBaIyVCYw37GHVi7lNp6qEzjv9pbg1R989Iw5W+gNVOAS9YQwzrJZRKdQwty/1zYJu4rgFTR13XUY/pHghuOwHtCiVCs7g4D400Z7HODFSn3hmpu9IXsNop4O44MoCxDXvRhlE+dP5sLzCYT/yAxHUNnM8rGNsnCB2hqaOJqfs6B8Ao5kBpKykRmnKltjL3n8Yp4IhvnkntFOgco6sB0PZRrbXR0gBAw351jksruWug1l7eSj3+dRo46IB2hBKh0VptoHe4+kW6XAGMM7cLzcTE/zR3pjbtRQX9yHeZvJ0CSfJ2DYRfx8LlPHFT2jJKhAZaF7NFG0Y58tszrYU2eiiXSiiVJoD7ae5/Zyn3UD1ohPoCzKROgRw0SddA4wkGc+91DmGkbEpbJnqP9KOjI/8+6t491YtQ1DpEt8F7f3rv+aurK/vo6Ch2WzXONER3CENDJMTQEAkxNERCDA2RUK5xZ8koaJqi1iHapFyhKWK2nx0BpDLJBzovz4iEGBoiIYaGSIihIRJiaIiEFArNZjoCQtOgkX/WzLl/iqNIaG7YERDEvgC6ZUqEJrUjIDCfvzK/Hzo76TBhrvQFrO5zjdn+UCeBOxIn6BKg7aJEaNI6Avz5/Nj5/QZO3DPTYjDHxGys9AWs7HON2f5wJ4Em6xKgraNEaNI6Arz5/Pj5/eWZptw7R1TcPteZ7Y92Eki6BGj7KBGaxI6AiOj8vjXs+9+DFoNarn0SZ/u1fVRH/eUxWEP0R1Xsu+Ub0U6CvF0CtH2UCE1iR0Bok9X5fW2/ilEzcqYJ9AUs4mb+E2f7GziZVtHzjqFsoL1wLrWinQSiLgHaPtH5Z3YE0C5iRwDRLWJoiIQYGiIhhoZIiKEhEso17iwZBU1T1DpEm5QrNEXM9rMjgFQm+UDn5RmREENDJMTQEAkxNERCDA2RkEKh2XBHQOT1nTtAZ+1Nu0iR0CjSEVAbYOHNyLijColL3eR16E5TIjRKdgRoXYwHNXdg7XqvQ9tJidCo2hGg7VfdP13jdWhrKREaVTsCrMs5apXytV6HtpcSoVGiIyDK1FHuAe2Wdq3Xoe2lRGjU6AgAcN5D2fvu0gSm9gxd7ZqvQ9srOv/MjgDaRewIILpFDA2REENDJMTQEAn9P3TYCdKPNMMiAAAAAElFTkSuQmCC;" vertex="1" parent="LYCwLjDnQvL3Gzslhouy-13">
          <mxGeometry x="19.5" width="205" height="408" as="geometry" />
        </mxCell>
        <mxCell id="LYCwLjDnQvL3Gzslhouy-11" value="" style="shape=image;verticalLabelPosition=bottom;labelBackgroundColor=#ffffff;verticalAlign=top;aspect=fixed;imageAspect=0;image=data:image/png,iVBORw0KGgoAAAANSUhEUgAAANkAAAIKCAYAAACui+reAAAgAElEQVR4Xu3dP5Kq2v89/OVTv/w7CTCwGIGOAE2MSDs5JSEmJ+vQ7CQSanQ7JTJRRqAjoDoQBtGfEfAEAvJng9LNbtm6XlW36rSNW84t193Qt99LxD/058+f+OvrK/76+or/+++/+Ovr69ZT7tLVOkQypO/P9D3/9fUV//nzR3js/wcikoohI5Ls/9064Dv+97//3TrkLl2tQ/RIUkL2f//3f7cOuel///tfJ+sQydBmA+DlIpFkDBmRZAwZkWQMGZFkDBmRZAqHzIc9GGCQ/DNxo1tPeIAI7sSGL/iOb0/Qy1OmzikaMh/2YAocYsTx5Z+jo9160lXkYmKL3vpE3VMyZJG7wnZxwMYsfcO3CztatltELibZjufC1pc4bacYDC67TOROsh1xkIYvcjGxXbiTAQaDCdwoSv6cOwaAb6e7abJj+TYmto3JoLqD5Y/dgV6FkiELP09YzMsJqxftPRiHdMdzsAnXGC8OiOMNTN+G/vme7YgHTJFlaOsBHzHi0IKnv13+HIdYB7ssUKtReHluOMIuCfgpGOEj3qBwhr6NKQ7J68yBreBE6SkpGTJ9NEZwvv+GRnM+MFrldpuc6BwUAmvOF9e1F+9wNADaEMbYwkwDAA1DI8A5ujz3tNQvu5O+xPYzBACMrRnKF6/F1zExX4BehJIh02YWsHyr/uBAHwHeHpeHfeyy3UKDc7zsNqvSvZg2NLDd5S7/dlsYw/vv78brMNsF48r161XxdSKcg9pD6ckoGTJoDo6hBU8v/XRRm8HCEvpggMFgByS7RXbPpS9hzM3LcUFyT2ZucMA0W2cKwb1eDc35gOXp2XMbf5Zi/sU6SF/nDV7DofRkhFNmLXBok14RhzaJeoQhI5KMISOSjCEjkowhI5JMSv1Am9HsJl2tQ/RIUkLWRTcHOz6oz9psALxcJJKMISOSjCEjkowhI5KMISOSTOGQPabjozBtXfq1e/Z2kIiiIfthx0ce+z5IMiVD1tjxkevXqPRvFHY/Gz78St9H9Tnf6OYodIokI6QtukDouSgZsqaOj6xfQ9i/YWKT7HzhOsDONyt9H5XnfKObo9gporXrAqGno2TImjo+0n4Ncf/GdSfTl6fKc0XP+U43R7lTpE0XCD0fJUNW2/FRUu7fiNxVdh8Xrsd3Pae2m0MbwtiurucQuVhtDQyTsp1yp8i9XSD0fJQMWW3HR+GQav+GNjSwnZZ2slzfRyjq7Kjt5jCxORhYpuege7DCy6VfuVOkVRcIPR9hKUEL7PigV8SOD6IeYciIJGPIiCRjyIgkY8iIJJNSP9BmNLtJV+sQPZKUkHXRzcGOD+qzNhsALxeJJGPIiCRjyIgkY8iIJGPIiCRTOGQP7vgovf5gwH4PElM0ZD3p+BivEaYzYsnoTe1SP3kdUpqSIetlx4fm4GM9TgY8v/c69JyUDFlfOz60oZH86RuvQ09LyZD1teMjOgcYj/RvvQ49LyVD1ouOjzLfhr4ErJn2rdeh56VkyPrR8QHgtISe3ntNgUN8hKN983XoeQlLCVpgxwe9InZ8EPUIQ0YkGUNGJBlDRiQZQ0YkmZT6gTaj2U26WofokaSErItuDnZ8UJ+12QB4uUgkGUNGJBlDRiQZQ0YkGUNGJJmyIbtOFie/gV8z3h+5k1/r/xCpnCe9HDVDVphWbu730Jzj9/s/viMfdtF53ur6uPV9Uo6aIdNHGG93gm6MM9xJsnNMXFxKpezcTudWv194fAI3iq7H5N7slU4O4XqlLo/KeZa7Pm50gaTnnp1D0ogVuZhwd1SGmiHTHBzDEValIGDrAR8x4jjEGh725fdf9v0YoeXhLX2Dpo+HFjz97bpGkASkrpOj8nqlLo/KeZa+f6sLBGLR3oNxuL2LUz+oGTIkQYtjhKPVNWiLd1zecxpmFlCpzsi+ny+9yT2uDWGMLcySNYZGgHPU0Mlx6/VQc56Z5i6QOprzgdGKTVeqUDdkCW1oAMEZd1005Y7zd1sYw/t3gZ92cojO82YXiD4CvH3yHB+7rClLg3O87Kor3r/1npoh8+3sJ3aDaYD1h4P74uLhLXneFILexhqivpD6g69dHr7oPPNdHze6QHxtBgtpj8gOSJqyIneS7apGTTUe9YiwlKAFZTo+wnU8XhxuHUV0F3Z8EPWIlFGXXtIcHDe3DiLqHncyIskYMiLJGDIiyaTck7UZzW7S1TpEjyQlZF10c7Djg/qszQbAy0UiyRgyIskYMiLJGDIiyRgyIskUDZkPezCpfpxt5GIidcYqNzVdmGjuRjp93cX0SjZFTQ+naMgAjAHvX/Hd6P/zAPFHNHckmeOKQ6zHCxziuHGCuZ0IZ6wRxvHdIzikBnVDZrzjHavcf6197GDByh2SzV3lawrquj4qPR4R3MmksL6dOzbj25jYdrKDljs7Gl6v1NPh2zqW2yX0ZIeudIoUXkfw/dJju/J50sOoGzIA5tyAlxR5RO4Oo7+z6zd9G/rnezbNfMD0ehkm6gKp9HgAznt+/RXwLh4OPQUjfAg7O+pfr9zTYW5CrBdrhPERTijuFMleR9Q5UmjGmgPZFDU9mtIhg/kXlvcPPnz880ZJN8dFdA6wyE0Nm/MFgnOyDwm6OYQ9HuYchrdHhAh7z0DdEPLYmiXhq+nsELxeU09HXadI+jqi7xf/vibmC1BPqB0yaHDegZ29q+wy2tDAdnd9+97T6VHt8TDx1/rE3t/j0/p7897rZmdHQXNPx61OkfL3i3/fCOeg8hR6EMVDBsC8XBpVdhlzgwOm2T3ZrU6Puh4PbTaCN/UwmjUHFGmwy50dNZp6Om51igi/b/7FOkj/vm/wQL0hLCVoQZmOj+86LGKwG4RK2PHRieT/iU2BA3+mTj8gZdTlOVzumZxbhxHdwJ2MSDKGjEgyhoxIMin3ZG1Gs5t0tQ7RI0kJWRfdHOz4oD5rswHwcpFIMoaMSDKGjEgyhoxIMoaMSDI1Qxa5mJR+Nb1tp0Xb45tka3VwXvR81AyZbIKwEH3X84Xszg6PawdGuZfDh60vcdpOs6nlTvo0Sp0eEK1b6vGg5/B8IUO+UyNGaHl4a+zAKPdymNiEa4wXh0sTVUd9GuVOj2qnSKnH49aCpIznDFnWqXGZVkal8yPfgVHTy5Hoqk+j3Olxq8eDnoeaIdOGMLa5OrjIxWprIKvwCM7XS8Sk26OuA+OeXo67+zQaz6va6XGrx4Oeg5ohg4nNwcBST+5pdA9WmL/E8vBW7vao6cAQ9nJoM1jB5Z4sbNWnUX9e5U6PWz0e9ESEpQQt9K7jI1zHY3ZykGTs+CDqESmjLg+lOThubh1E9Hu4kxFJxpARScaQEUkm5Z6szWh2k67WIXokKSHropuDHR/UZ202AF4uEknGkBFJxpARScaQEUnGkBFJpmbIOujSaHt8k+ta+SnrAQaD7l6D1KVmyGT7ScfHeI0wnRELLXh6wxjLT16HlPF8IetTx4fm4GM9TgY8v/c6pL7nCxn61fGR1h9863XoKTxnyHrU8RGdA4xH+rdeh56DmiHra8dHmW9DXwLWTPvW69BzUDNkve34AHBaQk/vvabAIT7C0b75OvQchKUELbDjg14ROz6IekTKqMtDseODeoY7GZFkDBmRZAwZkWRS7snajGY36WodokeSErIuujnY8UF91mYD4OUikWQMGZFkDBmRZAwZkWQMGZFkCoYsuk495yaNXXeCSd2g47fG/CO4E/GEcpf9IPT8FAxZ8tnLcYj1eIFDHCOON3CcI47ODz/S/FthJGqmYMhq+Ha2k2WfzyyYy/LtAQbJg8VOjWrnRuV5tzo9iASeJ2SpyMWbZ2WNUfkBY98eYDdPpo4rnRp6sXMjv2aLTg+isqcLWbT3YLw7qFw4bqdYjcIsdG06Ndp0ehCVPV3Iiv0bOYsDPvBW+OHIvZ0ad3d6EAk8XchgbnDAVHhPpjlHvH/qGExcQNSpkevcKMS0qdOD6BZhKUELvev4IPoF7Pgg6hGGjEgyhoxIMoaMSDKGjEgyKfUDbUazm3S1DtEjSQlZF90c7PigPmuzAfBykUgyhoxIMoaMSDKGjEgyhoxIMkVDdv385cHgOunclesU9KC+N4ToTlJ+hP8rxmuER8Fw5k9lU9D8zGbqhqI7mYBvY2LbmCSzYPmej2yni1xMbDdpu5rAjXLNV+kx+gjj7a7S8SFcL9crgnyLVcO5XJ+a7xehZ6ZuyHIfgJ6+cU/BCB/xBqZvQ/98z6aeD5hehze3HvARIw4tePrb5c9xiHWQBEtzcAxHWJXCVLtejexcRJ0jlX4RXpI+M3VDNl5XynLG1gxapZMDMOcLBOfkjbx4h6MB0IYwxhZmGgBoGBoB0kOgOTjGMcLRCgPbb16vRnYugs6RNv0ipD51Q9ag3PPh77Ywhu3v3rShAQRnoG49fQR4e1zi5mMnaLGq6xy5t1+E1PeUISv3fExxwN3vY9++3ntNA6w/HGh162kzWEgvW3eAqMVK0DmiifpF6HkJSwlaYMcHvSJ2fBD1CENGJBlDRiQZQ0YkGUNGJJmU311sM5rdpKt1iB5JSsi66OZgxwf1WZsNgJeLRJIxZESSMWREkjFkRJIxZESSKRuyLns4sonmRrkp6kE6WX3rOfeujWR98ZT0/WtQH6kZsqyH4zKPdXTaz4q148Me6PCs3AxYaMHT+ean29QMWU0PR6U3o9DpMcBg4iISHLvLrSHu8thhuzgUw6w5+FgD3j6qdHrUrV05v9Lz8urWIPWoGbKaHg5hb0ba6RGHWMPDPirvhHMgnWiu6fKIzgHGI716GkMDp6Q6IN8vUre26Pyy5+UXrluDlKRmyCDu4RD2ZqSdHtAws4DPsNwBYmKeTDTXdXnkw5SXD5+4X6S4tuj80ueV1xWtQWpSN2SJtIcjbNGbUezdiHAORI/nujzMORbbafEHLL4NfWngvXQ/WLc2Ojg/UpOaIRP0cJhtejPMv1gHae/GG7zs8bpuEBOb+ABjqedeFziUL/Ma1m7V61F3fqQmYSlBC+z4oFfEjg+iHmHIiCRjyIgkY8iIJGPIiCSTUj/QZjS7SVfrED2SlJB10c3Bjg/qszYbAC8XiSRjyIgkY8iIJGPIiCRjyIgkUzZkXXZ8XPiwB12vSSTpR/jSZZPD935G7Z0WB35+M3VOzZ2s0vERwZ3kS2182BMXUUPHR77Lo3a2K9/BUerjEHeB1Hd20OtSM2SVjg8NzrtxKbUBELkr4N25jPWLOj4iF2+ehTCZUs42r206KHkNbL6DI9/jIeoCKR9PBGVDhmrHB8w5DG+PCBH2noGsIkPU8bH3YKQhzFuk5TVHpK0C+Q4OcY/HtQukfDwRlA5ZIu34iGDir/WJvb/Hp/W3cScpd3m0VdsFQiSgZsgEHR8aAG02gjf1MJrdeMOXujyye7Lt9bHGny7WdoEQCQhLCVroVcfHYRFjcbh1FNGPvWDHR9JTPwUO3FKoZ9T8/2QVGpxjDOfWYUQP8CQ7GVF/MWREkjFkRJJJuSdrM5rdpKt1iB5JSsi66OZgxwf1WZsNgJeLRJIxZESSMWREkjFkRJIxZESSKRky3y5NQQ8EU9GC50XupPm36yMXk8aPwCRqT8mQ6aPL8CUAIDoD49zX/g5BzeCk5hxxdL4x98Xw0Q8oGTJtZiFIhiajvQdY16/9XQArmSe7NlolnRu+ne1k+e/ZhZ3xXOoE8WHrS5y20+s6RC0oGTJoM1jBDn5aNeDMYOGMCBHOgYGhdgnUahRe6gTCEXb5y8Ss7SpGHM+BbW7tSieIiU24xnhxQMzuDvoGNUMGDUMjwDkK8WnMYULDEB72/h6eMYeZ9HCclvplR9KX2GbXk+WODhPzRW5pQScI0U8oGjLAnBvw3lYIRvr165UHI1dwM16HWaNUvk+x2NER4RxUlifqjLIhgzmHcUJ2/wV9BJyAJHPQnA9Yni7uVjT/Yh2kHR1v8IQvkKPNYAW8J6PvkfILwr/DxCbfIKw5OMb52WjRtPQGx+Qp1+/5sAe7y30cHBw3+SWP2NSuRXQfdXeyn4hcTLLe+ylw4A80SB6Fd7IfqOx6RPK85k5G9IsYMiLJGDIiyaTck7UZzW7S1TpEjyQlZF10c7Djg/qszQbAy0UiyRgyIskYMiLJGDIiyRgyIskUDll0nWAufZh68bDvVgf4sAe59b+1BpGyIfNhD3R4Vm5eLLTg6UnQvh2skvEaoWAejagNNUPm77BdHIqlOJqDjzXg7V1BJ0e5tyNZRtQBYtuYNMyNVZ5T8xhRSsmQRecA43Q6M0cbGjh9DqudHJXejvoOkFMwwkf6vNMSen7oU/Scpi4RIlVDdglTtXyjLnyi3o66DpBxvk4ud7m4McXPaeoSIYKqIYM5x2I7LRaV+jb0pYH3Fr2KdR0gTUTP+c469DrUDBlMbOIDjOW1w2MwBQ7pZd4dnRyNHSAtnvOddejFxD/058+f+OvrK/76+or/+++/+Ovr69ZT7tLVOkQypO/P9D3/9fUV//nzR3isojsZkToYMiLJGDIiyRgyIskYMiLJpNQPtBnNbtLVOkSPJCVkXXRzsOOD+qzNBsDLRSLJGDIiyRgyIskYMiLJGDIiyRQOWbGDY/ILw5KRO7nrde49jl6DlB/hy+fDvsy2IP7F8S3NOeJ466AWx9FrUHIni9wVtosDRPORkTupNkxFLia2m/R8TOBGuaarNsf49mWHyn1Sp/Dr9Li7zqfYO0LPR8mQhZ8nLOaChPk29M/3bEr5gOl1iDLt+QgtePrbtfMj2F0HO+85BkC092AcLq9xdLTK163OJ987Qk9JyZDpozGCc/VdGZ2DQvjM+eJ6XNrzoQ1hjC3Mks6PoREgW+qeY5IJ6dHq2k5V/rrV+eR6R+g5KRkybWYBy7dKmak2NLDdXd/m/m4LY3h/58f9NDjHSzvVyvYFXydH/dr5UJ8pGTJoDo6hBU8v/XTR3OCAafbYFOL7tp/K7rP0JYy5Wfk680vnQz0nLCVogR0f9IrY8UHUIwwZkWQMGZFkDBmRZAwZkWRSfnexzWh2k67WIXokKSHropuDHR/UZ202AF4uEknGkBFJxpARScaQEUnGkBFJpmTIfHtSHHOJXEy6mC6OXEy+9VGZEdyJ+FM9K+dKL0fJkJlzA15ulDjae0D+A9WJekTJkMGcw/D2yc4VYe9dPpBd2KeR69tAaWfJH3/dwM7C7g3fTmfXkh3LtzGxbUwEn0udP3YHenVqhgwm5kbSixHt4RlzmE19GiKRizfPQpgcnw1Tiro3fBurUXhZOxxhl6T0FIzwkX4YfMq3McUhOY85sBW9OL0SRUN2vWSM9t5lOrmpT0Mg2nsw3p3qJaageyM6Bzgt9Wz6eZsUcowFl6jF8zAxX5RfgF6NsiG7XDL+wz/PwNxs6NPQR0B2aeljl+ws5eNvGa/DbJeMGzoEiutGOAe1h9KLUDdkMDE3ttga88vlWl2fhjaDhSX0wQCDwQ5Id5bS8U2XlprzAcvT7zoW5l+sg3TdN3gNh9KLEJYStMCOD3pF7Pgg6hGGjEgyhoxIMoaMSDKGjEgyKfUDbUazm3S1DtEjSQlZF90c7PigPmuzAfBykUgyhoxIMoaMSDKGjEgyhoxIMiVD1r+Oj4vInRSmsImgasj62fHh45+H3OzaL/vhfyBIHiVD1suOD3+HwPrAh+XhXzaz6WJiu8l6E7hRdF07F4hW511YMz1HH7a+xGk7vZ4f9YaaIethx4e/C2DNNGgzC0F+4jpdL7Tg6W/XtYNdFtZW5w3ROZrYhGuMFwfE5c4RejhFQ9a3jg8fu+0JS/3y/dN2d91N0vW0IYyxhVmy9tAIcI7KnSC3zxsQnyP1l7Ih61XHh79DkPt+uA5w79Jtz5vUo27IetTxkV4qZseXLxmbtD3vOtoMVsB7sl4SlhK0wI4PekXs+CDqEYaMSDKGjEgyhoxIMoaMSDIp9QNtRrObdLUO0SNJCVkX3Rzs+KA+a7MB8HKRSDKGjEgyhoxIMoaMSDKGjEgyhUPmw06niQeDX+nWuLfD497j2ovgTsS/ZV/pPaHekPIjfPl82IMpcIgR/+IYsOYccbx1UIvj6DUouZNF7grbxQGiz0cX9mXc07VxzzFp70bkYpLfQctf5/o5bp9Pyy6RnPyxO1BfKRmy8PNUGNnPNPVl3OrauPeYtLrgcHmNo6NVvm51Pi27RPJrT3FI1p4DnJzuLSVDpo/Gwh6Mxr6MG10bdx+TTEqPVtfdpvx1q/Np1SVSt7aJ+a3JaXoYJUOmzSxg+Va50a/ty+icBud42W1Wti/4OjnqG+fT2CWSU1w7wjmoPZQeTMmQQXNwDC14eumni3V9GR3L7rP05aUpq/R1puX53OoSKTD/Yh2ka7/BaziUHkxYStACOz7oFbHjg6hHGDIiyRgyIskYMiLJGDIiyaT87mKb0ewmXa1D9EhSQtZFNwc7PqjP2mwAvFwkkowhI5KMISOSjCEjkowhI5JM6ZDJ69K4TkEXuzN82IPS17mp5ryb5xa5mNz8BHZ6BgqHzMc/D7nPVa7xwzezPsp98Hl0Bsa5r/0dAsFAJdKeD+cbs2w/PF/qH3VD5u8QWB/4sDz8y70n850atu/D1pc4bZPPUs51b6DQ8JRvvipON+c//znae4B1/Tr/WdHCbo7ktfLfsws747nU81E6X9AzUDZk6Ru88CHokYs3z0KYTBZvTBObcI3x4oC43JFRYGKTPCdcB9gVUwYr2MFHhL1nYO7MYOGMCBHOgYGhVt/NAdzo4qj0fNx7vqQSRUPmY7c9YalfppFP20vRTbT3YLw7wsu3ZtedTF+eSt9LOz5CfBpzmNAwhIe9v4dnzGGivpsDt7o4BD0f9HzUDJm/Q5Drwkh3n3KnRoU+yt3D+dglu0rkri4djnGMcD2uPM2cG/DeVghG+vXrlVeoGqjr5mAXBykZsvy9EPL3TaVOjUvHzQxWkNzjaDNYWEIfDDAY7IBkV9GGBrbTup0MgDmHccL1NfURcAKSzDV3c7Tt4sif761jSQ3CUoIW2PHRxiFeYBEfbh1GvceOjz7JtQsPBlPgwB9ovBopoy6Uozk4xs6to+iJcScjkowhI5KMISOSTMo9WZvR7CZdrUP0SFJC1kU3Bzs+qM/abAC8XCSSjCEjkowhI5KMISOSjCEjkkzpkN3s0fgJ4WRz8omeNRUB3z2f7z6vONE9wIC1Bb2kcMh+p+OjONkcN/Z2fLfX47vPAwCM19kkeNNnTNPjqBuyX+r4gD7COJm8Lir3c+R2v8jFxHar3697/NbzGntCqip9IzWP0e9QNmS/1/Hh4BiOsCpfjlX6OUpLZt+PEVoe3tJU1D3etG5TT8gpHUJNhkVFfSNNHSQknaIh+82Oj3RcJUY4Wl2DdqufI/v+ZfL65uOV71/XbewJyV0ubkxx30hTBwnJp2bIfrnjI6UNDSA4N98DpnLH+bstjKHW/HiDtj0hor6Rug4Skk/JkP1qx4dvX396Nw2w/rh3p/TwljxvigOu7+u6xxu06AkR9Y00dpCQfMJSghbY8SEQruPxQtDkUfd4K+wJ6QN2fDwb9oQoTcqoy8vTHBw3LR6/hT0hSuNORiQZQ0YkGUNGJJmUe7I2o9lNulqH6JGkhKyLbg52fFCftdkAeLlIJBlDRiQZQ0YkGUNGJBlDRiSZoiHzYeemhjtRmpq+5fu9HPRqFA2ZRHd1gtzZLyLLXedIffFUIcv3e1wmmCO4k3wfRroD1nV67HOdIBNMhM+t6Rcp9HNM4EbRtasjF4jqOVZ30ax7RNj5UeotAfXd84TMt6F/vmfTvwdMYfsanHcDXlLAEbkr4N2BVtvpMct1ghxxFD63pl8EuX6O0IKnv127OoKkiEd4jtW/SkGl8+Pe3hLqi6cJWbEHAzDnCwTnCDDnMLw9IkTYewYuh9zo9LguInyuqF8EyPVzaEMYYwuzpKtjaAQ4Rw3n2ORWlwj13tOErNzvce3PMPHX+sTe3+PT+guzRaeH6Ll1/SL3qD3Hmu4Reg7qhixXhTZxo0q/R74/Q5uN4E09jJJekMZOj3wniOC5tf0i96g7x5rukVqlc6SeE5YStKBEx8dhEeO73Ro/eS49LXZ8ZJKf8E2Bw121UHk/eS7RlZRRl/7Q4BxjfK8d4yfPJbp68p2M6PEYMiLJGDIiyaTck7UZzW7S1TpEjyQlZF10c7Djg/qszQbAy0UiyRgyIskYMiLJGDIiyRgyIskUDllu8niQTiNfv+vb10+VzP+5mfzuEHaDvB5FQ+bDHujwrNznIIcWPD0NWoQzLh9YvjHzf761rmzsBnlFaobM32G7OODo5D69WXPwsQa8fQTf1rHcLqEPJphMrn92o+uuls1i+TYmto1Jw2zWz7tD0sPYDfKKlAxZdA4wHumVx7WhgdNnCHMTYr1YI4yPOB6vf3ZCG6tRsvuFI+ySN+gpGOGjri+jk+6QZCl2g7wkJUOWhqmsLnz575+W+uW/7voS22SNsTVDbk+sPKeb7hB2g7wqJUMGc47Fdlr8AYJvQ18aeHfq4nIxzvVzxHfcpHXWHcJukJelZshgYhMfYKS70iCZYL5xGaQ5H7C863OEl1ySukPYDfLChKUELSjR8SEL+z9eFjs+pGP/B91PyqjL82P/B92POxmRZAwZkWQMGZFkUu7J2oxmN+lqHaJHkhKyLro52PFBfdZmA+DlIpFkDBmRZAwZkWQMGZFkDBmRZIqGLII7qftN8vx0cnG6mOgRFA3ZDeNLp0ccH7DYrgoFOwXsvKBfoH7IIheT/PxXhYFhMsZV7PcodV7U9WXkO0CE3RlEzZQPWbT3YCTTyFmxzuk6yDhPBzn9cr+HfnfnRaEDpNKd0fBEomcImeZ8YLQqtUMll4vhOsAq2Z3q+j3uUegAYXcGtaR8yNLZrjgcYVW6v7rUDfzLwtfY78G+DJJE+ZBlfYT6Esa8fNGnwQcUr94AAAZzSURBVHkHphMXEPV75Dsv2vZlEN1LWErQwkt3fNDLYscHUY8wZESSMWREkjFkRJIxZESSSakfaDOa3aSrdYgeSUrIuujmYMcH9VmbDYCXi0SSMWREkjFkRJIxZESSMWREkikasqaOD1R6PiZu9POqAcHzI3dSM41NdCXlR/iP5cO+fLYt4vzki4QsaM4Rx1sH0ctTdCfLKXV8RO4K28X1c52LzsJ+jmL3R7rspPazpX07acFKe0Eauj/ya9tpbwi9FOVDVu74CD9PWFSGNxOifo5K98clNG+elTRexYXA+vYAu7lgsrpm7SkOyTT2HOC09UtSPmTljg99NEZwrtkuBP0cou6PaO/BeHeuvR6p7RSrUSjeJWvWvgbexJzT1i9J+ZCVOz60mQUs31pdlpW7P7Shge1O8EOSxQEfeLv7hx3FdSKcgxtPoKekfMgqHR+ag2NowdNLP12soYm6P8wNDpgK78k054j3T/2+zkXzL9ZBus4bvFvH03MSlhK0wI6Pex3iBRbx4dZhpAR2fPRF7iefg8EUODSXqNJzesL/T9YjmoNj7Nw6ip4cdzIiyRgyIskYMiLJpNyTtRnNbtLVOkSPJCVkXXRzsOOD+qzNBsDLRSLJGDIiyRgyIskYMiLJGDIiyRQNWVPHR7Hf467flm/J54QztaBoyG5IPpg9jmMcjCXemAh6IPVDVur4KDPnC5w+w9IOZ8NHBHeS35F82MmuJ+r8yD+2q7wKUT3lQ1bu+Cjzd1uMRzoAE5tkdwvXAXa+BufdgLe/pCxyV8C7A03U+cGuDvoB5UNW7vgAAJyW0JNda4pDEr7rTqYvT5fjzDkMb48IEfaegblZ0/nBrg76AeVDVu74AIr3ZGmrVOSuLl2McYxwPU6ea+Kv9Ym9v8en9TcbqGzu/GBXB7WjfMgqHR81tKGB7bS0kwHQZiN4Uw+j2eVSU9z5wa4O+j4pvyAsnwbnuLn80TmiOHxsYnMUhM3cII431cfDT5wW7zhmt3OXnbE4zyx6jOg+yu9k3xddGn+nwEFcN0zUCUV3si5wd6Lf8cI7GdHvYMiIJGPIiCSTck/WZjS7SVfrED2SlJB10c3Bjg/qszYbAC8XiSRjyIgkY8iIJGPIiCRjyIgkUzpkkTu5+6Nl73Gdfm7+dE5ELia2uGHklrpzvvu178AOkn5ROGQ+/nkAvP3topx7QlGYfhZPWXdBc46XtfPn9EuvTY+hbsj8HQLrAx+Wh3/XIo7CLnD5L7oPW1/itJ1m09PZDNpggEH6RtdHGG93xQYs4XrpV+fLb/HnG7EiFxPbTR6fwI2i6zG5QE1ct3hOotcWdY0U1i82cdV1kAj/rvSrlA2ZvwtgzTRoMwvBrunNY2ITrjFeHBDHG5i+Df3zPds1DpheBjM1B8dwhNW9b8atB3wkk9aWd23ESh8PLXj6W3JMiHWQD9GseE6i1xZ1jRReN8QaHvZReSfMdZDU/V3pVykaMh+77QlL/TIRfRLsAnWKfR2XNqvgnLyBNQfHOEY4Wt0O2uId6VWdNjSqj2tDGGMLl4FrDUMjwPm6KVaVXlvUNVJYHxpmFvAZlv9O1w6Sxr8r/Ro1Q+bvEOR6OC7tU5dLvus9mo+doFWq2NdxabMyhsV7IG1oAMEZUdN6wfl6qSZY47vS1w4FXSNNzxF1kNzzdyX5lAxZeqmYyi4ZtRkspE1VO2CRHQArSO5/zA0OmGb3KVMcsDEvl1bZvcs0wPrDgVa3HgDAw1t5jTby5yR4bVPUNVKnroOk7u9Kvyv+oT9//sRfX1/x19dX/N9//8VfX1+3nnKXrtYhkiF9f6bv+a+vr/jPnz/CY5XcyYhUwpARScaQEUnGkBFJxpARSSalfqDNaHaTrtYheiQpIeuim4MdH9RnbTYAXi4SScaQEUnGkBFJxpARScaQEUmmdMjY8SF2u+Pj+vnZl39uHU8/oXDI2PHxI/nP1Q4teHrDOM09//6olrohY8dHdx0fmoOP9TgZ8MzvcjZ8VP/9Vc6LGikbMnZ8dNvxca1QMLEpTJxX//0Jz4tqKRoydnx03fERnQOMR3phJ9OXJ+FxwvOiWmqGjB0flef8qOPDt6EvAWumIXJXwCH99zquHtvivOhCyZCx46PkOx0fp/TvNcBgChziIxwtCea0tJPlzjVsc150ISwlaIEdH/SK2PFB1CMMGZFkDBmRZAwZkWT/PzQ2kHxPE1DpAAAAAElFTkSuQmCC;" vertex="1" parent="LYCwLjDnQvL3Gzslhouy-13">
          <mxGeometry x="7.5" y="408" width="217" height="522" as="geometry" />
        </mxCell>
        <mxCell id="LYCwLjDnQvL3Gzslhouy-12" value="" style="shape=image;verticalLabelPosition=bottom;labelBackgroundColor=#ffffff;verticalAlign=top;aspect=fixed;imageAspect=0;image=data:image/png,iVBORw0KGgoAAAANSUhEUgAAAOYAAAFzCAYAAAAqtnX/AAAaFUlEQVR4Xu3dP3LiWNsF8MNXbz6bkBxQrABWACSOlDrxi0IRTGcOyXoCFMKbNKkiEqMVwApUDpAWwaxAX6A/SEJCGMnW48v5VU2VW766iC6fuRLd93QvDMMQX+i///0v/vnnHwDAdrvF8/Nz3SlESvjrr7+w2WzSn/m///4b//vf/+pOAwD8p27AV/jrr7/qhtT6999/W5mH6Cv8+++/dUOu+r+6AUT0/RhMIoEYTCKBGEwigRhMIoGUDmZgjzCyg7phN3PNHnq96L+r8wY2RqZb/f0rqq755te+gWuO0HAK+mIKB9PFbweA847an8FbguSamGCHMAwRhiH2lnZ9/J00ax/Nnb2mb3ptkkPdYLpbeMYGG8PB7yRzrplbbaKVw4Wpz3FYT9DrmXDjVStZnXpJOPQ+hustcvEtnS/51RH2KJ5jZEf/cwhsjEw7Pj6CHQTnMZkQjmw7f01lr51bRaPrzs+fed3C2G1mjtL3Sp1TNpju1oMx1aBNDXjbaz9wY6z8JYazHcJwhbFrQv94S1enHSYwXQCahb3fx+LWH+C1A2yiOXzDwUuS2OS4b8DRX+IxPpZeNnjT/DWVvbZrYtH3o+v0+9gW5w99LOHgPSiuuM/AGukcpe+VOqdoMF1s1wfM9R56+hyHktWmSnD0MHsep78eP8/gHeMfes3CPgzh9xf14Zy9Ibnj1J4Gl8e1JwyGBqYaAGh4Gng4nhffS4XXDo4eDnM9Wun0OdYffn5+aJgawIdffE9jPM+ir66+V+qUmsF0t/CWfroS+EsPWze6HT0/c7rYrnFBexpgnVlh3e0ag6f8M532NAC8I4Jr83nH821kyRz3Sl7bBzDMvMdwNUaV/HsKcPTKjrd7ndSMksFMbmMT6e2sNoWBOfReD73eFpilA2B48fPceIUdJulz1wQ7rMbRbV/6LDbxsNxY0KrmAwA4eCnO8RnZayp57bG1geHo6fGrC/j4F5Ze8p5e4KTHK94rdS/8Yq+vr+HpdApPp1P458+f8HQ61Z1yk7bmIfoKyc9n8jN/Op3C19fXutNSSq6YRD8dg0kkEINJJBCDSSQQg0kkUCfVIk1rFxJtzUMkTSfBbKOrh50/JFnTRYO3skQCMZhEAjGYRAIxmEQCMZhEAikdTHb+lKvv/HFh9s6vF7UtXBtPbVM4mOz8aWS4hJ/s9fQNOPqVrWW3/P7Rp6gbTHb+tNf5o1nYLIfxpursamrCxeXv38V10acpG0x2/rTb+XOuRxljlWuGuPz9K70u+hRFg8nOn7Y7f4Kjh2Ffz62Y+vxQOq70uuhT1AwmO38uzmnU+eOa0OeAMdUQ2Atgl/y+Di/HfuK6qJqSwWTnT8E9nT+H5H310JsAu3APS4vDPCmsmJlr9T9zXVStrnukKXb+0CNi5w+RghhMIoEYTCKBGEwigRhMIoE6qRZpWruQaGseImk6CWYbXT3s/CHJmi4avJUlEojBJBKIwSQSiMEkEojBJBJI0WDmO2uaduREvmJOonKKBhPArM2OHBdmtPepxTkz2JlDBeoGs8g1MTJNjOL9jenXVb03mTG2vcB6Vr6nsvLcsi6g0k6ey84cInWDuU42AJ8Lsg5eH5twhXH26yu9N8mYp49DroIj9YnOnNRFJ0+hM6fmdHoM6gYzvZXdp907Q2OK5AY0+fpa700yRu8PS7twPtOZkyrp5CEqUjeYN7ql90abGsD85aL0uPLcG7qFiK5RN5jryW2foF7rvUloFvZx6XFuzqpzr3YBlcj2+9QMpQdR1z3SFDt/6BGx84dIQQwmkUAMJpFADCaRQAwmkUCdVIs0rV1ItDUPkTSdBLONrh52/pBkTRcN3soSCcRgEgnEYBIJxGASCcRgEgmkZjBLqjrSFoFPCc5tA+l/3AFCX0/NYLZGg7WP2waGM+zCkC0D9C0eL5iBjVFhn6ZrFlbDQidQ5mTYo+zK68Ic2QhKu3xQPjfRDR4umMG7g8Eu03Tnmlj0/aiGxO9jG6cu2w90psF6G8B5j8YE9gJ4s6K6krTLJ4RvOHixg8q5ieo8XDA1a4P+4ryCBUcPh7kerWr6HOu4hCfbD5QzfsbAeUeAAO/OAGnlT9rlE1WO4MrcRHXUDKb2hMF6cb7lDGws1gM8xSVY1j5awRbxB0TDpZ823YVlHZU5Y/wyPvDuvuPD+HVeUb3j+fY10xv0ubmJImoGE2OsdgPMk44e3YHhR7elaQ+sPsfgeQzN2sBw9PRT19r6SQDatA9n4qA/za6pDl4K3T/3zE2Erv4S+7cYrxCGq4vDmrVHaOWOwNqHyB3CCvvc4qbB2mfm8j9wmL1hn83l4A37fXFFLJubqJ6iK+ZXif9ccwLseFtKX0jdFfNLVKyAmoX95eJMdDeumEQCMZhEAjGYRAJ18ozZtHYh0dY8RNJ0Esw2unrY+UOSNV00eCtLJBCDSSQQg0kkEINJJBCDSSSQosF0YeZ6es6tA4E9uv4vTH+5wrVl2g4S3V8jdU3RYAIYLuEn+yDjf6bddKPdJXurdAv01ymWg2WubTeYR20HGZ1cI4mibjCzNAub5RDrrRv1+dhBafdPulczs3cye6yXHEzmQPLLeEUu7f5xYepzHNaT0t6f8fMMhw8/3zOUmb/smtgjpL7HCGam7iNx0f0T2HhxjHQlW42jAOofb2kDwQ6T+s3OafePjyUcvAdjrPwlhrNdacOeu11j2NeBsp6himtij5D6HiaYwdFLA4Cy7p93B4OkWCtzzuz5HKXx8wzesSYIafePhqkBlNb8HObQM20HyW1rsWeo6prYI6S+xwima0KfA0auCiTf/aM9DaJb3eyIwrG0y0fvA857/KGNi+0an5N9/r2y4brsmsAeoYegbjAzq1JvAuzCPbKfpxS7fzBeYYdJ/nmucCzp8oE2hYFk/i0wu3Yh8Xiv/BnzqpJrYo/Qgwi/2Ovra3g6ncLT6RT++fMnPJ1OdafcpK15iL5C8vOZ/MyfTqfw9fW17rSUuism0Q/GYBIJxGASCcRgEgnEYBIJ1Em1SNPahURb8xBJ00kw2+jqYecPSdZ00eCtLJFADCaRQAwmkUAMJpFADCaRQIoGs75X58sENkaZjiFkGw6IbqRoMOt7dUoVu3nuNQScl2/8nwEpR91gZqS9OrmVNN4bmXbtRHsz026e0v6eyEXnTravB9E/+74xHPwuyXhphxBRwUME89yrM8YqXkX9pYekHCDq2gkRFrt5Lvp7qjt3in09UXVJYWP0PR1C9JDUDWZpr855xdTnh3RosWsnVdLfU9W5czmHBusNWGRuoe/qEKKHpG4wS3p1AnsB7JIVc1g3Q6WbO3fGK7x9vGDhRb+s7BAiKlA3mCW0pwHWk8sV8zygvpvns507418GkLxUVYcQUVFd90hT7PyhR8TOHyIFMZhEAjGYRAIxmEQCMZhEAnVSLdK0diHR1jxE0nQSzDa6etj5Q5I1XTR4K0skEINJJBCDSSQQg0kkEINJJJDCwcz3/oxuqRbJCOzRp88haksnf1zy9VyY0b/vjvDObVWatce+bhDRF1FyxQzsBdazsr2O1zp/TLjFr+MVs7bjh6hlSgbT/zjkKjzOrnX+RH09xe6eWzt+iNqkZDD1/rCiS6e+86fY3XN7xw9Re5QMpjY1gPnLRcnyvZ0/N3f8ELVEyWBCs7D3DTh6/lPZ2s6fEp/t+CFqg6KfysbhDK3CwRXCcHVxbJ8sguPyr619iPxMmXFEX0DNFZPoh2MwiQRiMIkEYjCJBGIwiQTq5FPZprULibbmIZKmk2C20dXDzh+SrOmiwVtZIoEYTCKBGEwigRhMIoEYTCKBlA3muXUg7vsJbIxKtobc2+1z73lAAHtU3nzgmqOLrWr0mDr545Iv55qYYIcwW/hT8QN/b7fPvecR3ULNFVPvY7jelqxKR9ijeCUd2VFWk26fwMbItC+/X3W87rxCV5BZsRpmx2wvv00PSs1gahb2fh+LXg+97O3r2gE2IcLQxxIO3otBSb8fwjccvCRJqjp+bd501Q4Rhs/AGpduGUMPSc1gItkoHcLvL87hnL3B0gBAw9QA4vqes/T7gPY0qD9+8f3zvMHRyxSCjfE8uzztljH0mNQNZkx7GgDeseoRMy8zzt2uMXjSrh+/QnsaYJ3U8CHA0btvDD0mNYPpmuknsr2Jh+XGurHRzsFLfN4E2V7aquNXjH9h6U3i63iBc+8YekzhF3t9fQ1Pp1N4Op3CP3/+hKfTqe6Um7Q1T8pfhsPZ7vbjn7ILZ5iFTWehnyP5+Ux+5k+nU/j6+lp3WkrNFVOCwMYobX2fADuWQ9Pt1PxzzHtoFvbFAr1rx+uUtvQR3YYrJpFADCaRQAwmkUCdPGM2rV1ItDUPkTSdBLONrh52/pBkTRcN3soSCcRgEgnEYBIJxGASCcRgEgmkbDDldv4AgAuzV7i+G7EX6DF08sclX050548LszcBdiFC/q12qqDmiim48yewF1jPyvd0BvbovI80s7pX9QJlj5e17tHPpWYwBXf++B+HTJ1IhmtC/3iLx4fYYQLTvdIL5JpY9P3ouN/Hlve3SlEzmJDb+aP3h/COlyHKjwfGzzN4x6BynuDo4TDXoxVTn2N98WboJ1M3mDFpnT/a1ADmLxcf4OTHn1/nWi/QcOmnK2x4U98J/RRqBlNy549mYe8bcPTCp7LjFXaYpMfS16mYR7M2MBw9HV/ygTP9ZHXdI02x8ydk588DYuePVOz8oQbU/HPMe7DzhwThikkkEINJJBCDSSRQJ8+YTWsXEm3NQyRNJ8Fso6uHnT8kWdNFg7eyRAIxmEQCMZhEAjGYRAIxmEQCKRtMVTt/mjj3BeVfv9djj5A0agYzt+s/xN6q3vSlWfur369y73m5zp8bru+qiv/Z3GS4hJ/s5Yy3oVVO1eR16C5qBvMndv64JkamiVHc33PZ55Nd5Uy4cGHqcxzWk3RMWQdQVV9QjmZhsxzGG7Lvex1ql5rB/ImdPwAOXh+bcIVxaZ/PGKt4hfOXHrbuGCt/ieFsh7DqnKq+oBLnypQ7Xodap2Yw8fM6fwBgaEyhVfb5nFcyfX64OLfsnKprKBMcPQz7+l2vQ+1TN5ixn9L5U1Ts8wnsRfpc6i+HN51zrS8oxzWhzwFjqt31OtQ+NYP5Ezt/Msr6fLSnAdaTwkqmTWF40bOfX9YBVHUNAHCYQ09/j4BduIel3fk61L667pGm2PkTsvPnAbHzRyp2/lADnWz7EomdPyQIV0wigRhMIoEYTCKBOnnGbFq7kGhrHiJpOglmG1097PwhyZouGryVJRKIwSQSiMEkEojBJBKIwSQSSNlgiu38CWyMCh075y4eooiawRTd+QNgCDgv9m17RMHOnUekZjAFd/4AAAZv2BgOfpdkLbBH572kZtzBw86dh6NmMAV3/iQ0a4P+ohAs14T+8Zau9DtMYLJz5yGpGUzI7fw502C9AYtMsPLnAOPn2UU/EDt3HoO6wYxJ6/zJGa/w9vGCRdIHlDun+rXYuaM+NYMpufPnYpgBJGV04xV2mKTXnr4WO3ceT133SFPs/AnZ+fOA2PkjFTt/qIFOtn2JxM4fEoQrJpFADCaRQAwmkUCdPGM2rV1ItDUPkTSdBLONrh52/pBkTRcN3soSCcRgEgnEYBIJxGASCcRgEgmkbDDFdv7Ahdk7X1uv10bfTwDb/ERVCYmnZjDFd/4s4Sf7KeN/9r1y+xb7fh6SmsGU3vmTpVnYLIfxBunsamrCvej7KX6/RGZXS7KiX/YIXXlfJIKawfwBnT9Z57qSMVbxSuovPWyLfT8X37+cK3h3MNhl7hRKe4TiwXW/H9QZNYOJn9D5cxYcPQz7em7F1OcHXKr7flLydV5Rr/YI1f1+UGfUDWZMdOcP4ma8OWBMNQT2AtglK+LwYmjl94N3OOn8Gqx91KC3MN2be4RIFjWDKb3z5zCHnl4fsAv3sLQ4zJPCipjt+yn5vmv20NMdGPF7TJ8n9TkGz+PqHiGSra57pCl2/oTs/HlA7PyRip0/1EAn275EYucPCcIVk0ggBpNIIAaTSKBOnjGb1i4k2pqHSJpOgtlGVw87f0iyposGb2WJBGIwiQRiMIkEYjCJBGIwiQRSNJiFXp1OqjmCcztArtvHhVm4HtccwQ6K4zMtBsVWhE7eD30nRYOZ7dXZYbZetFB49RkuzJ4Ox/DT5oAw3tpVLd5HGfpYDmfYhWHcWnAW2CMs+j5C7ttSnrrBzBkg2Ruc7eGJ1p2SHp2mvTnuFuvZ7v6yrhK+PcILNq3OSXKpG8x0M/IWz8nK45rRihNGO/y3dlDSs9O8N+dcFYJc8M/nnDcu93o9TK70AQHRe5k4BjYM5cNQN5jxray/9LBIVr2jh8NcT3f4rz/80h6dNnpzDmmBThT8XBXIbJe5xQ2xu9IHBMTv5e0DOp8tH4a6wYxp1gaG8zutehwuM899q3FFj06z3hzNesNsPanuir3HeJUvFiOlKR9MQIP1BkxGNmBtYDh6egtpuuU9O817c8ZYhTtgcr5d1R0Dvxp+ZqNZ+yic7IBVX133SFM/pvOHqEXs/CFSEINJJBCDSSQQg0kkEINJJFAn1SJNaxcSbc1DJE0nwWyjq4edPyRZ00WDt7JEAjGYRAIxmEQCMZhEAjGYRAIpHMxv7twJbIxK570cWuWz469pcy76fooGU8HOnZLgk7rUDKa0zp2qbqBCB9E2PaHYQ+TC1Oc4rCdpq8Jld1HVXPQTKRlMkZ07aTdQCN9w8GIHgGtigqRm5BlIr6PYQzTGyl9iONtFq3hZd1HlXPQTKRlMSOzcSbuBotYEXHQJjfGcXsdlD1FWWXdR9Vz0EykZzE46d7QnDLL9tYGNxfpcmwnveL59jTuD8l1CAY5ecmpZD1Fesbuoai76mZQMZjedO2OsdgPM9fg1dQeGn/3wyMFLsTNo/AtLL7mtfoGTvE5JDxG0KQwvesb0S7qLquaiH6que6QpNTt/duEMCJH+NwyX/pXh/jIcznZXBpBqmnb+dLK75OeLnltXdcOI7sRgfgfNwp4ppk9Q9BmT6GdjMIkEYjCJBOrkGbNp7UKirXmIpOkkmG109bDzhyRrumjwVpZIIAaTSCAGk0ggBpNIIAaTSCCFg/nNnT+V85YMLcPqEMpQNJgKdv7QQ1EzmNI6fy46fOIVMj42SpfVY2kvED0eJYPZWedP5bzFDh8geHcwiFsK0rCnvUA+lnDwzmQ+LCWDia46fyrnvezw0awN+ot8y925F0jD1ADSt0APR8lgdtL5c0V5h0/8TOv3sbhjTlKbksHspvOnWlmHT2CP0pa7wXPDCyP11HWPNMXOH3pE7PzpBDt/6GspeitL9LMxmEQCMZhEAjGYRAJ18uFP09qFRFvzEEnTSTDb6Oph5w9J1nTR4K0skUAMJpFADCaRQAwmkUAMJpFACgfzuzt/IoE9yjQS1Pvs+Ej5tdp3zUUSKRrMrjp/XPx2ADjv17eFZYq3NGt/R11J+bVad81FEqkZzK46f9wtPGODjeHgd2ZRTfde9nowXRemPsdhPYlWZNdMV7nsuHRVDmyMTPu2LqBkrtw5hbuBzGrvmoUeIhJDyWB21fnjbj0YUw3a1IC3PQfrxTHgxyv3ajzGyl9iONvlV2TXhP7xdq4lQaaB4Z4uoOQc34Cjv5zP97ZRCF0zWv3DqEVhy1tgUZQMJjrp/HGxXR8w16NWgsM6CkDw7mDwZqFu7Q6OHmaZJoPx8wzeMQ7LPV1AyTnaEwZDA9P4/KeBh2MQvd5hrqctCuubJqXvomQwO+n8cbfwludn2qQNT3saYL2tv5DiOHe7xuCpLs7NDDPXy65cWZQMZhedP8ltbDo2uZ0dr7DD+dbZdAFoUxjeJP9sVxg3wQ5fmRXN2sBw9Px1kRx13SNNsfOHHhE7fzrBzh/6WoreyhL9bAwmkUAMJpFADCaRQJ18+NO0diHR1jxE0nQSzDa6etj5Q5I1XTR4K0skEINJJBCDSSQQg0kkEINJJJCiwTxvjj7v2i87VjW23n1dPUS3UTSY8ebm4l7D9JiPpbdAmqv0+A6zdeZ4UeOuHqLbqBvMq3x8HAYo34ecHM+upHFbXllXz5VOnmynjmmOqgNPVKBuMA9z6MVNwOmxCdaz53PfTnp8i+e0hyfa2nVuI6jo6kFFJ49rYoKkwuQZqOsVIspQN5iZW9m0CSBzLFcTEh/3lx4W6bJ2XjH1+aHqVSIlnTz5Dp8xnut6hYgy1A3mHaK6jd9RiZa9AHbJipkp8rpRvsMnwNGrOYEo47GCmbm91ecD7C5KdTRYb8BkZANPA6wnhRWzrKunyvgXll7S4fMCp248UVZd90hTanb+fNYunGEW7uqGkTKadv481or5nQIbo/RT3QmwK3xgRHRFJ9u+HoJmYR9adaOISnHFJBKIwSQSiMEkEqiTZ8ymtQuJtuYhkqaTYLbR1cPOH5Ks6aLBW1kigRhMIoEYTCKBGEwigRhMIoEUDma+y+ez/Ty3d/oEsEflu01cthbQnTr545Kv58LsTaL9lHf+zXHN2mNfN4joiyi5Ygb2AuvZDhfbLS96fKIKkJFpYpT0+GS/jpe7bHfPxTnFV8iM3RZfnuhGSgbT/zhkaj2yij0+0dGD18cm7vHJfg1EIVz0/ai7x+9jG4f1YhzY80PtUTKYen8I71j2cFfe4zM0ptBKvgai7p7DXI9WQX2O9YdfOi4Zy54faoOSwdSmBjB/ufjg5d4en+EyXjGzHbUl2PNDbVEymNAs7H0Djp7/VFYr6/GpERV06ek8V4va2fNDbanrHmmKnT/0iNj5Q6QgBpNIIAaTSCAGk0ggBpNIoE7+rmzT2oVEW/MQta1p7c23B7PpBRM9At7KEgnEYBIJxGASCcRgEgnEYBIJxGASCcRgEgnEYBIJxGASCfT/E3bmuwTGNRgAAAAASUVORK5CYII=;" vertex="1" parent="LYCwLjDnQvL3Gzslhouy-13">
          <mxGeometry y="930" width="230" height="371" as="geometry" />
        </mxCell>
        <mxCell id="LYCwLjDnQvL3Gzslhouy-14" value="" style="shape=image;verticalLabelPosition=bottom;labelBackgroundColor=#ffffff;verticalAlign=top;aspect=fixed;imageAspect=0;image=data:image/png,iVBORw0KGgoAAAANSUhEUgAAAMsAAADdCAYAAAAVdIa1AAAPkklEQVR4Xu3dP2wb9x0F8MeiNVDAgDV0SJAhgHKnAIQmo9VAZukgpaQWOoiFBAlgDbKuBgKTgz0I1dBBgIE6RckAhUsGKES0Ew1EXMSLrS0ANWhwF0KAxavXAJ3oIkO363B35N3xjvcleRKP1PsAASzy/vBkvvv9jvHjpUzTNEFEkX4WtQARWRgWIiGGhUjo5+4f7t+/H74k0TXz7bffen72hAUAvv76a/9DRNfOo0ePhh7jNIxIiGEhEmJYiIQYFiIhhoVIiGEhEmJYiISEYXmDZxtLWFry/7eBZ2+i1p3Qm2fYWFrC0lIJJ1HLTunNs43+MW3EfkAnKHl+V/6faV4IwxLmDHu35+Mv3QnEcBje4MXRWf+ns6MXGFoiYN3w7V2NWe//Oho7LGtPXqHX66HXe45tAMAZjl4k/S/MGwjvUy9wdAZgbRvbawDOjuA9nKB1R2xvyDrKvR56vZd4sBy1rNQ4+6e4jB2WgXVsWmnB2et/e6ZqpRN7qrHxrH+WPin5pnAl/+TKmZ7Y23jhf7pkPdffpnt/7sW8+9l4doJnG7exZ7+3zvZue6Z2b14c4QzA2p2HeHhnzRotv+k/G7DuBjYCtxd2/KOmXb5jdnY78liDXtPgeLzHPx+j/ryYIiwnOD60/rT24QeeZw7v3sVh/yfrL/ru4AFnId+bwb0OcLi3h/HOnSH7GekE3+ydAVjDnY+XsaykrYcPj6e6TvIef7ij3/uO+e4012dBxz8/0+R5MHZYrDPZEpaWnL/obTz2zy+2n1tTtZcPsHzyjX0WXMOTVz3r8VdPsGZtDN+cAAha5vl2wN5HCNpGr4eXD9bx4OUrPFmzFrOmkWWsA8DJsXUMa3fw8TKA9U17anmI4xMAWA5Y9yVehm3P4T5+hDkD7vintM5+Rwl6TWWs949/G8/tY7d+hfMwTZ4PY4fFY+0JXvnfKAC2NwePvDHO7WXtNyQALH+MO2uD5QOX+eBDuBaJFLiNCCfO0Hi2h9ueEwBwGP2uDeU+/nDWaGb5AB+Oc7AjHeKuPQ0bb5SlKGOHZXCBH3XmtPSnNmev8W/nQeeiGmv48IPgZZxriSHOMv1tWAbbcF+gn+BZ6BxkMI0MNOVULNoZXg8OFoHX6yHHOtpgZBmMrlF/SyQxdljGtv7QnjIMznhLt+3rkYDpj7PM7T3fu6M/0tjL3D6CZ+jp7+cMe7eX+lPFIwDAMvpZci6InSnY0JvLPyUKWDfwsfEd3vX/Pp7g4brgWIP2H/A79H5IQNO6/LD45th9289dI9M6ys51jPUknnt+BrD8AH9zbWT7+d9wx/18yH7Sir2Hh+7tnePpU3tY2d70TSMHn/I5UzHvugh9bDxrePLcd8zO7yPyWIP2v45yL+D3TLFJub8K6f79+2xKEtlNSX+t+ApGFqLFwLAQCQ19YYWj2WyGPUW0sAqFQuhzoWFBxIpEi+TWrVuo1+sjlxkZFtgbmdbbt29j2Q7RZXj79m3UIgCvWYjkGBYiochpmEM6VLlx6kWLRByWUV6/fu35+b333sPNmzdDlyeaR1OHRdd1fPfd557Hfv3rIr744jFHFlooU1+zfPXVV2g0gD//GfjyS6DRAE5PK/jxxx+jVrUZqGQ16AHP6FoWFSPgCaIZmDosjl/+Enj33ailiObX1GH5/vvv8dFHwK9+BfzmN8Bf/gL87nd/wvvvvx+1aiBdSyGVSiGV0sB/Q0BJMnVYVFXFP/7xBh99BPz978B///tHfP75Lm7cuBG16jBdQx4tmKYJ0ywAtagViK7O1GFx++QT4H//+yt++OGHqEUDGRcd7BZy9k85FHYjViC6QrGG5V//An7xi99CVdWoRQMpK6uoNZ1LfQMXnYgViK5QrGFZWgJM8z/46aefohYNlnuMcidvX7PcQyNqeaIrNPX/ZwGAmzdv4tNP/4B//vMHfPbZn8YcWRQU21XXn00UI9YgmoVYwnLjxg189tlX6PW+xLv8/JgWlDgsUf83/tatW3jnnXdGLkM0z2K9ZiFaZAwLkRDDQiQUec0ySY8lSFzbIZqVyLBEXdhLsINPSSY9kXMaRiTEsBAJMSxEQgwLkRDDQiSUgLDo0FJOOzKFVLaCSWv303f2+X0AFC4BYQGQKaNrmjBNE63VEu5d5bvSqCCrBcWDyCsZYXHJFXZxet4FdA1ZTUM2ZZ3pjUp2MPq43tyBnX1dQ9YVOPeo4N6OpuvQ1BJOa3mkUsMjCr8PgNwSFxa9WUMmbfVhTjtp1M0qcroG9Xzf7uabaCEPTZ+gs29UcK+x1R/Fqrkcqt0yMrstmGYVOdeiY2+bFl4ywnJagmqf7fNooV1UAACZrU0oQ918a/TpXBhjd/aN4wZW94tQRi9mLTvmtmnxJSMsrmsWs+o5vwND3Xxr9FldUcI7+2oaaBzbHxToaNaCtzMKvw+A/JIRlii5KlrI96818mihmhvR2Vc2sQVntGoCzqjg246m28t2Aq5Z+H0A5Ge67OzsmL1ez+z1eubh4aHZ6/XMOMS1HaLL4Lw/nfd8r9czd3Z2hpabj5GFKAEYFiIhhoVIiGEhEmJYiIQia8XSymWUuLZDNCuRYYmjO88OPiWZ9ETOaRiREMNCJMSwEAkxLERCDAuRUCLCMmgkppCtGDAqWU/TMRq783T5Ij86vnT9RqK7x9JGe8QqRLMw+5FFTSNTa3pHBbtD7+ndu7r37m588GjC7jzFb/ZhUYpod9M48H0RhfVU2+7At7C727JalLqGg3TXerybRtM/x2J3ni7J7MMCOzCmiW76YCgw1vVIEwW7bmxcdHBaUq2RQy2hdt71Ls3uPF2SZITFpqysAp0L15fsGahk7wF17zevZMrd/je9+Dv77M7TZZl9WHRtcE2S76BcH3z7iq6pKJ2eoqQOvq0SxTq2Gqq3R+/G7jxdktl/GparwjSr3seUKto5ADDhfwoAim0TRe8KKLarrj/7nyea3uxHFqI5wbAQCTEsREIMC5EQw0IkFPlpmLRyGSWu7RDNSmRY4ujOs4NPSSY9kXMaRiTEsBAJMSxEQgwLkRDDQiSUgLCE9+fd/D39ifFW3jShBIRFwNN+NK0btPJNT1csWWExKshqFVSyg/6KgaCe/vD96z19fVeIvPe99+5O14arzERhkhUWAKg1gLoJ0+yijAaOjaCevu/+9boG9Xy/P/K0kLeCMXTf+8FudC2FZiH47shEQZIXlt19FBUAULC5BfQr9iN6+t7ePZAr7KJzYYTf976Wx0G6C+aExpG8sEQY7ukP399eb9awuqKE3/d+t4U67k33QQFdO/MRlqCevvv+9b772+fRskaNoPve25RiG/vn6uC6iCiK+z7fOzs7/fuAO/cEj0Nc2yG6DM7703nP93o9c2dnZ2i5+RhZiBKAYSESYliIhBgWIiGGhUgoslYsrVxGiWs7RLMSGZY4uvPs4FOSSU/knIYRCTEsREIMC5EQw0IkxLAQCSUkLDq0VEwd+zHoWhbWrrz7T6Wcx4kGEhAWHVoqD7RMb8d+EtP08jPlfqPS7G6hoQbcgs8xzX5obs08LEblALXd1nBrUdeQ1TRk7Y69+9721tvUPRpo0AN6+cPreB9rDr0am1JEvZyxi2OT7YcWz8zD0j0/9VSC3U47adTtjv1B2r5DcTeNZsWwevj2SNAtd9DUh3v5Q+t4viWmANQCdws4jUxgsv3QQpp5WNR0Bp2L4DdYZmsTit2xPy3ZdyhWS6iddz1nfLV0OrRu0Drern4Ohd2h1TzrZ9LqRPuhxTTzsCibW0DpXuQFdabc7V/TmNUcjMpB/zqnW86I1vF28g1cdAJXA3QNagnY2lQm2g8tppmHxfqaI+uCOuzTMKVYx1ZD9XTplZVV1PK+M76rl98NWAe5xyh3nE7+PTTcOzktQe33/IGW2UZRmXA/tJjcHWN28Ok6YgefKGYMC5EQw0IkxLAQCTEsREKRtWJp5TJKXNshmpXIsMTRnWcHn5JMeiLnNIxIiGEhEmJYiIQYFiIhhoVIKCFhmXEHP6AmPOjnE1kSEJaEdPCJIsw8LIns4LsZFWR9I97Qdn2vlRbTzMOS1A6+wzhuYLXlGvFCOvf91xq1QZpbMw9LUjv4DqVYR/pgMIqEde6d10qLa+ZhSUQHX1nBau1g8BqMCg5qq1hRAEBBsW2NIgf29RA799fTzMOSjA5+DtXWKkrOa1Ab2OpaUyqjku2PIquFXOBroWvC3TFmB5+uI3bwiWLGsBAJMSxEQgwLkRDDQiQUWSuWVi6jxLUdolmJDEsc3Xl28CnJpCdyTsOIhBgWIiGGhUiIYSESYliIhBIQFh1a0H3njcrYzUOnN29UskOtxmw2K+72s5tPQSI/Or4SGaDxVEfR1Q3RnzaAzComoRTbaANWZwVldM0ii1k0tQSMLABW97EPV/kKOprYwpZrkX6vJJVCynW2D+zU6xqyFQO6pqJUK0FNZVGpaOEdenbzSSAZYQGQK6yicWy96YxKE+nHm4MndQ3q+X6/ndhC3ipdRXTqc9UuyrtldM02iiuDbbGbT5NITFiQe4ytxlPo0PG0kcama97k7c4DucIuOhfGRJ16dvNpUskJCxQU94Gm1gT2vdcY3u48oDdrWF1R5Pe192E3nyaRoLAAyFlToKFvRspV0YLTnU8hD/t7xkbd1z5EYIee3XyScHeM2cGn64gdfKKYMSxEQgwLkRDDQiTEsBAJRf7bMGnlMkpc2yGalciwxNGdZwefkkx6Iuc0jEiIYSESYliIhBgWIiGGhUgoAWFJcAffc0fkFFJBr5OujQSEZdDBd7M6+KFrjKQU21Z7sd/BN9FuO4+NKWOtbzUgrdv5hf7z+4AvuKDFkYywzEsHXymiXs7YRTH3qKNBhw5NLeG0lu9vN2g/NL+SEZY56uArK843zuRQNZ27JXfQ1HOodsvI7LZgmlXkQjr5NL8SE5Z56eAbFx1k0qpnZOnfLdm3XFAnn+ZXcsKSxA6+n65BLQFbmwqMygHQckaW4IsrdvIXS4LCksQOPoDTElTn2iQPtMw2iood4LxvZFE2sdWxrlm67OQvHnfHmB18uo7YwSeKGcNCJMSwEAkxLERCDAuRUGStWFq5jBLXdojiJq28jwyLdCNE1wGnYURCDAuREMNCJMSwEAkxLERCDAuREMNCJMSwEAkxLERCDAuREMNCJMSwEAkxLERCDAuREMNCJMSwEAkxLERCDAuREMNCJMSwEAkxLERCDAuREMNCJMSwEAmN/JK9er0+6mmiayU0LIVCIewpomuJ0zAioaGR5dGjR8FLEl1zKdM0zaiFiIjTMCIxhoVIiGEhEvo/AwF6jicjMwkAAAAASUVORK5CYII=;" vertex="1" parent="1">
          <mxGeometry x="2140" y="880" width="203" height="221" as="geometry" />
        </mxCell>
        <mxCell id="LYCwLjDnQvL3Gzslhouy-15" value="" style="shape=image;verticalLabelPosition=bottom;labelBackgroundColor=#ffffff;verticalAlign=top;aspect=fixed;imageAspect=0;image=data:image/png,iVBORw0KGgoAAAANSUhEUgAAAM0AAABxCAYAAAB2tCdnAAAIk0lEQVR4Xu3dMWgbWR4G8G+OW8OCwSq2SEgRMCMXQpXZdWGl2CusW8mNdtmIhA3YhSOdIUQqrMKciysMhk2WlRYOYwcWid1qAhs1lpK4C9iFC28jArHm1AauGi852O5dMTPSaDzR6Nlje2R/PzBIM+/NNPP5vSf5/a0IIQSIaGh/8WtARP0YGiJJDA2RJIaGSNJf3QcePnzo3ZLoGnr27NmJYydCAwBPnz71Okx0raysrHge5/SMSBJDQySJoSGSxNAQSWJoiCQxNESSGBoiSacKTWcziUgk0veT3OwA2EUxEkEkksRmx+8qRKNJMjRmKKZXD/wadtkBSzJFdEVIhKaDzeRdVAEAM9g4NGAY1s/hBmIAgDmUDQOG8RrLk2afVy+GDxjRKBg+NJ1XMJ//GWwc2qGwTC6jvDzpmp51sJmchj0oHaxOIxJJIpmMnBx5OptIRiKIRIrYdd+XKGSGD81/3sHMzNf4uzMwUmIolRYBAAerP3UDsvvTKg4AzGw8xtzA/kSXb+jQdPS3fk1cJrH8+hAbM+a7mY1DGEYZc3OPrWNV7OwCwC52qgCwiNLyqdNIdGGGDs2kaq5acPACr860pp/EsjXaVHd20dl8Yq6TFuc5ytBIGDo0mJuHNbHC6rRr7dHZRFHm0zF7tKk+wT9eHJjrpMeMDI2G4UODOZSfL1qvq7jr/J5mehXek7dJdAeo1WnHQt8ebQ5wcHDWdRLRxZIIDYC5MgzjORbhNoOvP/LUzz3ewIznifnudRZLy2BmaFR47twczPwupjzsucllvDaWT7TsrmWwiHnOzGiEnCI0Z7NbjOButfd+8XmZHwDQSJGbngVs8bmBMhNDI2bgSFOv1wedPp0vq6h+ab3+Xx3ncQuis8hkMgPP+07P/C5AdFVMTEygVqv5NfMPDayLndXx8XEg1yE6D8fHx35Nui51TUM0ihgaIklDTc9sMkOYjVMyumqkQjPIu3fv+t7funUL4+PjH21PNKoCCU2z2cRvv93vO/b55wV8912JIw1dOYGsaR49egRNA374AXjwANA0YH+/gvfv3/t1teioJPJoepxp5hOo6B4niC5JIKGxffopcPOmXyui0RZIaF6+fIk7d4DPPgO++AL48Ufgq6++x+3bt/26emrmFSiKAkXJg38wQGETSGii0Sh++aWDO3eAn38G/vjjX7h/P4exsTG/ric180ijASEEhMgA234diC5WIKFx+uYb4M8//403b974NfWkH7WQy6Ssdylkcj4diC5Y4KH5/Xfgk0/+hmg06tfUkzoVx3bd/khAx1HLpwPRBQs8NJEIIMR/8eHDB7+m3lIllFtpa02zAM2vPdEFC+R7GgAYHx/Ht9/+E7/++gb37n0vOdKoKOxtOV4LFHx6EF2WwEIzNjaGe/cewTAe4CY/d6YrTCo0ft/uT0xM4MaNGwPbEI26wNc0RFcdQ0MkiaEhkjTUmuY0+2i8BHUdoss0VGj8PgAYBmsEUJjJ/ELn9IxIEkNDJImhIZLE0BBJYmiIJIUjNHoFCaW/FgBrA1BYhSM0ADALaAsVMCcUduEJTXwNtayGJydK0jSRV3o1A5qwRqZ8BZWEAkVJoKLr1msFSr53AWetAa9KN0SnEZ7QAFALNcTW3Q94CltCQAiBdrmF7qbObQ2oCYh2Flp0wXwt2ii36mb/Zh7rsbZZa6AdQ51zPQpIqEIDqCisAet9D3hvpIkW93uHc2soqADUKcRns5hXzf5T8RaOdLPWwH4xao400SK237Y97kckL2ShAZDawtrbBaxbtQH0yjrQsEeaWb/efWbL1kgjBMRWCkRBCF9oAKRKWcAaVNSpOLbTHiOND7VQQ1azRhpFQZ6LGgrIUH+wee7UArolAuz3wqoSoG5BCOdJAHC2T2FrrzeKpLb2YL5jrQE6H6EcaYjCjKEhksTQEEliaIgkMTREkob69ExmK+ggQV2H6DINFZog9vazRgCFmcwvdE7PiCQxNESSGBoiSQwNkSSGhkhSSELj3J1p78Y0z+iVBBIyG8iaebn2AADHzk/X/QdhHYPrKSShATBbRtve+9LOQouaf86vFvawV1D9ep9BE3klCi3r2HvTzkKLMhDkLTyhcVILqJVnzX9Ya48cegUJayTovu/WCVCgJNxFOdy1BXRUEs4gNJFPVKA369jONfqDqRZQKwPajm7eP59Hwqoz4Kw7UHfezV2PwNWPro5whsbafOak72iIWzs4uw+4XSdACLSzGhb6hgZ3bQEVhbW4GQR7R+haAThqYTZ28v+DqlNx7FtbpPdbMdTEFlLNPNJoWCNSBti2Gn+kHkG334mr0ygLbWh018NsFt1wVZax6wR4hMyztkAqg7i2Ax06drQ4Mqn+cDg57z+bnYdqHctl7AikkMn12nrVI7D70dUSztA084gWgey885Ezd2KKdgzr9t7l1lF3StasbyM+1WvvXVsghVL2LXaaO3ibLZkjQCqD3Ha6/8ODZh7RYhxrrrWUOhU3p4zmHXDU6p1jPYLrIzyh2S8iaq9B0kBD7MH5zOqVRPc3ebz7217DgtUnjQacz+rHaguo8zFoaQ2xbiBT2BINxIu9egLm/T2mVakSyq201W4Bmn1N1iO4XoTL0tKSMAxDGIYhqtWqMAzD3eRUgrpOV7ssZnMNv1YnNXICp+lHV5r9fNrPvGEYYmlpybNteEaac2d9F5MGGpw+0RkMtTUglNwVbHyxOg0F4xqNNETBYGiIJDE0RJKGWtPIbAUdJKjrEAVNZiu+b2hkLkZ0HXB6RiSJoSGSxNAQSWJoiCQxNESSGBoiSQwNkSSGhkgSQ0MkiaEhksTQEEliaIgkMTREkhgaIkkMDZEkhoZIku8mtFqt5teE6FoZGJpMJjPoNNG1xOkZkSTPkWZlZcXrMBEBUIQQwq8REfVwekYkiaEhkvR/HrHnRgj/QB8AAAAASUVORK5CYII=;" vertex="1" parent="1">
          <mxGeometry x="2370" y="880" width="205" height="113" as="geometry" />
        </mxCell>
        <mxCell id="LYCwLjDnQvL3Gzslhouy-17" value="" style="shape=image;verticalLabelPosition=bottom;labelBackgroundColor=#ffffff;verticalAlign=top;aspect=fixed;imageAspect=0;image=data:image/png,iVBORw0KGgoAAAANSUhEUgAAANIAAACLCAYAAAAUGMd9AAALvUlEQVR4Xu3dT2gbVx4H8O8s20AhEB96aOkhwTtyG6FeTGuIFChhibeS96CWRqTbggONNRsIlQLxIay7LFuDoX+IVFiMHLbY27KHCTQ+rD1tTAkNSIUc3EOFIdasaU6FPU1KD729PcyMPBqNNLL0HI+t7wcClubNU0Lm6/fmSe8nRQghQEQD+U1YAyIKxyARScAgEUnAIBFJwCARSfBb/xMzMzPBLYmG0K1bt8KaAEFBAoCPP/446GmioXL9+vWwJk2c2hFJwCARScAgEUnAIBFJwCARScAgEUnAIBFJsIcgbaA4MoKRtj+TWNwJaud/fhD70SeRPHsIUicPcGN8BJN9XOE7i5MYGenv3G72q1+iTvoI0gQWNi1YlgXL2sTChP3sgxt/dkaL8yhZFizrLq6MdutnB1/fedCtgUevfWKP/RLJ0UeQvEZx5e5tXAIAPMCdr3cCp2Ebxdbp4OTiBhYnx3HDud4f3BjHyEgRG9jB4qTdprjh9DO5iJ0OU7ve+yXaX4Gftdub3+GFCQAdBoGdxUlcWA4+1s3yhQtdju60BIbooEkIUq8u4bZVwnn34ZVNwAnDxMIm7l4ZBbADs9n8NqyS29o3pmx86oRoAgubvuleYL9E+2vAqR0A/BcPnZEhrrZftKNXZp2p3zIujLjTtrZmbS5NnUcnO+aW/cPE6/gDc0IRMGCQNlAcuQB75nYJwde+u1Bg4badKCx/tIhB1tNG1bj9w4M7+LrZ0QYWuUpHB6SPINnL3fYNvhsi4NJtz7TNw7sg0LxXiqsYxSiaedjrosD595zVwta/yx0AGKRfoj71ESSfiQVsWhZKnWdirSYWsOk0Pv/eAibC2gcaxZW7u0vvLndq2X+/RP1R/AUiZ2ZmuEOWyNkh2+tW88FHJCJikIhk6Po+0urqarfDREdSNpsNa9Im9A3ZfjolOoxOnDiBlZWVsGaBQoME5wUG9fjxYyn9EO2Hx48fhzXpivdIRBIwSEQS9DS1c/Uz/HE6R8NgT0Hq5uHDhy2Pn3/+eRw/frxje6KjREqQDMPAl1++1fLcyy8X8PbbsxyRaChIuUe6evUqdB345BPgnXcAXQdqtTJ++umnsFMdJsopDUbAEUNLoWyCKNKkBMn19NPAc8+FtSI6eqQE6auvvsLZs8AzzwCvvALcvAm89tqHOHnyZNipgQxNgaIoUBQN/GwFHQZSghSLxfD55zs4exb47DPg55//hrfeyuPYsWNhp7YzNGSwDiEEhMgCS2EnEB08KUHyeuMN4Ndf/4H79++HNQ1kbteRz6adR2lk8yEnEEWA9CB9/z3w1FPnEIvFwpoGUscSWFp1lx1MbNdDTiCKAOlBGhkBhPgffvnll7CmwdKzKNUzzj3SNPSw9kQRIOV9JAA4fvw43nzzL/jii/u4ePHDPY5IKgrViudngULIGURRIi1Ix44dw8WLV2FZ7+A5roHTkNlTkMI+pXDixAk8++yzXdscdTMzM2FNIqfXugTU2Z6CRL25dev9sCaRMTPzQVgT6oH0xQaiYcQgEUnQ09Sun31IQWT1Q3Lx/2VwPQUpbJGhF8Nbs+EeNOVSyyedztz8FrXiKfuB+U8kY/9BrnEHRbVTH10Mer6k/9/DbtBfJpzaPRHjuNl4BCEeQYhlvHTtVSjaPfuQ+i5qolsI7kFTXkep01aS0PMR3gcNjEF64s6h0vgrzizdDdx/RYcTg3QQ1N8jd+bfsD9S6B0tfkQpeRKKYv/RDHdauIlrsZPOKGa317TXoSg3YLSNNr30QbL1dI9ET4hRwbWXliFq53afE8uA8ilON++B7gHYxA+nv4UQpwDc8+zZ+hGl5KvQc99C1E516YNk44h0YMZx2v9xxJiKM0uXkCz92OEc1zhyf/QExWV+A/27P+H9YsAx2lcRCpIBTXF3xipIlU2Y5RRSPRVsOGQ1H8xvoH/3Il7wjw7qu6iJR/gXrjnTsg7nU+REJEgGNCUDrAtnZ6xAtaBCLVRRLaiAWUbqyFxV96DF/o6X1heQRjC1eAeNm+P44WHYyOTj3Ht9EDqikWyRCJJZnsdSfh0V/5VlaEiVy9BiRdSWMlCUFFIp7whjQEuV4R9wolfzwbnRV05CUT7F6caj9n8rABg3mosEsWsvOlO0c8jme10oOIVizVleby42YI99UD8isdjQ2Kp5tpf7TaHSAOofjaFaSdvhWjNRKKgwy/PAXBWqN0rNmg9pZ6SrA7Mdun4izqEiHqGCTs6hIpzFBXUBQiy0tUhXHkF4Omi295/ffNz+ev4+SK5IjEixeBL17R5vZNJZJPQ1mDCxpifgzx9rPtBBiESQ1KkcUJzucVEgjdncFtaMNWzlZtvuM1jzgQ5CJIIEtYBqIwc91rpqt3t8Crl6Bopir8ypU3HoGR3xqYA3RVjzgQ5AJO6RACdMwl+poYKqM+S01HFobKGWn0O1maNo1XzgZrnhE50g9cREORVDsZbHuui0OHGwuG17OB2yIB38aEMUJBr3SESHHINEJAGDRCRBT/dIg27DdcnqhyhqegqSjD39w1uzgQ6DQX/Jc2pHJAGDRCQBg0QkAYNEJAGDRCRBNIJklpFSWmsrRLLWAlEH0QgSACQBfbp92zjRYRCdICXmsJLT8VFbjRNvdSGnUpBZRkoro5xSoCgplE3T+VmB4imS4q3dcFRKp1A0RSdIANTCCuLz/os+jYpTWahRqqO5+XVJB1YERCMHPTZt/ywaKNVX7fMNDfPxhl2VqBHHKueJtI8iFSRARWEOmG+56HdHpFixtvt0fg4FFYA6hkQyB3uzrIqxRB3bpl27oVaM2SNSrIilrUbA6xHJEbEgAUhXMLc1jXmn1oJZnm/Wu2uUkmFnt0iWGs06eSKw/hWRHNELEoD0bA5wBh91LIGlTMCIFEItrCCnx5o1II5MfUmKpJ4+tLrv1AKqFd9jt36DWoFoK8jmbZ9Gpbo72qQrVaeyEHfT0pMTyRGJ6LBhkIgkYJCIJGCQiCRgkIgk6GnVbtBtuC5Z/RBFTU9BklFrgTUbKMoG/SXPqR2RBAwSkQQMEpEEDBKRBAwSkQQRCZJ3F6y769U+YpZTrd/eF8bQ9tYecL53Kfj1u2FdCXJFJEgAkiU03L1DztdgagagFqqoFgK+4lIaA5oSg57z7F1q5KDHGBLqXXSC5KUWsFJK2l+q7I4wZhkp7/fLttRtUKCk/IVT/LUeTJRT3nAY0FJlmMYqlvLrrWFVC1gpAfqaab++piHl1H3w1oFY9b6avz6E7zw62qIZJGdDn5e5piPh7JRtXvRu3QYh0MjpmG4ZQvy1HlQU5hJ2ONydt3MFYLuOZDwGP3UsgZqzPb1Wj2NFVJA2NGSw7oxcWWDJadyhPkTzvLbe6aiJbJBM3wVuF0bxVQRy6zYEBC+w1kM6i4S+BhMm1vQEsunWwHh5Xz+Zm4LqPJfPurFII5vfbRtUH8I9j46+aAbJ0BArArkp72Vo73gVjTjm3X3j9e3mdM5YXUJibLd9cK2HNGZzW1gz1rCVm7VHinQW+aVM6wKFoSFWTGDOd2+mjiXs6ab9Ctiu7x5jfYjhFp0g1YqIufc0GWBdVOG9js1yqvkbP9EcFXRMO+dksA7v9dup1oM6FYee0RFvhjSNilhHorhb38F+/YApWXoWpXrGaTcN3e2T9SFI+Fy+fFlYliUsyxLLy8vCsix/k77I6qepURLJ/HpYq3breYF+zqMjzb0+3Wvesixx+fLlsNOaojMi7TvnvaIMsM6pF0nW0zaKSPJXHgrFqkK0f4ZoRCLaPwwSkQQMEpEEPd0jDboN1yWrHyLZBi2DEBqkQV+AaBhwakckAYNEJAGDRCQBg0QkAYNEJAGDRCQBg0QkAYNEJAGDRCQBg0QkAYNEJAGDRCQBg0QkAYNEJAGDRCQBg0QkAYNEJAGDRCRB6FbzlZWVsCZEQ69rkLLZbLfDROTg1I5IgsAR6fr160FPE1EHihBChDUiou44tSOSgEEikoBBIpKAQSKSgEEikuD/C4RmKjZugwAAAAAASUVORK5CYII=;" vertex="1" parent="1">
          <mxGeometry x="2370" y="1037.5" width="210" height="139" as="geometry" />
        </mxCell>
        <mxCell id="LYCwLjDnQvL3Gzslhouy-18" value="" style="shape=image;verticalLabelPosition=bottom;labelBackgroundColor=#ffffff;verticalAlign=top;aspect=fixed;imageAspect=0;image=data:image/png,iVBORw0KGgoAAAANSUhEUgAAAMsAAAFOCAYAAAAo8ensAAABU2lDQ1BpY20AABiVY2BgPJGTnFvMJMDAkJtXUhTk7qQQERmlwP6IgZlBhIGTgY9BNjG5uMA32C2EgYGBoTixvDi5pCiHAQV8u8bACKIv62Yk5qXMnchg69CwwdahRKdx3lKlPgb8gDMltTiZgYHhAwMDQ3xyQVEJAwMjDwMDA095SQGILcHAwCBSFBEZxcDAqANip0PYDiB2EoQdAlYTEuTMwMCYwcDAkJCOxE5CYkPtAgHW0iB3J2SHlKRWlIBoZ2cDBlAYQEQ/h4D9xih2EiGWv4CBweITAwNzP0IsaRoDw/ZOBgaJWwgxlQUMDPytDAzbjiSXFpVBrdFiYGCoYfjBOIeplLmZ5SSbH4cQlwRPEt8XwfMi3ySyZPQUnFXWaGbp1Rm/ttxsf80t3NcspCxGPEU2p600rK63Q2eS2ZzVy3s23d4389Tx66lPyj/+/P8fAEeDZOWRl0f5AAAWG0lEQVR4nO3dMYgb6d0G8EcfiSFgsIoUd1xxsBltQKgyyRbSNV/hvWjVyCEn7siBXax3MBwnFXaxfFukWDDEFyIdhI10ECySagyxGmnO5+5AW2zhNGLhVnPbHqSSwxXp5itmRpoZzUh/SbOeWen5gcHSjkbvCj16Z3b3mTdlmqYJIprrf+IeANF1wbAQCTEsREIMC5HQT9w3Hjx4EN9IiBLmq6++8tz+iX+DL7744m2OhyiRHj16NHUfD8OIhBgWIiGGhUiIYSESYliIhBgWIiGGhUho4bBcnuwinU57/u2eXF7N6BLI/f2Lvu/LE+ym00ina3i1yjYUuwXC8gq1dBq3D88iH4TzBkx+6C7x8sXk+z978RJJHzFFRxiWS5zsfoRnAIAdPHk9wmhk/3v9BNmVhuB9Ayba5Uu8OAOwcx/3dwCcvcBLpmVjyMLivEmwgyevv8HDLdfXth6i/nALeFWzDk92T+xP20uc7FqHKzX72OJVzX/49gonu7fhTFZnh7c9hyL+7dM190GKNdOl07s4uXT+P9nG/dia79jGu99dTCY095jtfY6/H+Dy5QucAdi5+zk+v7sD4AyHX/oPnFxjSadRexn0gs7bZvY4wscf9Bpfzryf5GRh+f47WFm5iw+35m8e5PJkFx89E2+Nk9309PbPPvK8aSxnOLztzHrWNru73ud69tQbYO9+z3B42/uGs3bj2icA4BW+PDwDsIO7H25hS7Hn02dd13mGewa2v3x4CO+8KdkmbByzxx/2Gi/22lMYUVgujfMIn/I+ntuHcN88vIOH37zGkx3rKztPXmM0quPOqy/t2cZ1yPf6CXYA4OwQ/g/z+89HGI0m+znDXbwejTB6ft++4zt8DwDj/U7GYG1yhhf+46n7z63n/eYhtgDgVdd60zofGHdKsPb+DN3xVBgwbmcMWGCbsHGIx+9+jbcE95OEKCzjT9EVjtG3Hj4ev7k+Cjk8cozD6Z7Jtj7E3Z2grXfwy18AwBacYe7c/dB6g//ilwh8iGsMYZ+490t3PLdfde0Nzw5xO51GOj35xH9mpyVw3L4xSLaZNY5Z4w97jRd57Smc7DBs/Cl6hsPbvh9vXp6g5j6GcT7Fx+c5452g7vk0dB8eeU3Cae8L3vMmKxyrmHzCjkSftK/QnXUYYx+KBY3bOc9xSLZZfvxhr7H8tadwwp+G3UF9fKgw+XRKp9NI3z7EOdyfjvbXb7+A++PSfYI5/jTMKthyzQjjE/w7n9uHVK7nun248nmT+9DJ8z1MnQf5OIdgU2/S595DsYD9T/2oXbLNkuMPe42/D33taRHy37PcqbveHG7WCS+2HuKvTybpuP/8r7g7a387T/C6bh1i3Pn8ie8wZMtzLuPa6eQcYil3UB8F7HemS5w8td9h90vwHhTdQcn5pLbSgvpr9/dyH89f+783yTYRjd/1Govup5lS7uuGPXjwgE1JIrsp6a8V82/DiIQYFiKhqQtWODqdztsdCVEClMvl0K+FhmXeA4nWya1bt9But2duMzMszk5W9ebNm0j2Q3QV3rx5I9qO5yxEQgwLkdDcwzCHdKpy46EXrRNxWGb57rvvPLffe+893Lx5M4pdEyXGymHRdR3//Ocnnvt+9asqfv/7x5xZaK2sfM7y2WefQdOAP/0J+PRTQNOA09MGfvjhB+EeDDQKKvSAr+hqAQ1j1RESRSOyE/yf/Qx4992o9kaUPCuH5euvv8YHHwA//znw618Df/4z8Jvf/BHvv//+UvvT1RRSqRRSKRX8GwJKkpXDkslk8Pe/X+KDD4C//Q34z3/+gE8+OcCNGzcW35muYg89mKYJ0ywDrVVHRxSdSH/P8tvfAv/971/w7bffLvV442KAg3LRvlVE+SDK0RGtJtKw/OtfwE9/+r/IZDJLPV7ZzqHVcU71DVwMohwd0WoiDUs6DZjmv/Hjjz8ut4PiY9QHe/Y5yz1oUQ6OaEWR/FLy5s2b+N3v/g//+Me3+PjjPy44syio9puu/5uoRjEooohFEpYbN27g448/w2j0Kd7lz49pTYnDMu+38bdu3cI777wTxZiIEol/dUwkxLAQCTEsREJzz1mW6bFc5X6I4sIOPm08dvCJIsawEAkxLERCDAuREMNCJJSYsBiNAgozCvdhfXz29OltSUhYdDzVAGhd8H1PSZWMsOgdDCpttCsanrou8xLWxw+8X1dRUFUUUtaVYtzb6ABgNFBIWfcVGsb0baI5EhEWvTNApaRAKVUwcJqSYX38GT3900EWbbOJoq7iODu0thlm0WkYMLoacj0TpmmiX1WmbhPNk4Cw6Oi0TlHLpJDK1HDa6kCf0cef1dPPV0pQ7G1OaxlrZsnU0DofQqm2kT2ezDT+20TzxB8WvYNB3Z4FTBPD+gAdPbyPL+3p5137NJvFcQvTHGZxrOoBt4lmiz0sziGYY3woFtbHF/T0lWobFc2eWVIpqLr10zZnpsmVi1O3ieYyXfb3983RaGSORiPz2bNn5mg0MqMQ1X6IroLz/nTe86PRyNzf35/aLvaZhei6YFiIhBgWIiGGhUiIYSESYgefSIgdfNp47OATRYxhIRJiWIiEGBYiIYaFSCj2sHg79DrUlO92obFw1Zi9fLoKsYclkwXOh/YN4wLIu27rHQzsQhdR3GIPi7tKbHQ1oDK5Pem66FBTvk79jM59Z/ZTEi0l9rBAKaEy6ECHga6WQ7laQgUXMGDgYpDDtgIARTR9TUr4OvdhvXyiqMQfFijYzg1wYQxxniujCAXb0NDVu9ByZVgdxsnMkqmdjh/p7tyH9fKJopKAsADFcg7avWMMspnJ7WNtXPc1GsdAz5lZ8lOPl/byiVaRiLCgWEbuFJMufiYLnAJ2dqww7E3PLJPHz+/lE60qkqW9V1dE03RdNEKpom9WXV9uwjSbvsc00R8/xLpSSxVEVycZMwvRNcCwEAkxLERCDAuREMNCJMQOPpEQO/i08djBJ4oYw0IkxLAQCTEsREIMC5FQAsLibkGmkHJ18I1GYaGVhOXbG2gUgteSZH+fwiQgLADydQyd9R+HFWgZa2k7pdoPXknYaKAQsA5k6PYzHkMklYywuClVtOt5q8ylqwFr1jegZmo4be1ZfXx3F9/ZHq41JFMpqLrufYzvKdnfJ4nkhcUue7l516yvojmsI3/Qg2k2UXR38ccPaOCeVhnPVs1iceoxY+zvk1Aiw2JcDJB3apKCNevzvsslGV0NuaOq6BJK7O+TVPLCoqvI1OBZ7nvRNeu9nfxFtmV/n8IlIyynNWScn4btAT2zD/d5+tSa9UoJlUHw+Qdg1ZB72HOdsyD8Mezvk5R7ne/9/f3xOuDOmuBRrjNOlETO+9N5z49GI3N/f39qu2TMLETXAMNCJMSwEAkxLERCDAuREDv4RELs4NPGYwefKGIMC5EQw0IkxLAQCTEsREIJCYu3h19oGOzTU+IkYOUvHar1d/kwPRXGPvqwu/NPt9FvFkP3QPQ2xD6zGI1jtA56mMqCrvr69gUUCu6ZQodaaMA/cbBPT1cl9rAMz09dtV6/kqs730f/KAet61yQ4hjwV4fZp6crFHtYMtk8BhfCE4tiGTmtCwMGuloO/oyxT09XKfawKKUKULsnPBEv4nHlHF29i/PKY/jnI/bp6SrFHhYoVfTtC+u5fxo2+bq3O6+UstD2NGRLAdduYZ+erlACfhoWsO494Fnn3rPG/fAcpwdH6I+zoqDab7r+79qWKELxzyxiBhoF++ov/DEyxSAZM4sIZw2K1zWaWYjixbAQCTEsRELs4BMJsYNPG48dfKKIMSxEQgwLkRDDQiTEsBAJJSIsk3ZjarI6ccByePJefjSP818bIMWlwTda/H8bNm43uv44MuR9rVTtXv6Cln0cACBfx7AvW8yV1lv8M0smi3yrE3B1lgvrr4xTKaScrr2zzr3RQEFtTH897P55j/N199U5V4Vxb6vPuI/WS/xhUaroD7M49h/mtDSgbcI0h6hDQ9f/5h1/3cSwouGe8+4Ou3/Wfmd1912Lw6q6te1xdmhtO8yi0zCC76O1E39Y4JS/TAyzx5PAHBzZKxYrKFWA86HvMeOvW3XiufdPfX2y35nd/XwdQ9MKX7NobXtay4xXT26dDwPvo/WTjLDYlO0cMLgIO2Xxcm2nd1rIbSuz75/zvIt09/N1exYxTZh2ES3oPlov8YdFVyc/bdoboN6WnkxruGc/bg/u646F3T/DAt19pdpGRcuMx6zqwffRGnKv872/vz9eB9xZEzzKdcYjM6yb+YOe/P6F9MwDHJir7oWuD+f96bznR6ORub+/P7Vd/DNLEhgNFMa/T9kDes2pyywRxf97lmUoVYwv6CK5X7K/qavLEHlxZiESYliIhBgWIiF28ImE2MGnjccOPlHEGBYiIYaFSIhhIRJiWIiEEhCW8HXspzrwqfnr2juNxYX+8tdpUhLNkICwzOEqX5n2cnrhQTBwAWv7pSolIRfKIELiwuL669/AT3qlinY9Py5q+XvvuppBrVVDJlVAw3DPSvbM5ZtBdE/Xvgs1U8Npa489egqUqLAYXQ25njWL9KvBFbBxVTig915sDlE/qGNo9lFVimjaM9KwPkBn7ru/hOawjvxBD6bJP9GnaYkKi1JtI3s8+wopxsUA+WxG0HufzCyZ2ulbGD2tu0SFxVk30hxmcRx07qCryNSAir2s96zeu9E4BnrOzJK37sxkAa1rd/R1dFrTT0EUJlFhMRqF8UyRc6624roUUWoP6Jl9VJX5vXdlO4fWnm9mUUqowNlfBzjwDUApoTLgOQuFcHeMr00HnyhC7OATRYxhIRJiWIiEGBYiIYaFSIgdfCIhdvBp47GDTxQxhoVIiGEhEmJYiIQYFiKhhITF27VPZh8+/FoB+pzVjWk9JCAsOlTrb+/H3ZSwlmQg9ubpLYk9LEbjGK2DgLUfw/rynp5+Y6o3P+7EuJcKNxooqA00Cs4VYgz7/97lxKfWstdVFFQVhYB+i3vbzhW+PpQcsYdleH7qWlZ7Pm9Pv+rtzesqMudH4xmqh71JKaylAW3nCjH3rP+bQ9QHnXEwgtayPx1k0fZ38nUVe+jZz1MG2LjcCLGHJZPNY3AhP+Cf1dP3rmcPFMsHk30fHKGqAFC2kctXYDWTFWznBrgwgte3B4B8pTS1erL3eYoo+xuXtJZiD4tSqgC1e9MnyKF9+fCevnc9e0DvtJDblp//SNey9z6PgYuB+CnoGos9LFCq6NsXz/P8NCykLz/V03f35otN9LA33s8eAs6FQoexwFr2xceoD5znuQctkheCEs/dMWYHnzYRO/hEEWNYiIQYFiIhhoVIiGEhEmIHn0iIHXzaeOzgE0WMYSESYliIhBgWIiGGhUgoIWGJp4M/6c57n99qU76VIdA1koCwrNjBd1ulj5+vY+h0WezKQOiu2PvfSLGHZWYH39V/n+rHw7/OvT7Vx59+jLA7r1TRruftgtdyz0PrJ/awzOrgj/vvgf14/zr3xak+/tRjFujOK9s5+39LPA+tpdjDMquD7/Tfg/vxs9e5D3rMIt1542KAfDaz1PPQeoo9LKEdfB9/Pz5wnfs5jxF353UVmRpQKSlLPQ+tp9jDEtrB92wy3Y8PXefe7uMPgzr1s7rzp07fPwXr5w19VJUln4fWk7tjzA4+bSJ28IkixrAQCTEsREIMC5EQw0IkxA4+kRA7+LTx2MEnihjDQiTEsBAJMSxEQgwLkVBCwhJzBz+gJsy17ckvAWFJSAefaI7Yw5LIDr53gCj4Zryp/frGSusp9rAktYPvMLoacj3XjBfSuR+PNeoXiBIj9rAktYPvUKptZI8ns0hY594ZK62v2MOSiA6+so1c63gyBqOB41YO2woAKKj2rVnk2D4fYud+M8UelmR08Ito9nKoOWPIaKgMrUMqo1EYzyK5cjFwLLQh3B1jdvBpE7GDTxQxhoVIiGEhEmJYiIQYFiIhdvCJhNjBp43HDj5RxBgWIiGGhUiIYSESYliIhBIQFh1q0LrzRmPh5qHTmzcahalWY6FQEHf7J/1777UBUkHjpI2RgLAAyAPaU98FI55qQHBNZS6l2rd7/AYuYK1v3+/3l+v2563HW81Iq0oQ+mf5vAbAWktGWHJHOIKrfAUdHVRQcW0y7pWkUki53pCBnXpdRaFhQFczqLVqyKQKaDTU8A69tJuvVNGu5+0C2XLXAKDrKxlhAVAs56B1rTez0egg+7g0+aKuInN+NG4n9rBnfbrP6dQXm0PUD+oYmn1Utyf7WqWbr2znnL0vfg0AutYSExYUH6OiPYUOHU+1LEquIyZvdx4olg8wuDCW6tSv2s03LgbIZzNLXQOArrfkhAUKqkdAR+0AR1XPxR+83XlA77SQ21bk69r7iLv5frqKTA2olJSlrgFA11uCwgKgaB0CTV0ZqdhED3vjc5Y92NcZm7WufYjADv2s/ZzWkHHOTfaAntlHVVnyGgB0vbk7xuzg0yZiB58oYgwLkRDDQiTEsBAJMSxEQuzgEwmxg08bjx18oogxLERCDAuREMNCJMSwEAklICwJ7uAH1IQn/XzaNHN/dPxW2B38qqvzYXXwczMfFkap9tEHXB38KhdHpZUlYGa5Rh18N6OBgm8NzKn96ioKqrrwDEnJlIywXKMOvsPoasjZTcl+VQneL4DTQRZt01rMla63xITlunTwHUq1jezxZBYJ69znKyUeAq6J5IQliR18ZRu5luvw0GjguJXDtmKPt2/NIsf2YSE79+stQWFJYge/iGYvh1rGPhfJaKgMrUOq8TlUpoZcuRi8X1ov7o4xO/i0idjBJ4oYw0IkxLAQCTEsREIMC5EQO/hEQuzg08ZjB58oYgwLkRDDQiTEsBAJMSxEQgkIi2+t+UIDq1Tc3f371RhoFIIbjuzhb6YEhMW71nwvV8O9Fd6JSnXJ9e6J5khGWFyK5QOcng+n+uvTHXwDjULBU8wqFBow7P69dWWWBhqF6RnLvS+ndzJvzfqFO/q0dhIXFr3TspfOdvXXAzv4CqpHrt5+V0PO17BESwPaJkxziDo0dO3LG93TKuOZrFkM6eV7BrV4R5/WTzLC4loReA+98WGU018P6+CjWEZO68KAge55BY/9DcuDI1TtCnCpApwPg0M1b836ZTr6tH6SERbXOUtQdz2sgw8U8bii4an6FFpWdmEI/74mQwjvzy/b9af1koywzBPWwQeglCoYtIAj6Um9b1+qHtLL9zxm8a4/rSF3x5gdfNpE7OATRYxhIRJiWIiEGBYiIYaFSIgdfNp40sr7zLCwN080wcMwIiGGhUiIYSESYliIhBgWIiGGhUiIYSESYliIhBgWIiGGhUiIYSESYliIhBgWIiGGhUiIYSESYliIhBgWIiGGhUiIYSESYliIhBgWIiGGhUiIYSESYliIhBgWIiGGhUiIYSESYliIhBgWIiGGhUiIYSESYliIhGYuZtRut9/eSIgSLjQs5XL57Y6EKOF4GEYkNDWzPHr0KJ6RECVcyjRNM+5BEF0HPAwjEmJYiIQYFiIhhoVIiGEhEmJYiIQYFiKh/we3Ljx4aGLlqgAAAABJRU5ErkJggg==;" vertex="1" parent="1">
          <mxGeometry x="2610" y="868.5" width="203" height="334" as="geometry" />
        </mxCell>
        <mxCell id="LYCwLjDnQvL3Gzslhouy-19" value="" style="shape=image;verticalLabelPosition=bottom;labelBackgroundColor=#ffffff;verticalAlign=top;aspect=fixed;imageAspect=0;image=data:image/png,iVBORw0KGgoAAAANSUhEUgAAAMkAAAG1CAYAAABTUdALAAAXMUlEQVR4Xu3dMWgj+d3G8UcvyUHg4FykSEgR2IwcEKqWZAvrmrfYvchufCEnLiTgLfYsFo7IxW2xvC5SGBayCZECLxs5ENYklRZyatZK7roDudhi0wjDWcq2gbfShRTp5i1mRhpJI/1ka+wZe74fOLDlmZEW9Mx/xudHv5zruq4AzPVf1gZA1hESwPC14IuPPvpo8ZZAhvzhD38YfT0KiST9+te/jtoeyJRPPvlk4nsutwADIQEMhAQwEBLAQEgAAyEBDIQEMJwrJG+e3dPa2trEf/eevbF2A661JUPyufbW1nT78Strw3MLgkfYkFZLhOSNnt37QM8lSXf05PVQw6H/3+snKli7L/RGf/s0/uABcbJD8uZv8t7Hd/Tk9Wd6eCv0s1sPVX94S/p8z7v8uvdM3nrwRs/ueZdje597m36+N32Z9rme3butYHF69fi21tb25G8+s/1acCDvp9pbW9Pa2j09exN8Pd4mvO/EbjPHvafxAhZ+zf4xR/8eZJkdkn98KS8j7+u9cEDO4c2ze/rgubVVwHuzzmz//IOIN+0rPb4drHLeNvfuTT7X86eTwZ087is9vh0OSnCY0DGReWZI3gxOrU3O4b5e+Jdqnz28q4efvdaTO95P7jx5reGwrruf/85fXUKXdq+f6I4kvXqs302tDPdfDDUcjo/zSu/r9XCo4Yv7/gNf6h+SNDru+DV4m7zSp3+bSsn9F97zfvZQFzwv4AYxQ3LL8e86Xn2q6ffSsm49fCTvLftcH8y5DAqMQhleuW69p/fvRG19R9//niTdUvAy77z/nvfG/t73FblL6DXMW93ub92N/gEyyQyJ7m75b/BXenx7fM8gSXrzTHvha5XgrD26jxkdRPWJs3f4MmjSOJT+sTR5X+SFYhXjlWQ4WtVYLzCfHRLdVT14Z4fOwmtra1q7/VinCp+1/Z/f/lTh03j4Znl09i44uhVaAUY37nd/4V86hZ7r9uOV74vGYZ/6N3BzDsMSIZF0t67h8IXua9odvf/eLenWQ/3+yTgV91/8Xu/PbBve7Yle171Lmru/eDJ1WXRr4l5l5P6LFe8R7qo+jDguYMgFn5by0Ucf0UwE/GZiuL673EoCZBghAQwTHwQRaLfbUQ8DN9r29nbk45Eh0YIdgJvmnXfe0dHR0dyfzw2J/J1X9dVXX8VyHOAyfPXVV9Ym3JMAFkICGBZebgWWWZKmcYmFm2KpkCzy5ZdfTnz/ne98R2+//fbc7YHrZqWQdDod/eUvP5147Ac/qOlnP3vESoIbY6V7ko8//litlvSb30g//7nUakknJw3985//tHb1DdQoVdWJ+EmnWlJjEPED4IqtFJLAN74hffvb1lbA9bRSSP7617/q3Xelb35T+uEPpd/+VvrRj36l7373u9aukTrVnHK5nHK5qvh//kiLlUKSz+f1pz+90bvvSn/8o/Svf/1SP/3prt566y1r11mdqjZ1LNd15brb0qG1A3A1VgpJ2I9/LP3nP/+rL774wto00uCsp93tsv9dWdu7xg7AFYktJH//u/T1r/+38vm8tWkkZ72ow3ZwCz/QWc/YAbgisYVkbU1y3f/Tv//9b2vTaOVHqvc2/XuSHbWs7YErstL/J5Gkt99+Wz/5yf/oz3/+Qh9++KtzriSOat1m6GtXNWMP4KqtHJK33npLH374sYbDn+vb/B4YN9BSIbH+7/k777yjb33rWwu3Aa6r2O5JgJuKkAAGQgIYFt6TXKRHEiWu4wBJoOOOTFvmBM7lFmAgJICBkAAGQgIYCAlgSDYkg4ZKuckuO912pE2yIZGkDam10xC5QFolH5Livo4qLT2d+ciUjqq5cee9I3/lqTbUKOWUy5XUGAz8r3PKVccHCHfloz6JBTiP5EMiyakdqXAw/YYuq+m6cl1X/XpPo9LiYUs6cuX2K2rld7yv3b7qvba3f6eqg0Lf68r3C2pz7YYVpSIkkqPavnQw8YYeryT5vZPxw7v7qjmSnHUVNyracrz914s9nQ28rvzJXt5bSfJ7OjztRzwfsLyUhERSuan90x0d+N32QeNAOg5Wkg1r7wkbdX8lcV25zbKAVaQnJJLKjyqSv2g460UdbkasJAandqRKy19JcjlVuSnBipZqJl4ap6ZRxT343vVb7k5Trhv+oSSFty+r2R2vEuVmV953dOURr1StJEAaERLAQEgAAyEBDIQEMNBxBwx03JFpy5zAudwCDIQEMBASwEBIAAMhAQwJhyTcPswpV/JrvIOGSvz5LlIi4ZBI2qir73c/jot72qFJiJRJPiQh5e1dnYyahGfj/npp/EERg0ZpvPIEq81E931ye/ruWFWqQtJpH2qj4M9cDLrsbl91tfRy4PXX86f7o9bhsTbHpao529N3x6qSD8nJnvL+yrCpY3Vrjvd40GWXo62KdNqfnvXurTy9s8HC7em7Y1XJhyR0T2L10SdnvXsrT3HdWbgPfXesKvmQnEe5qWNtju5JNnWsRe97+u6IQ7Id96me+shU992pdRV8W266mqm+z92evjtWd71WEiABhAQwEBLAQEgAAyEBDHTcAQMdd2TaMidwLrcAAyEBDIQEMBASwEBIAEOyIWGOO66BZEOiC8xx50MicMWSD8ncOe5RffaOqvk9nRxujjrrdNhx2ZIPybw57pF99rKa/bo2do/luk2V6bDjCqQiJFFz3Bf22UPb0GHHZUtJSGbnuC/bZ6fDjsuWnpBMzXGf22d3tlTpefckfTrsuALJdtwXzXGf12ef6q2X6bDjkqVqJQHSiJAABkICGAgJYCAkgIGOO2Cg445MW+YEzuUWYCAkgIGQAAZCAhgICWBIOCRTc9xX/TPeuKq9cR0HN0LCITnfzEQgCcmHZEZ4dRlXesN99+AkH91vP8f89wWPBzrVGFY4XGvJhyQ0otp7L5bV9FeWfr2ndse7/NlpVUYrTrO8YEb7aJ67q36lpZ3GYP7890Vz4f2AtLdZ4bIu+ZCELre89+J4JcnveTXFwcuWivs1hcu7c/vto3nuXgU42DaqL7+wR3+4qYNCf+F0X2RD8iGZMmgcSMfBSrIhRfTdA5H99t7Z6BIr6MXP68sv7NHvHutIOyrxCSyZl7qQOOtFHW5OriTTffdqZ9GM9pZ2pnvx8/ryxlx4p9bV/ml+4t4GGeT6Hjx44A6HQ3c4HLrPnz93h8OhG4e4jgNchuD9Gbznh8Oh++DBg4ltUreSAGlDSAADIQEMhAQwEBLAQMcdMNBxR6YtcwLncgswEBLAQEgAAyEBDIQEMCQakolWoNVz71T5s3UkItGQOLXuuA/iHmt3o64+LSekTKIhCetUD1Q4CtqH0T33gNVLB+KUipAMGiW1t7uj2m1kzz1g9NKBuCUfkkFDO6f7U13y2Z77aPMl5rsDcUo4JB1Vd6SjqfuQqJ57YNn57kBcEg1Jp7qpw9BHCgX3GJE994DRSwfilugc9+g57ZJUljvzg6a6ZWs/IH6JriTAdUBIAAMhAQyEBDAQEsBAxx0w0HFHpi1zAudyCzAQEsBASAADIQEMhAQwJBySyTnuq3TYB42Stz9deMQs0b8ClrzZhHFMt3VqXXUlzXR9gRUlvJJEGDRUqjb8WewlNQaD8Vz2UU83ogPPCoJLknxIDoMCVUmj93gwi71fUSu/489l76vea/sLxYIOPBCz5EOye+x/qEPogyCCWezOuoobFW05kuRovdiTV2ef34EH4pZ8SC5gUQceiFvyITncPPdvtxZ24IGYJfzbLe/eYrKuXlN39EBZzW7o44OaXZUlyWku6MCPu/BAHJJfSYCUIySAgZAABkICGAgJYKDjDhjouCPTljmBc7kFGAgJYCAkgIGQAAZCAhiSDcmgoVK4bCWpU538/sJoKiImyYZEkjak1k5DV/p2HjRUCqrA4a+BCMmHpLivo0pLTyPep53qZI+9Uw1mug/UKAUrTkfVasdflaJ7KZPH6aia39NJ0GMZfR08R0R3vlpVKWKePLIh+ZBIcmpHKhxMvQk7VR0U+l61t19QuzFQvuD32QcvdSrptC+p01avkNfgZUtFv63YrTkLjpNXs1/XRlAbHn3dVDniOSXppFfQkdsUNZVsSkVIJEe1fekgtAIMzno62cuPzvaHp305WxX12h0NXp6qcLQvtTsanEmVLccPWmgFWHCceeZtu1HZEkOwsyslIfFGT++f7uigN35oo+6f1V3X+2wuZ0sVtfX0tKAtJ6/C6Gt5Qet6K8DB1D3GzHEWOM+2yIb0hERS+VFF8ivrTu1IlVZ+1H/33veOtgo99Qpbcia+9j7BMVgBitvjN3fkcZwtVXr+fUjo637kcyLzXN+DBw/c4XDoDodD9/nz5+5wOHTjENdxgMsQvD+D9/xwOHQfPHgwsU2qVhIgjQgJYCAkgIGQAAZCAhjouAMGOu7ItGVO4FxuAQZCAhgICWAgJICBkACGFIQkvlnu5zHu0k8+fy4XU8ceN0bCIemomtsczT+caRWexypd9Y26+kGHpF9RK7/gz+RXeR5cS4mGZNA40OHusWa6TVO98pne+cwc93Bvfd4+k4+1Z16Nz6npqL6hw3bnws+DmyXRkPRPT7S7Hd3+G/XKI3vn03Pcy6He+px9OlVtKhiHvS0dRj6t5A8u9VzgeXDjJBqSfGFDvbPoN1bQK4/unS+e4x61z+CsFwpkWdu7M7tN7L9RyF/oeXDzJBoSZ6si7e2YN8rTvfNl5rhP7+OsF/1LKEka6CzUpZ/QqSq/5324xEWeBzdPoiGRU1PXv1Ge99utqI565Bx3q6tefqR6L5gZv6NW+ElO9pQP7j02pWO3q5pzwefBzRP0eOm4I4vouAMxICSAgZAABkICGAgJYKDjDhjouCPTljmBc7kFGAgJYCAkgIGQAAZCAhhSEJKEO+4RddzYZsnjRkg4JCnpuAMLJBqSVHbcwyJmwzPnPXsSDUlaO+6BmdnwzHnPpERDktaOe2B6Njxz3rMp0ZCkouPurKt4eDB+DYOGDg6LWp8zG55Oe/YkGpJ0dNzLah4XtRe8hnxLlb536TQ9Gz56tjxuvKDHS8cdWUTHHYgBIQEMhAQwEBLAQEgAAx13wEDHHZm2zAmcyy3AQEgAAyEBDIQEMBASwJBwSDqqRs1NHzTO3fQLeumDRmmmRVgqlZbuzjPfHdMSDomkDan1dOqDGJ62pOiaiMmpdf2e/EBn8uazd7vdi3Xnme+OVISkuK99hUpP6qitiiqhTUa9jlxOudAbMbKz3qmq1BioU81r73BP+VxJjUZ1fkd92e47890zK/mQSCpvF9V66b2JB422Co+2xj/sVJU/3R+1AY+16Z3Njc56udlXfbeuvttVbX18rFW678x3z6ZUhETlR6q0nqqjjp62CtoKXRlNdtOl8vauemeDC3XWV+2+M989m9IREjmq7Uvtalvar018qMJkN13qtA9VXHeWn8s+Zenu+zTmu2dWSkIiqexd6sx8wlC5qWMF3fScNuV/TteiuexzRHbUme8OS9DjpeOOLKLjDsSAkAAGQgIYCAlgICSAgY47YKDjjkxb5gTO5RZgICSAgZAABkICGAgJYEg4JCnuuDPfHb6FvwK+En7HvRbqXHgd96Iuwql11ZVCHfcaQz+xkoRXkmvUcQ9jvnumJB+Sa9RxDzDfPVtSEZLr0nEPMN89W9IRkjR23JnvDl9KQpLGjjvz3eELerx03JFFdNyBGBASwEBIAAMhAQyEBDDQcQcMdNyRacucwLncAgyEBDAQEsBASAADIQEMCYZkoEYpN/rL2em2IJAWCYbE72S4fdU3dnXsut7kWms34IolGJIo0/PR/UdD/fFq+NNMpnrmwGVIWUim56PP77LP9MyBS5KykMzOR5/XQZ/umQOXJVUhiZqPPr/LPtszBy5DqkISOR99Tgd9umcOXJbkP8FRjmrdpvdluSnXbUb83FVN8i/H2lp3vE9qdGuzRwPilqqVJFLot1i53KZ0zK+JcbVSsJIYnJq6LBlIUPpXEiBhhAQwEBLAQMcdMNBxR6YtcwLncgswEBLAQEgAAyEBDIQEMCQcknATcXKy7oVEzF6/kMjjTL7WVdqQo1nznepKx8HVSP5vtzbq6nevyaz13eNY5iGOZs3HkGdcvoRXkijRPffwLPfgJB81k106G38KS6mh8VzQ6Fnw8x4PdKoLVrhBQ6Vqw3++khqD0CfAjPaJ+PewglwryYfkZE/5iTd/RM990NBOq6K+/3izPGcmuyQdtqQjf/9KSzv+Zc28WfCRj/s61Zza26FpuodB+as0nsobPF+/olZ+x3/uvuq9th/ciH8PrpXkQ7JRn3zzR/XcX7ZUnBpdPW92unb3FXwuhLNeHG1rz4IfPy55gTgo9DVxdbUbfCBFd/Qco+dz1lXcqPgz6B2tF3vyDjX778H1knxIptg997HI2em9s9ElVvTMd/txyQvEkXZWviyK+vfgekldSKJ77pOz3KudOTPZJUkt7fiPjWe+z5sFP+fx4LXUuto/zY/vbQ7H2y4bnsh/D66XYFY1c9yRRcxxB2JASAADIQEMhAQwEBLAQMcdMNBxR6YtcwLncgswEBLAQEgAAyEBDIQEMCQckmvUcY94rFMNla/OZaBGKXrW48WPicuScEgmS1dx9MeBuCUfkhnXqOMeiJgpP/PaOlWVqlWVIqYFh7dtRx0fiUo+JNep4z7HzEz5Oa/tpFfQkTs1zm7OnHqkR/IhuU4d9zmmZ8rPe20bla2Zj06aN6ce6ZF8SKaktuPurKt4eDC+qR40dHBY1Lr/wQ/TM+UjX1uE+XPqkRapC0l6O+5lNY+L2sv79w/5lip979Jpeqb8/NcWYc6ceqRI0OOl444souMOxICQAAZCAhgICWAgJICBjjtgoOOOTFvmBM7lFmAgJICBkAAGQgIYCAlgSDYksfXGQ1NvI1qNwCqSDUls/D6H21d9Y1fHrit3ugEIXFB6Q7JSb3ygRim8InVULTU0mJi7PtmBj+7LAykOyUq9cTmq7RfVeultM2gcSEH9d04HPrIvD6Q5JKv0xiVJ5W0VWy810EAvW0WNauRzOvCRfXkg8ZBcUm/cU9ajyqledl7qtPJovNJEdOB17mMjS5INyWX1xn3OVkGtzZYKW+G1ZrYDf5FjIzsW/oHjlSg35brNmYedWldubeIR1bquJh5SU92Jk76jWjd0rP6pTnb31Q1npLivbnd6pYg6NuBJeCW5LP7/N9mUjrl0woqSX0kuxZyVwampO7toAQvd0JUEiA8hAQyEBDDQcQcMdNyRacucwLncAgyEBDAQEsBASAADIQEMyYYkto67mI2OS5NsSIBrIL0hWanjzmx0xCe1IVmp485sdMQotSFZpePObHTEKdmQXFLHndnoiFOyIbmsjjuz0RGj5JuJsXXcw/12OuuIT8IrCZB+hAQwEBLAQEgAAyEBDHTcAQMdd2TaMidwLrcAAyEBDIQEMBASwEBIAEPCIemoGp69Xu1E9t49dNiRjIRDImmjrv4SHREgKcmHJNJZ5Kz1MDrsuCrJh+RkT/npIlXUrPUwOuy4QsmHJHS5Nbraipi1HkaHHVcp+ZBEmTNrPUCHHVcpnSGJmLU+gQ47rlDCHfeymtMz1Z2aut2odjoddiQjpSsJkB6EBDAQEsBASAADIQEMdNyRactUy+eGZJmdgSzgcgswEBLAQEgAAyEBDIQEMBASwEBIAAMhAQyEBDAQEsBASAADIQEMhAQwEBLAQEgAAyEBDIQEMBASwEBIAAMhAQyEBDAQEsBASAADIQEMhAQwEBLAQEgAAyEBDIQEMBASwEBIAAMhAQyEBDAQEsBASAADIQEMhAQwEBLAQEgAAyEBDF+b94Ojo6N5PwIyJTIk29vbUQ8DmcTlFmCYWEk++eST+VsCGZVzXde1NgKyjMstwEBIAAMhAQyEBDD8P/7rsu0FlmBPAAAAAElFTkSuQmCC;" vertex="1" parent="1">
          <mxGeometry x="2850" y="870" width="201" height="437" as="geometry" />
        </mxCell>
        <mxCell id="LYCwLjDnQvL3Gzslhouy-20" value="" style="shape=image;verticalLabelPosition=bottom;labelBackgroundColor=#ffffff;verticalAlign=top;aspect=fixed;imageAspect=0;image=data:image/png,iVBORw0KGgoAAAANSUhEUgAAAM0AAAHGCAYAAADXDA8eAAAgAElEQVR4Xu3dX4gj2X0v8K8uNwuBhZ2HPNj4YcOk1L4I+WVJFlYyOMtlxykpD+2QLWzHuAc8o8oEs5Jh+2G57eXiNAxkHFa1cJlIy4ZWEvxQC1k9uFVeD5dwjdUL87B5iOiwrcpc75PhPmmDA3mr+1B/dKp0JNXpqZ4+kr4faOgpnTqlZfXVqVLr96tSEAQBiCi3/7JuABGlMTREihgaIkX/Nbvh7t278pFEO+i9995b2LYQGgD48Y9/LNtMtFPefPNN6XaenhEpYmiIFDE0RIoYGiJFDA2RIoaGSBFDQ6ToUqF58vAWbty4kfq59fDJut2ItoJiaB6hc+MGXnrr8bqBS8WBY8hoUymE5gke3nodJwCAl3H/kxlms+jnk/uorNsdAPAEH314+cAR6SB/aJ58hPD1/jLuf/Jz3LspPHbzHrr3bkbBupE5devgUTgBHt56CfEi9fitl4THgEcdcZ9bSC9E4QqXPPboIW6l5pbNcQM3OuKj8+fWeRTNd6uDzi3J6eUT+fxEUArNv32KMDPfwNfFwKx1gtdXvvjCF/PrJ+K2x3jrpTg44goXPfb6W0ivV7I5AJy8jhu3HiJ7Injyejzfl/HG4W0AwOO33p0H+N1w/pfvv4HXQJSWOzRP/PN1QwDcxL2fC6dtsw8QviTP4T+5iXs//wT3Xw5Hvnz/E8xmXbz26N1o9bmND6L9PrgNAI/x4UdPgORx4ZQwHDAnG/PJfbwMAI/fwrvZxN7+IBzz83u4+dob0XM6wekjAHiE05Pw+RzeU3p3oB2ROzQ3jeiq5fGH+GjpNbx4GnUDN26IK8Q6J3g92k9cMZKwiivc730ZLwt7Ssfc/Dq+IQ4S3G6K68dN3ItWm5PTR3jy8EH4nG83ucqQVO7Q4LVmtGo8xlsvZU63njxE5+GT5AUXriLCu30u85Um/vn5vZtCWD/Fv0Ujn3z0Yer0TDZGvAb78u9htXi1OXmAP//wcbhivcHIkFz+0OA1dJPTovmqcOPGDdx46S2IJ2/hRf4N3PjzDzNz3ETy+o4/CEjCmJkzvhaRPL7wkbdwivW68JzyX4PFq81jPH6cdx/aVQqhAfBaV7hOEb2Mb3z9Jm7e+5vkmgV4Gff/5nDho+jX3siuPq+hO/tE2C/rNXRTK9ZtfLCwgqWvl+ZDPwivW5BDEk7g9mHOfWgnlbItnO7evat55abw0fXL9/FJ3lCs8eThrWgFu40PZl1ezxDefPPN/OXOekn/fUdUxIrwqJP+4OH2BwwMrbYBoZG5mtXg9gczdIuelLbOytAMh8NVDz8zX/yLE5z8RXrbfwyHKOTZ/eEJTv4w+v0/htDkP5mu0f7+/srH16406yYg2hYvvPACBoPBumHrQ4Nosqf1+eefFzIP0VX4/PPP1w1JqH3kTEQMDZGqXKdnMZUlLMZTMto2SqFZ5dNPP039+0tf+hKef/75peOJNlUhofE8D//4j99Kbfv932/jz/7skCsNbZ1Crmm+//3vw3WBv/5r4DvfAVwXODtz8Otf/3rdrhEfTt2GJ3nEs+twfMkDRNekkNDEfvu3gS9+cd0oos1WSGh+9rOf4atfBX7nd4A/+APgnXeAP/qjv8KLL764blcpzy6hVCqhVLKL+as/UYEKCU25XMbf//0TfPWrwN/+LfDv//4/8a1vtfDcc8+t23WRZ6OBEYIgQBDsA/11OxA9W4WERvQnfwL853/+L/ziF79YN1TKv5igtW9G/zKx31qzA9EzVnho/vmfgd/6rVdRLpfXDZUy9qroD+OPBHxcTNbsQPSMFR6aGzeAIPh/+M1vfrNuqJx5iO6kEV3THMBdN57oGSvk7zQA8Pzzz+NP//R/4B/+4Rf45jf/SnGlMdAe94TfA7TX7EF0XQoLzXPPPYdvfvP7mM2+gy/yc2faYkqhWffX/RdeeAFf+MIXVo4h2nSFX9MQbTuGhkgRQ0OkKNc1zWXqaGSKmofoOuUKzboPAPJgjwDSmcobOk/PiBQxNESKGBoiRQwNkSKGhkiRHqHxHdRL6V4A7A1AutIjNABQA9wDB8wJ6U6f0FSPMLBcPFhoSePBLs17BniIVibbgVMvoVSqw/H96PcSSvZ8ArHXgKzTDdFl6BMaAEZ7gMpx9gVuohcECIIA0+4ESVFn3wUGAYKpBbd8EP4eTNGdDMP9PRvHlWnYa2BawZDnelQQrUIDGGgfAcepF/h8pSl3zuabW0doGwCMPVRrFppGuP9edYILP+w1cNYphytNuYP++VRyPCJ1moUGgNnD0fkBjqPeAL5zDIzilaa2bu+UWjdaaYIAQc8EURH0Cw0A89ACokXF2Kui35CsNGsY7QEsN1ppSiXYvKihguT6wuaVM9pIWgTE/w6iLgFGD0EgPggA4ngTvfF8FTF7Y4T/Yq8BuhparjREOmNoiBQxNESKGBoiRQwNkaJcn56plIKuUtQ8RNcpV2iKqO1njwDSmcobOk/PiBQxNESKGBoiRQwNkSKGhkiRJqERqzPjasx1++TnO3XUc06oMpZ2kyahAVDrYhrXvkwtuOXivs5vtMcYt43lA3wH9ehga8fSztMnNCKjjUG3ltywdqHW33dQj1aleFXwnXq6dsazUbdt1Es2PM8Ox6V6C5RQqjvw4cEud3DWb4Tzx2Mzcya9B6Rz0C7RMzRR8Rkgr/X3T11Uo2rOcdsAfAcHrpWsVHGR5tmkgkHQQ6pmM+4tEASYWi4OnDJ60y5qrRECcaxno3x+lFR+jtCYr3zJHFN04eKUqdkp2obGv5igVilLa/3DBhzzlcc/dVE9aiN7UlWzmgvbkt4CYjAl/IsJWvtCcdt+C5OLKB3JHAaaFsD2A7tFz9B4NsodwAq7ZUhq/cOqzGBawbHthSXRw5wXQJOL5HTKG/ZR3ZNfv2TnXDWWdos+oTnroBxfPzSAUTBG25DX+ifXGuUOqvsmYPYwQiNnPwAXB9G4BkbhqZzRhDVppPujZeZMxhIFGXfu3Alms1kwm82Ck5OTYDabZYdcSlHzPJVpN6i1RutG0Q6KX5/xa342mwV37tyRjtVnpSHaELlKA7ZGtusN0SVwpSFSxNAQKWJoiBTluqZRKQVdpah5iK5TrtAUUdvPHgGkM5U3dJ6eESliaIgUMTREihgaIkUMDZEiTULjwZb1BfCdsPJyyV7rebCFykrPTt/9+Vnz7GJ7H9D10CQ0AGqAm7kfuvfABVbdZlOo7V/Hd+phBSi/309PSZ/QVI9whGPhndjDEBYsYUi6V0Cmtj/V0Sa9Ok2dOg4wSDXMSM/lw6nXU8e26w4cO55HfNyDHQVV2kNA7E2QOc4wnl7S44A2hz6hAWDuV+Gexk0thqgcNucPLvQKyNb2m+gF8V2gJ0iKLs86aLgWBmKHmYW5gPaReOxj4KiNZiWaxz/FOaKyZm+ISaW8sodA0pvAs9HAKBqzD/TDxxd6HNBG0So0MA9huQ/gwcMDt4Km8HqS9QpIm680qbtA17qYHp2jLJzGSecy91F1T+HDx6lbxb4JGE0Lk6EH//QclcERMPTgX4Rl2Kt6CMS9CdJjTOy3wt+yPQ5os+gVGhhoHwFDewjIGmUs9AqY851jYBSvNJkLIbOHaeU49SHA4lwmDq1znHqnOLcOw640RhMWhnhwXkHTKKOS/J6vh0B6jI+LSfJIqscBbRbNQgPADE9j9jPX67JeAWJt/3Svin5DstIk+4/D4NQdQDYXAKNZgdtwUUmWOAPNygSTShNG6vecPQTMQ3Qn8ZgDuNHmhR4HtFmy9c9b3SNgnVErAHsI7CT2CFDmhx0zG8CIH0nTGrlKA7ZfeI3RXjeMSMtrGiLNMTREihgaIkW5rmlUSkFXKWoeouuUKzRF1PazRwDpTOUNnadnRIoYGiJFDA2RIoaGSBFDQ6RIk9BcYY+ApJqzhJLsGE/Bd+q5Ky9VxpLeNAnNFfYIqHWTuz4HUwtued3tBfMz2uPVlZfC81s7ljaGPqG5wh4BCaONQbeWFIal55PX7ot9AGwv0wPAs8NxvoO67YTflC6VUKo78LPPLx67rLeAdA7SkT6huaoeARnJbdAX5vMXa/d9BweulaxUcdVA0gNAnLjvAoPo+JaLg4Xnh+S4y3oLzOeYogsXp0yNlrQKzZX0CMjwLyaoVcrS+bK1+/6pi6qs7DrqAZDSOkJ89pUEU2JVb4H5HAaaVtTIg7SjV2iuqkdAzLNR7oSNMeTzpWv3s30AVppczJsSSvoFxPL0FiC9aRaaK+gRcNZBOb5+aACjYIy2IZ9voXY/0wdg9QcILg6y/QKE55fsmqe3AOktW/+80z0CLmvaDWrsLbDR2COA6ArlKg2gNYw2xr11g2hbcKUhUsTQECliaIgU5bqmUSkFXaWoeYiuU67QFFHbzx4BpDOVN3SenhEpYmiIFDE0RIoYGiJFDA2RIk1CcxU9Avx5FaRQ0enIavWFqkqidTQJzVX0CIhqY4IpurUWRkGAIOihHdfq5+kvQCShT2ieRY8AxKuKk9l32TGIFukTmmfUIyDUXFq/n+0bQJSlVWieRY+AVdYfg0i30Fx1j4AcVh2DCPqF5gp6BCwjqd+XHoMoK1v/zB4BtIvYI4DoCjE0RIoYGiJFDA2RIoaGSFGucmeVUtBVipqH6DrlCk0Rtf3sEUA6U3lD5+kZkSKGhkgRQ0OkiKEhUsTQECnSJDRi1eWzurNx+pj69Ajw4dTlVaOeLemjQM+cJqEBUOsmd1EeVTs4KPrVkeoJ4MEO7yWY1M6M20vue8leApShT2gE5n4LZ+fTzGoQvft6Nuq2nXSpWajp9x3UbWfeiabuwM/0E3CcY/RbsntdZo+X7UMg7yEgbrOF1SC5h2ephFIcvOT511Gv11M9EWzJCivOPQTpQMvQeMM+apUysKTu/2xSwSDowVxW0993gUHUiQYuTn0z1RNg7/wsdVvyuezx0vtJj+fZaGAUrVhhAV34H2GjfH6UrGQjNJKitvD5jzE+EnsiHC9Wqy6bm66VPqER7sLcwCg6XZLX/desJoxVNf2tI4RnWwaaFpAt9S9XaphcyE7/VvcZkB3Pv5gIATSx35qPFYNp7reSY8bPH+Y+qu4pfPg4dasL1arL5qbrpU9ohGuauDY/T93/ZWr6jaYFdA4WLqovczxjr4p+0vrGx8Uk/C29PVw9q3vZ6yYTh9Y5Tr1TnFuHyD77ZXPT9dInNBLGmrp/pZp+sSeA0cZ4asEtpz89kx5P7EMgO555iO6kEW07gBsfz+xhhEYytgHZNRRgNCtwGy4qTckHEcvmpuuVrX9mj4CnMQpaaAWjdcNEo1aAltIedAXYI+BZ8h3Uk0/cGsCot3CaJRf1mm4Ao5ynlaSHXKUBtILRxjhorxslEfaavsyedL240hApYmiIFDE0RIpyXdOolIKuUtQ8RNcpV2iKqO1njwDSmcobOk/PiBQxNESKGBoiRQwNkaJcHwQQ6eDu3bvrhhTil7/8ZfK77JgahSYsQY7rrGrd6fIS5GfKg12/wOF48XaGl+LZqF8cavLftnnee++H64ZcOU1Oz1izT5tDi9D4G1SznzyaOq4PR9zXd1CP9pU9P9psWoRmuik1+7GF4wJtcd9TF9WjNoxlPQxoo2kRmk2p2Y9JexOI+55bODRX9DCggv0K3dqLKJWin9r7V9o3T4vQbErNvmixN4GJQ8vFA/sB3EozWaEu08OAFPjvo1b6Gv71h58hCKKfvwN+uvJc+J9gl76B7iWTpUVooHvNvtApp+74S3sTGE0Lkz5wFH2IodTDgC7hV+h+90f4yuiz9P9L43voXOX7U7b+ebt6BLBmf5uENfufzX+mbwev4NvBSNyW+Rm1EADRT+skCIKToIXstniueLswp7D9lXfeDlp4aQt7BLBmf7e8YqC84mGzF5+2naDVfxdd/1X0ghO08BLemX6GoPdqeLpW/imsaTR2BPxl91fR9nAlC4LP8Hf4KfranJ4VyWhjHF9DBIH0FEwurNkPgrwhIy187GPlxyveW9EHBLeXNyj1n+Bf8Al+UI4+SGj8BB//6/8Nt7/yNg6jF4TReQOtrQwN7Q7jv8N65ScYLrtW9N9HrQGMgs8QBP8H77yyZBwA4NvRuOin9+rSkQwNbbDfReeH30a/8WL6Qxb/fXQ9AFMfH8enb/7/hvvxkmmMm/gKfhKdkmW2f/wjPIjm9rvvbunpGe0W8z6C6dv4l4bwd5rvAn9sAjBtvIMfoVx6EaXv+vhKstK8iv1WdDpm/xOAV9Gbvg384GvzOeLtozCUpdKL+C7+GK28X9hUKQVdpah5iFKM7+Es+J7kgd9F5+wzdCSPmL3PEPSEDcvmMO8jCO6Hv/vvo/aD/5YvNEXU9rNHAG0678GP8PErb+cLDdFu+hW6ta/hB8m10LcxCr7H0BAtJz+9Y2hoo9y9+5frhlw5hoY2xnvvvbduyKXF19yDwQD7+/sAgDfffFN6TH7kTKRIk9D4cOqsbKTNoEloiDaHfqHxHdRtJ/zGcakOx4++fSzW9S/0Doi2LukNwDp9KpJ+oQGAvgsMAgRTC275IPw9mKI7GUYv+mzvAKzsDcA6fSqSnqFpHaFtADD2UK1ZCIsoDexVJwjL+hd7B6zqDcA6fSqSnqFZQ9Y7YFlvALBOnwq2kaGR9g5Y0huAdfpUNE3+uGmgPY6+cmq0MU6+fWqiNxbaLvXGYVWl0UOQ+opqPEd8t2QPdmmIPSO7nejpbeRKI3Xp3gBEajRZaQpgtDEOuJ7Q1duelYboGWFoiBQxNESKcl3TFFXbX9Q8RNcpV2iKqO1njwDSmcobOk/PiBQxNESKGBoiRQwNkSKGhkiRJqFZ1SNArNIM70SmZNkt1D1bfS6ivB85X7vWiHUwpA1NVhqB8G3lpStBqo9ACaW6E93NV947ALiQjJ1jDwFSoV1o/FMX1agqcxzd8BX9uLhs3iwj6SMQTNGFi1Mf8t4BqbEBppaLAzGM7CFAirQLjdEeoHKceddvxQ0zxohzlPQRgIGmBYSl/4u9A9Jjw6pPEXsIkCrtQpPc+3JawbFibbKsdwAAYHKRnJJ5wz6qe8LtztlDgBRpFxrfqSfv+tW4u0xyerb60zNp7wAAgIuDaP8GRqmb17KHACmT3at9NpsFs9ksODk5CWazmfym7oqKmofoKsSvz/g1P5vNgjt37kjHarfSEOmOoSFSxNAQKWJoiBQxNESKcn33TKUUdJWi5iG6TrlCU0RtP3sEkM5U3tB5ekakiKEhUsTQECliaIgUMTREijQJTboPgFhs5jt1tVr+S9X+C3eQzha7reDZ+cbRdtEkNABqXUzjmpapBbccfk3faI/nFZxXwoNdKsO1hJqaqQW3zECQnD6hERltDLq18Maz8cqR7R2wtE9ALNsvwIdTF4Pgwa478L0h+q1ROphGG4Mu4J764fFtG/WoklTsJzAUj5btM5DZj7aHnqGRlSVLewesqP1f6BdgoH1UDYMQV3ketYGLCWqVMrKMvSrOotLns0kFg6AH07PRQFx6vQ/0o8FL+gwk+y3MTptM29D4mRezvHfA8tp/ab8Acx9V9xQ+fJy6Veyb6XCIxOPXrCaMaFsrriaFif3WfKysz0C8H20XPUPj2Sh3AKspvuQkvQNW1P7L+wWYOLTOceqd4tw6DFcAcx+tfiP94YFno9yp4ihzLWXsVcNTxvAIuJjMH2Ofgd2hT2jOOijH1yANYCR2nlnWO2BV7f+SfgFGswK34aKSBNJELxih2pn3CQiPLzmtMg/RncT9Cg7gxnOyz8BuydY/b0yPgGk3qLVG60YtGrUCXGY/2mrsESAV/S2mAYx4+kRPIVdpgJaMNsa9dYNE4TVRe90wojV2aKUhKgZDQ6SIoSFSlOuaRqUUdJWi5iG6TrlCU0RtP3sEkM5U3tB5ekakiKEhUsTQECliaIgUMTREivQIje+gnvlqsLT+Pqn/j6ouk80llPjVYnpGcn3krDPfqYdVk1faR4BoTo+VZpUVtfZTp44DDFL1/ela/SV9AUB0efqHZlmt/VkHDdfCQFxhFmr1Ie0LwDWJnsZGhEZaa1/rYnp0jrJwLSOt1Zf0BSB6GnqExthDtX88P43yHRz3q9hbtySYPUwrx6kPARZr9SV9AYiegh6hgYneqIpOOboeKbuwpvlaHxntcRicugMsqdVf7AtAdHn6fHpm9hAEklJMs4exmf3dQG88j5TRHiOISjKl1ZnTc5y1jjBmZqgAmqw0V4V9Aah4+qw0V4J9Aah4W77SEBWPoSFSxNAQKcp1TaNSCrpKUfMQXadcoSmitp89AkhnKm/oPD0jUsTQECliaIgUMTREihgaIkV6hOYyPQKSOzfL7uy8hOQ4RKr0CM1l1LqYRnUzo2onc2dnAYNCBdM/NCt6BMTM/VZ0h2ZxBbLhwYNd7uCs3xDuCn0RfvNZZYUiEugfmmU9AgTesB/dvtxEL4jv6DzB0DPRm3ZRa40QxPv3XWAQIAim6MLFKVNDijYiNNIeAcLdoBsYRR1p5iuNeEfnlNZRdNdoA00LOJ/KhxEto0doLtMjQLimCaICM985BkbxSlNbsTPR5ekRmqfoESAy9qroNzIrjdGENRGvaYieTq4vbD4TT9EjQBy7OEe6etMUHjbaYyjdIJpIn5WGaHMwNESKGBoiRQwNkSKGhkhRrk/PVEpBVylqHqLrlCs0RdT2s0cA6UzlDZ2nZ0SKGBoiRQwNkSKGhkgRQ0OkSJPQ+HDqy76FnOkHUJL0DkgNj/sIPD1pnwLaeZqEZg2xdmZqwS3Pbw2ohP0CqAD6hcZ3UI9WFemKYbQx6NbQH4Yvfs8WewKkpR9b7Bcg21fcNlw4OJGGofFPXVSj6suwhHmRsVcNf/FsHFeiuzlPKxiKIVt4rJzuFyDb17PRwCi6O/Q+0JcennacdqEx2gNUjuUrR8y/mKBWKcO/mOCsE93NudxBXyj4X/XYssf9iwla+0nFG/ZbIFqgXWjiSstgWsGx7PrDs1HuAFZ0e/NaN1othF4BsVWPyR439qrJaR/g42KysAuRfqHxnXry7l+N3/WFzjOlBjAKxmgb4apkueXkkzUxY9LHhH4BU9nj5iG6k0a07QDu0mdJOy3IuHPnTjCbzYLZbBacnJwEs9ksO+RSipqH6CrEr8/4NT+bzYI7d+5Ix2q30hDpjqEhUsTQECliaIgUMTREinKVO6uUgq5S1DxE1ylXaIqo7WePANKZyhs6T8+IFDE0RIoYGiJFDA2RIoaGSJFGoUn3Aiiqzn+dpA+ApBSaPQJIRpPQeLDD7/wn9S3LqjbXYh8AumJahMZ3jtFvjbBQJ+bZqNs26ktr+sXV6Qr7AEj6FizMm3mutL20CM30/EwoM047m1QwWFbTDxO9IL6b8wRDz7ySPgALfQuW9CZInuu6CWmjaRGacqWGyYX84qFmNWEsrfmfrzTJ3ZwFRfUByPYtWNZ/IH6utN20CI3RtIDOwdqL7mxNv+8cJ9dB024t1z5L+wAYe6j2j+fPwXdw3K9iz4C0b8G6/gO0vbQIDYw2xlETwGWfnslq/o29KvqNzEpz6T4AJnqjKjrxcyi7sKbhqVa2b8Gq3gS0A7L1z+wRQLuIPQKIrhBDQ6SIoSFSxNAQKWJoiBTlKndWKQVdpah5iK5TrtAUUdvPHgGkM5U3dJ6eESliaIgUMTREihgaIkUMDZEijUJzzT0CMscvldgfgOQ0CY0mPQJqXUzjGpmoVGHpVE9zHNpoWoRGyx4BRhuDbi0qWLvccWg7aREaXXsEGHvV6LdLHIe2lhah0bVHgH8xQa1SvtRxaHtpERotegRkeTbKHcBqGpc6Dm0vLUKjR48AAGcdlONrlwYwCsZoG5c8Dm2vbP0zewTQLmKPAKIrxNAQKWJoiBQxNESKGBoiRbnKnVVKQVcpah6i65QrNEXU9rNHAOlM5Q2dp2dEihgaIkUMDZEihoZIEUNDpEiT0HiwZTX5vqN8t+S45t936gt3Yq7X67l7DyS9AyRlzfO+ArSLcn3k/EzUAPeBh7ZQi+I9cIFaFZdhtMcYA2HNDLqYBm3eRJYKoclKA6B6hCMIN4qFhyEsWMKQ5N6XpRJKwru/tObfs1F3fHh2GZ1+B+VSHY5jL6w+yr0DRL6Deqb+Z2HeTJ8D2nz6hAaAuV+Fexq++HxniMphc/6gZ6N8fpRUR47QCIu91tT8m70puq0upsEY7b35XE/TOyDmn7qojoTuOUt6BSR9DtZNSBtBq9DAPITlPoAHDw/cCprC+VS6th8w91uYXPhKNf+xp+0dEDPaA1SO56vKsl4BcZ8D2g56hQYG2kfA0B4CR+lrkHRtP+AN+6juGflr/jNy9w4w9lDtC6eNvoPjfhV7BsLnOw5XlePodJG9ArafZqEBYIanRgsdncweRohr+0toIOqTtqrmfwlZv4Hl85jojaroxP0Lyi6saXiqlVxjlTuo7pvyeWn7ZOuf2SOAdhF7BBBdIYaGSBFDQ6SIoSFSxNAQKcr13TOVUtBVipqH6DrlCk0Rtf3sEUA6U3lD5+kZkSKGhkgRQ0OkiKEhUsTQECnSJDQa9whI3dm5hJLsedJO0SQ08x4BorBHwNI9VjLa47CaMukREGA8jrcpqoX7hxWZ4W0Ol37tX9KIg7aLPqHZlB4BRhuDbi0qWBNXIRsePNjlDs76jWRe2XFos+kTmg3qEWDsxR1yTPSC+K7PEww9E71pF7XWCEHQg7mkZwBtNq1Csyk9AvyLCWqVcmqlSe76nBkn6xlAm02v0OjYIyDLs1HuAFbTgO8cA6N4pZFffLFnwPbRLDQ69ggAcNZBOb52aQCjYIy2EQW5kVlpjCasSXhNM2XPgO2UrX9mjwDaRewRQHSFGBoiRQwNkSKGhkgRQ0OkKFe5s0op6CpFzUN0nXKFpojafvYIIJ2pvKHz9IxIEUNDpIihIVLE0BApYmiIFGkSmkwdfg7bfPAAAAShSURBVObrwGK9/2UlNf+evXwuSanyvFdAauNTPx/aXLk+cn4mal1Mx23pDV2N9hhjyXai66DJSiPh2ajbdtiNxltR2+87qNsOnHq0ve7AT6ZYVvM/hVOvp/oR2MJ+UuLzWTWOtp4+oREKveIzpLNJBYMgvCkssKS2HwD6LjAIEARTdOHi1F/XO6CM9pHYj+B4oVJUZuH50E7SJzRCm6S4KrhmNVMv5KU1960jtKNblDct4Hya7Skgqfk391F1T+HDx6lbXawUlcg+H9pN+oQmp7w19+tr/k0cWuc49U5xbh2Gq4exh2pfaCPlOzjuV7HHpJBgo0Ijre1fJkfvAKNZgdtwUUna3pjojarolKNrobILa8rTMcrI1j/vVI+AUStAa7RuFO0A9ghYyw8/bWsAI7ZVIkX6/J3mmTLQHgdorxtGJLGjKw3R5TE0RIoYGiJFua5pVEpBVylqHqLrlCs0RdT2s0cA6UzlDZ2nZ0SKGBoiRQwNkSKGhkgRQ0OkSJPQZHoElOZVlcr9AVTr930H9VK6D4C0LwBRRJPQpIvQgqkFtxx+9d9ojzFuX3FBSw1wD9aUOxNF9AmNyGhj0K2FRWTxyuE7qEcrUfLvJb0BQuLqZcODv7wvQPUIA8vFg4X6nOwc2Z4EdTi+P38OQoHPQi8D2hp6hiaqvBT5py6q0Z2Uk5Un6Q0QYGq5OEidU5noBfGdlycYesbKvgBGe4DKcfYFnp0D6eNOLbjlg3l/gskw3H9ZLwPaCtqGxr+YoFYpJ/8OX9SZd+6kN8BiyMRVIrnz8sq+AOHt2I9TL3DJHBCOa+yhWrPQjPoT7FUnuPBX9DKgraBnaDwb5Q5gNcVrmbAGJphWcByfBk0u5u2ahn1UhWJ+3zkGRvEqUYu2SvoCiMwejs4PcDxZNUc+eXsZ0ObRJzRCC6dSAxgFY4jX/75TT965q8kS4eIg2qeBEcTXprFXRb+xuEos9gVIMw8t4Gz1HOso9TKgzZOtf96YHgHTblC7TH0/+wKQBHsESLEvABUjV2mAlow2xr11g0TsC0DF2KGVhqgYDA2RIoaGSFGuaxqVUtBVipqH6DrlCk0Rtf3sEUA6U3lD5+kZkSKGhkgRQ0OkiKEhUsTQECnSJDQe7MxXgeM6/WU9AvLU8Sv3FyDKQZPQLHf5HgEeHrgA3NN5GbTvoB6HU/ydSIH2oRG7y4h198PUEEk9vjfExBoItf8e7HIHZ/1GUpcT/m7D82zUbRt11vNTDvqEJn4xx0Vl/czjno0GRlE15D7Qn2+X1eN7wwmspgGjaWEy9MJ6/2kXtVY0R/J7eCPas0kFg4A3paX19AlN/GKOfkat9MP+xQStpGLTxH5rvn2xHt/DsH8W3qW53MFZf7h2BalZTVzmJJB2jz6hWcPYq4YtnQAAPi4m88cW6vG9ISbCtlQnGaKntDGhgXmI7iQ+hTuAG22W1ePHp2ax5BTNaMKaRNcx4u9LD0okka1/3pgeAUQFYo8AoivE0BApYmiIFDE0RIoYGiJFucqdVUpBVylqHqKiqZTirw2NymREu4CnZ0SKGBoiRQwNkSKGhkgRQ0Ok6P8DjBae2UPVQ70AAAAASUVORK5CYII=;" vertex="1" parent="1">
          <mxGeometry x="3080" y="870" width="205" height="454" as="geometry" />
        </mxCell>
        <mxCell id="LYCwLjDnQvL3Gzslhouy-21" value="" style="shape=image;verticalLabelPosition=bottom;labelBackgroundColor=#ffffff;verticalAlign=top;aspect=fixed;imageAspect=0;image=data:image/png,iVBORw0KGgoAAAANSUhEUgAAAMoAAAEeCAYAAADLvYolAAARnUlEQVR4Xu3dT2gb+d3H8Y8e2kAhEB962GUPC6nkgtEptD5Ye3kOSSv7opRG7NKF5JBYXVhWPiSHUB+egyHQbKm08JDaC8WmPSnQ+CJrk9wW5IMP24sJJFJzXXhOStlDb/McNCONpBnNV5bsGVvvFyxY0vzJQR/9fqPVZ34px3EcARjrv6I2AEBQAJMf+R/cu3cvfEtgznz99de9vweCIklffvnl8FPA3Ll///7AY6ZegAFBAQwICmBAUAADggIYEBTAgKAABhMH5e2TG1pYWNDCwoJuPHkbtfmEXmpjYUELCzfUPfTwYyAeEwblrZ4/O+o9Onr2XMPvXy9I/hAFPXeW4j4/zr/JgvL2uZ4dSVq+ozvLko6e6fnAe28wSOHPhbmuSqejTueFPrsata3VJOcHgk0UlLfPn+lI0vLNL/TFzWVJR3r41UvvVT25cU0P3ffk0cNrWli4oRsjz23opd7qyY3u9G3jpTu9uvFEb8dOtbzXvP28pze6z9144o5u/mMH/Zs21N+1fzymdxhngqC81FcPjyQt6+avrupqeqn79G6998Y7id1bt7QbtZGkZ78f3G731sYU5+2G6dbAiY/08BphQTB7UF7Wu2/U5Zv61VVJ19d0R5K0q/pLSbqqz158p0fL3c2XH32nTueFXow8V9F1/3HvPFWn01HnxWcKn20dSTe/627XeTp03nGC/k0VXX/5lTvK3NHTTkedTkdP70jSkZ49JykYZQ7Ky7r78Xv0UNcWFrSw0P+E341+x4a6szYQmxDdUazrZ/r5csTmZru65U69blmGNcwtY1Beqj7ujTTl9CvakV7/y/3T+0JhZJPX+te41wP1RxTvvxez+xYBF4gtKN60a+SNNTwNuirv0qV/4Rz03OR2b7kX3dce6kiSlh/pi+uSfvZzdQcYd3S49kwaGHECzu+bNt5a8F3Q974QAAYZgvJWTx67w8mdtcHrC13XWvcd15t+Xf/ikYZnRkHPTWZZj576j3FHT71rmquf6S+PfK88/YtuDu09ev7rqnT61y5AlJT/Liz37t2j4Qi4DUd/FdgwogAgKIDByM0lPPv7+2EvARdWoVAIfD40KBqzE3DRXLlyRXt7e6Gvjw2K3ANM6927dzM5DnAa3r17F7UJ1yiABUEBDCKnXh7L8DSM6RYuCnNQxnn9+vXA4w8++ECXL18O3R44b6YOSqPR0D/+8cnAc7/4RVm/+90DRhRcGFNfo3z++eeq1aQ//Un69FOpVpMOD6v6/vvvo3Z1tVXNldQIeKVRyqnaDngBOGNTB8Xzk59I778ftRVwPk0dlG+++UYffST99KfSL38p/fnP0q9//Ud9+OGHUbsGapRSSqVSSqVK4rcBSIqpg5LJZPS3v73VRx9Jf/2r9O9//48++WRdly5ditp1VKOkVR3IcRw5TkHaidoBOBtTB8XvN7+R/vOf/9W3334btWmg9ptjrRfy7qO8CusROwBnZKZB+ec/pR//+L+VyWSiNg2UXsxqZ9+7rG/rzXHEDsAZmWlQFhYkx/k//fDDD1GbBss/UOV41b1Gua1a1PbAGZn6/6NI0uXLl/Xb3/5Bf//7t/r44z9OOKKkVW5u+/52VI7YAzhrMwnKpUuX9PHHn6vT+VTv8x0xLiBzUKL+L/uVK1f03nvvjd0GOK9meo0CXFQEBTAgKIBB5DXKSXooQWZ1HCAOkUGJuoi3oDOPJLN8iDP1AgwICmBAUAADggIYEBTAIP6gtKvKpQa78XTlkTTxB0WSVqTa7arIBpIqGUHJbmqvWNPjkVuxNFRK9Tv0DbkjUKmqai6lVCqnarvt/p1SqtQ/gL97H3SHF2ASyQiKpHR5T0tbw2/qvLYdR47jqFU5Vq/8uFOT9hw5raJqmdvdv52WKsf73f0bJW0ttbrd+9aS9pnHYUqJCYqUVnlT2hp4U/dHlMzGYf/p9U2V05LSi8quFLWW7u6/mD3Wm3a3e3+4kemOKJkN7bxqBZwPsEtQUCTlt7X56ra23K58u7olHXgjykrU3gNWKu6I4jhytvMCppGsoEjKPyhK7uCRXsxqZzVgRImQLu+pWHNHlFRKJS5SMKXIH0WeunRZvcq899hxW/PpbTmO/0VJ8m+f13azP1rkt5vqPqJ7j9lK3IgCJBFBAQwICmBAUAADggIYRH7rZalJWszqOEAcIoMyi647nXkkmeVDnKkXYEBQAAOCAhgQFMCAoAAGsQdlpB/friqXC6gFN0rKUcBCTGIPSr6QVa3eD0C7XpOKa0qP3Qs4W7EHRfmCsrW6O4K0Va9ltVlujXblPUMji39EoieP0xJ/UJRXIVtTvS2pXVctW1A+rCs/Dj15nKIEBKU//WrXa8oW8uFd+THoyeM0JSIo3enXYz2uZVXIR3TlM0tSb6rW0P5O/yV68jgtyQiK8ipkd7STLSgf1ZVPr6moDWVSKaVS+9K6+zQ9eZyiyB9FnpX8tiOn/yCgK78trx4f3IenJ4/Tk5ARBUg2ggIYEBTAgKAABgQFMIj81stSk7SY1XGAOEQGZRZddzrzSDLLhzhTL8CAoAAGBAUwICiAAUEBDBIQFP/Kv95Kv91X2tXcZD35SXv1rHEPowQERdJKRS2vR9Iqqpbp/kw+XW6qWT7l9jxr3MMgGUHxS5e1V1nRzn6jP0K0q8q5I07vcW+t+ZRSI3dtGV6fvq1qzj9SNFTy9mGNexgkLyhuccuvXa8p6zYeeyOMt9a846hVrOn2wHxpuHOfVnmzf7eXdnVL2iz37vTCGveIksigtN8ca2Up03vcfSMPfUJ7a80HBCuwc9+720v3Ti+FgaYwa9xjvOQFpVFSZkMqrvmvTbrtRae1pC1vinP8pjfdauzvKLvY3z64c5/Xg+Ir1Rt1vSo+0EijnjXuMUYygnLodeBTSq1KB05T/mv4djXX+4TO9oaCmm67+6zqQP73Y1jnPr22pNpqTUsDIexjjXuEcnzu3r3rdDodp9PpOLu7u06n03FmYVbH6WlVnJX1g6itRh2sOzrJfrjQvPen957vdDrO3bt3B7ZJxohy6txvp1alA6ZCOIHIn9knUrqs5vBNWsbiDi2YzpyMKMB0CApgQFAAg8hrFEtN0mJWxwHiEBmUWXTd6cwjySwf4ky9AAOCAhgQFMCAoAAGBAUwSEBQYuzMS/3fgQWcfxy69fMlAUGJszPfUCmVUa3o64+0iqplCAEGJSMofmfZmW/sa2f9YDCM6bL2KurWhhsl5Uol5dxmpb8Lv+8/23BHfmg/nH/JC8oZduY1VDn2pBezOnQrvIfHS9pztpVvlLSqA3fkKUjeasQhHfnefiNHx3mUyKCcVWfeHwg///lXimtKu8+t99qVeRXW+9sGdeS9/XAxJC8oZ9mZzxe0vrM6+AVAo6TMRlabQ9dG6cVsdzrYPYPeHPdfoyN/8SUjKLF15vPadg6U3eh33LvnD5gy5R+ocrzqbndbNe+YdOTng78XTGce84jOfA+deUwn8mf2iURnHmdsTkYUYDoEBTAgKIBB5DWKpSZpMavjAHGIDMosuu505pFklg9xpl6AAUEBDAgKYEBQAAOCAhgkJCiDvfnJe+8n0CgpV20M9eVTrOSLQAkISkOl7m/be52OE/Xk21XlJv6Ne6bbc3Faqqys68Bx5NBKRIDYg9KubmlnfbBP0n8t1/+k90IQ2JdvqJTZ0OHOandEGOqsBx4nUEi3fkxHnzXl50PsQWm9OvRVbH0aJWVebfZGmQOt9ktRvb58SxXVVG/ntd2qaGX9oDci+LvuoccZMWY9+qCOPmvKz43Yg5JZWtHxm9E32GBHXcoX1vvb9fryaa0VpaCl3IO77kPHCRK2Hn1AR5815edH7EFJrxWljdsj99Ea7KiP9uKtJj9OyHr0IR19+vLzIfagKF1W073p3cC3XvltHWi199xwL370OGsqHq+OXitMepzQ9ehHO/r05eeIvxd8bjrzp224W3/Sjj7OBTrzE6Nbj2CRP7OfLyHd+ok7+rhoGFEAA4ICGBAUwCDyGsVSk7SY1XGAOEQGZRZddzrzSDLLhzhTL8CAoAAGBAUwICiAAUEBDBISlBg68/614gNqxKwjD78EBGVGnXmdtDcPRIs9KKGd+TFrvHejMLyW/FBvPqTPHrZWfKjhNe5ZV34uxR6U0M78UO99tJs+vJb8UG8+aJ+wteLHGFnjnnXl51LsQQnrzGuo9z7aTQ9YS94naJ+wteLHGV7jnnXl51PsQQnrzA8b7qYHryU/fp/QteLTi8rubPX/De2qtnayWnRvYDG8xj09+fkTe1BCO/MDm4x20wPXkvf15ltBffaQteKlvLYPstrw/g2Zmoqt7jRqeI17evJzyt8LpjOPeURnHpgRggIYEBTAgKAABgQFMIisAltqkhazOg4Qh8igzKLrTmceSWb5EGfqBRgQFMCAoAAGBAUwICiAQUKCEnNnfuj8qRR9eQxKQFAS0plfqajldUzcn/2HHmqa8+Bcij0oiezMp8vaq6y4Ja+TnQcXS+xBSWpn3lsi+0TnwYUTe1CS2plvvznWylLmROfBxRN7UBLRmR/WKCmzIRXX0ic6Dy6e2IOSjM68pMMNZbxrkVXpwGmqnD7heXDx+HvBdOYxj+jMAzNCUAADggIYEBTAgKAABpFVYEtN0mJWxwHiEBmUWXTd6cwjySwf4ky9AAOCAhgQFMCAoAAGBAUwSEBQGioFddTb1YlX2fU68O1qbmQF31wuZ+7is/48hkV+PXwmVqTa44bKvi5H43FNWsnqJNLlpppSt3OiilpOmYVIMZUEjCiSspvalG+xUTW0r6KKvk16aymmUkr5PuUDO/CNknLVthqljDZ2NpRJ5VStlsLXibd26f1Yf36uJCMokvKFrGr17huuXd3X0oO1/ouNkjKvNnstwgOtdgtSER34/HZLlfWKWk5T5cX+sabp0ntYf36+JCYoyj9QsfZYDTX0uLakNd9cabDrLuUL6zp+056oA++ZtkvvYf35+ZKcoCit8qa0X9qXNgevKQa77lJjf0fZxbS9Az/E3KVn/Xm4EhQUSfnutGfk7kX5bR3I67qntCr3PmDjOvAhAteJZ/15RPH3gunMYx7RmQdmhKAABgQFMCAogAFBAQwif+tlqUlazOo4QBwigzKLrjudeSSZ5UOcqRdgQFAAA4ICGBAUwICgAAYJCEqCO/OsPw9XAoLS78z7dTvzoXuMlS433bXqvc68o2azebL161l/HokJynnpzLP+/NxKRlDOUWee9efnU2KCcl4686w/P5+SE5QkduaHsf783EpQUJLYmWf9ebj8vWA685hHdOaBGSEogAFBAQwICmBAUACDyCqwpSZpMavjAHGIDMosuu505pFklg9xpl6AAUEBDAgKYEBQAAOCAhjEH5SZreXeVjXn77fTLMTsxB+UmXHXVHRaqqys68Bxuk3DqN0Ag2QHZaq13Nuq5nIDPfxSrqp2u6pcqdoffXJVeZvQcUeYRAdlurXc0ypv+nv4W/3m5E5N2nPbicWabru9eTruCJPooEy9lnu+oGytrrbaqtey/ebk+qa8Oxd5N4ug445x4g/Kqa7lnteD4ivVG3W9Kj7ojzjHb/rTLbd/r4mPjXkSf1BOeS339NqSaqs1Lflv66Kabg/1709ybMyPyB9Fnon8thxne+TpdLkppzzwjMpNRwNPaVvNgQ//tMpN37Far3S4vqmmPyfZTTWbwyNG0LGBrgSMKKfF/f8qq9IB0yhMKRkjyqkIGSHSZTVHBy9grAs8ogCzQ1AAA4ICGEReo1hqkhazOg4wa5aa+tigWA4AzAOmXoABQQEMCApgQFAAA4ICGBAUwICgAAYEBTAgKIABQQEMCApgQFAAA4ICGBAUwICgAAYEBTAgKIABQQEMCApgQFAAA4ICGBAUwICgAAYEBTAgKIABQQEMCApgQFAAA4ICGIy9m/3e3t64l4G5ERqUQqEQ9hIwd5h6AQYjI8r9+/eDtwTmWMpxHCdqI2DeMfUCDAgKYEBQAAOCAhj8P5kBykeeCLD4AAAAAElFTkSuQmCC;" vertex="1" parent="1">
          <mxGeometry x="2310" y="1450" width="202" height="286" as="geometry" />
        </mxCell>
      </root>
    </mxGraphModel>
  </diagram>
</mxfile>
